<svg width="32" height="32" viewBox="0 0 32 32" fill="none" xmlns="http://www.w3.org/2000/svg">
<path fill-rule="evenodd" clip-rule="evenodd" d="M16 32C24.8202 32 32 24.8202 32 16C32 15.0097 31.9095 14.04 31.7364 13.0988C30.5604 6.70578 25.5707 1.62878 19.2208 0.325745C18.1801 0.112183 17.1029 0 16 0C7.17984 0 0 7.17984 0 16C0 17.516 0.212097 18.9835 0.608185 20.3744C2.22849 26.0646 6.92767 30.4731 12.7802 31.6743C13.8206 31.8878 14.8975 32 16 32ZM23.9551 26.5975C21.7398 28.263 18.9852 29.25 16 29.25C12.5895 29.25 9.48007 27.9617 7.13184 25.8453C7.1308 25.8443 7.12979 25.8434 7.12875 25.8425L5.94122 27.0299C5.94226 27.0309 5.94324 27.0319 5.94427 27.0328C8.59995 29.4554 12.1304 30.9344 16 30.9344C19.8691 30.9344 23.3991 29.4557 26.0547 27.0337C26.0547 27.0337 26.0547 27.0336 26.0547 27.0336L24.8672 25.8462C24.5747 26.1098 24.2703 26.3605 23.9551 26.5975ZM30.9345 16C30.9345 19.8698 29.4552 23.4004 27.0325 26.0561L25.8449 24.8685C27.9616 22.5202 29.25 19.4107 29.25 16C29.25 12.5897 27.9619 9.48044 25.8456 7.13222L27.0331 5.94464C29.4555 8.60028 30.9345 12.1306 30.9345 16ZM26.0557 4.96716C26.0568 4.96814 26.0577 4.96909 26.0588 4.97006L24.8712 6.15753C24.5777 5.89276 24.2722 5.64096 23.9557 5.40298C21.7403 3.73718 18.9855 2.75 16 2.75C12.5899 2.75 9.4809 4.03793 7.13281 6.15384L5.94525 4.9664C8.60077 2.54434 12.1308 1.06558 16 1.06558C19.8695 1.06558 23.4001 2.54459 26.0557 4.96716ZM4.10663 6.97665C2.19901 9.48502 1.06546 12.6125 1.06546 16C1.06546 19.8694 2.54453 23.3997 4.96689 26.0553L6.15442 24.8678C5.89072 24.5752 5.63983 24.2708 5.40274 23.9554C3.73706 21.7401 2.74997 18.9854 2.74997 16C2.74997 12.5892 4.03839 9.4798 6.15506 7.1315L4.9675 5.94394C4.66553 6.27493 4.37823 6.61951 4.10663 6.97665Z" fill="#478BF9"/>
</svg>
