<!-- Generated by IcoMoon.io -->
<svg version="1.1" xmlns="http://www.w3.org/2000/svg" width="1024" height="1024" viewBox="0 0 1024 1024">
<title></title>
<g id="icomoon-ignore">
</g>
<path fill="#478bf9" d="M1024 512c0 282.245-229.755 512-512 512s-512-229.755-512-512c0-282.245 229.755-512 512-512 282.352 0 512 229.755 512 512zM833.859 864.98c-84.99 77.563-197.996 124.922-321.859 124.922-123.828 0-236.802-47.33-321.783-124.851l38.002-38.002c75.143 67.727 174.645 108.951 283.781 108.951 109.174 0 208.706-41.252 283.858-109.021l38.001 38.001zM865.040 833.794c77.528-84.982 124.863-197.962 124.863-321.794 0-123.821-47.327-236.791-124.843-321.771l-38.001 38.002c67.721 75.143 108.941 174.638 108.941 283.769 0 109.143-41.228 208.648-108.962 283.792l38.001 38.001zM833.881 159.042c-84.992-77.577-198.007-124.943-321.881-124.943-123.813 0-236.775 47.32-321.752 124.826l38.002 37.998c75.139-67.709 174.626-108.923 283.75-108.923 109.185 0 208.726 41.26 283.88 109.041l38.001-37.998zM34.095 512c0-123.885 47.377-236.904 124.962-321.9l37.998 38.002c-67.789 75.158-109.056 174.702-109.056 283.898 0 109.181 41.256 208.717 109.033 283.87l-38.002 38.001c-77.57-84.991-124.936-198.001-124.936-321.871z"></path>
</svg>
