<svg width="1232" height="51" viewBox="0 0 1232 51" fill="none" xmlns="http://www.w3.org/2000/svg">
<path d="M586.635 50.741C580.249 50.741 573.868 48.3123 569.006 43.4497C559.286 33.7297 559.286 17.917 569.006 8.19704C573.717 3.48622 579.977 0.895264 586.635 0.895264C593.293 0.895264 599.553 3.48622 604.264 8.19704C613.984 17.917 613.984 33.7297 604.264 43.4497C599.406 48.3071 593.021 50.741 586.635 50.741ZM570.314 42.1411C579.312 51.1388 593.952 51.1388 602.95 42.1411C611.948 33.1435 611.948 18.5033 602.95 9.50561C598.59 5.14548 592.795 2.74821 586.63 2.74821C580.464 2.74821 574.669 5.15071 570.309 9.50561C561.311 18.5033 561.311 33.1435 570.309 42.1411H570.314Z" fill="#9DADF2"/>
<path d="M586.305 35.1481C586.394 35.3627 586.603 35.4883 586.823 35.4883C586.896 35.4883 586.97 35.4726 587.043 35.4464C588.802 34.7084 590.403 33.5673 591.67 32.1436C591.874 31.9133 591.853 31.5574 591.623 31.3533C591.393 31.1491 591.037 31.17 590.832 31.4003C589.676 32.7037 588.215 33.7453 586.608 34.4153C586.326 34.5357 586.19 34.8654 586.31 35.1481H586.305Z" fill="#9DADF2"/>
<path d="M596.134 17.2051L586.838 13.4887C586.702 13.4364 586.555 13.4364 586.419 13.4887L577.123 17.2051C576.909 17.2888 576.772 17.4929 576.772 17.7232V24.3812C576.783 30.5262 580.667 36.0797 586.435 38.1944C586.498 38.2153 586.561 38.2258 586.629 38.2258C586.697 38.2258 586.759 38.2153 586.822 38.1944C592.59 36.0745 596.474 30.5262 596.485 24.3812V17.7232C596.485 17.4929 596.349 17.2888 596.134 17.2051ZM595.365 24.3812C595.354 29.9714 591.847 35.0643 586.634 37.069C581.42 35.0643 577.908 29.9714 577.898 24.3812V18.1053L586.634 14.6141L595.365 18.1053V24.3812Z" fill="#9DADF2"/>
<path d="M582.75 18.0793C582.614 18.0217 582.462 18.0217 582.321 18.0793L580.107 18.9639C579.892 19.0477 579.756 19.2518 579.756 19.4821V21.8428C579.756 22.1516 580.008 22.4028 580.316 22.4028C580.625 22.4028 580.876 22.1516 580.876 21.8428V19.8642L582.735 19.121C582.876 19.0634 582.981 18.9587 583.043 18.8174C583.101 18.6813 583.101 18.5295 583.043 18.3882C582.986 18.2469 582.881 18.1421 582.745 18.0793H582.75Z" fill="#9DADF2"/>
<path d="M600.793 11.6673C597.014 7.88293 591.984 5.80493 586.634 5.80493C581.285 5.80493 576.26 7.88817 572.476 11.6673C564.671 19.4716 564.671 32.1751 572.476 39.9846C576.381 43.8893 581.505 45.8364 586.634 45.8364C591.764 45.8364 596.888 43.8841 600.793 39.9846C608.597 32.1803 608.597 19.4768 600.793 11.6673ZM598.024 24.3813C598.04 31.4841 593.502 37.6972 586.734 39.8485C586.671 39.8694 586.603 39.8694 586.535 39.8485C579.767 37.6972 575.229 31.4841 575.245 24.3813V16.5247C575.245 16.3938 575.323 16.2734 575.449 16.2211L586.514 11.7981C586.551 11.7824 586.593 11.7772 586.634 11.7772C586.676 11.7772 586.718 11.7824 586.755 11.7981L597.82 16.2263C597.946 16.2734 598.024 16.3938 598.024 16.5299V24.3865V24.3813Z" fill="#9DADF2"/>
<path d="M522.973 50.7331C509.233 50.7331 498.058 39.5527 498.058 25.8181C498.058 12.0834 509.238 0.903076 522.973 0.903076C536.708 0.903076 547.888 12.0834 547.888 25.8181C547.888 39.5527 536.708 50.7331 522.973 50.7331ZM522.973 2.56232C510.149 2.56232 499.717 12.9942 499.717 25.8181C499.717 38.642 510.149 49.0738 522.973 49.0738C535.797 49.0738 546.229 38.642 546.229 25.8181C546.229 12.9942 535.797 2.56232 522.973 2.56232Z" fill="#7DDACF"/>
<path d="M539.232 8.0397L531.519 15.7529L533.037 17.2704L540.75 9.5572L539.232 8.0397Z" fill="#7DDACF"/>
<path d="M512.68 34.5907L504.967 42.304L506.484 43.8214L514.197 36.1082L512.68 34.5907Z" fill="#7DDACF"/>
<path d="M533.262 34.5946L531.745 36.1121L539.458 43.8253L540.975 42.3078L533.262 34.5946Z" fill="#7DDACF"/>
<path d="M506.482 7.81114L504.965 9.32861L512.674 17.0382L514.192 15.5207L506.482 7.81114Z" fill="#7DDACF"/>
<path d="M529.05 26.488C529.552 25.9855 529.552 25.1742 529.05 24.6769L527.982 23.6144C527.48 23.1119 526.668 23.1119 526.171 23.6144L525.595 24.1902L524.931 23.5254C524.428 23.0229 523.617 23.0229 523.119 23.5254L522.544 24.1064L521.879 23.4364C521.376 22.9339 520.565 22.9339 520.068 23.4364L516.535 26.9696C516.509 26.9957 516.509 27.0376 516.535 27.069C517.006 27.5401 517.775 27.5401 518.252 27.069L520.528 24.7921C520.775 24.5461 521.172 24.5461 521.418 24.7921L521.586 24.9596C521.617 24.991 521.617 25.0381 521.586 25.0695L519.686 26.9696C519.66 26.9957 519.66 27.0376 519.686 27.069C520.157 27.5401 520.926 27.5401 521.403 27.069L523.585 24.8863C523.831 24.6403 524.229 24.6403 524.475 24.8863L524.643 25.0538C524.669 25.08 524.669 25.1219 524.643 25.1533L522.811 26.9853C522.784 27.0114 522.784 27.0533 522.811 27.0847C523.282 27.5558 524.051 27.5558 524.527 27.0847L526.637 24.9753C526.883 24.7293 527.281 24.7293 527.527 24.9753L527.888 25.3365C528.029 25.4778 528.029 25.7133 527.888 25.8547L527.83 25.9122C527.689 26.0535 527.453 26.0535 527.312 25.9122L526.846 25.4464C526.82 25.4202 526.778 25.4202 526.747 25.4464L525.941 26.2525C525.915 26.2786 525.915 26.3205 525.941 26.3519L526.668 27.0795C527.171 27.582 527.982 27.582 528.479 27.0795L529.055 26.5037L529.05 26.488Z" fill="#7DDACF"/>
<path d="M522.974 6.71289C512.421 6.71289 503.869 15.2656 503.869 25.8179C503.869 36.3701 512.421 44.9229 522.974 44.9229C533.526 44.9229 542.079 36.3701 542.079 25.8179C542.079 15.2656 533.526 6.71289 522.974 6.71289ZM523.754 12.6119C526.821 12.7899 529.605 14.0147 531.762 15.9304L529.004 18.6888C527.564 17.4693 525.748 16.6789 523.754 16.5114V12.6119ZM522.199 12.6119V16.5114C520.205 16.6737 518.388 17.4693 516.949 18.6888L514.191 15.9304C516.347 14.0147 519.132 12.7899 522.199 12.6119ZM513.091 17.0296L515.85 19.7881C514.63 21.2275 513.84 23.0437 513.672 25.038H509.773C509.951 21.9707 511.176 19.1861 513.091 17.0296ZM509.773 26.5926H513.672C513.835 28.5868 514.63 30.4031 515.85 31.8425L513.091 34.601C511.176 32.4445 509.951 29.6598 509.773 26.5926ZM522.199 39.0187C519.132 38.8407 516.347 37.6159 514.191 35.7001L516.949 32.9417C518.388 34.1613 520.205 34.9517 522.199 35.1192V39.0187ZM514.944 25.8126C514.944 21.3792 518.54 17.7833 522.974 17.7833C527.407 17.7833 531.003 21.3792 531.003 25.8126C531.003 30.2461 527.407 33.842 522.974 33.842C518.54 33.842 514.944 30.2461 514.944 25.8126ZM523.754 39.0187V35.1192C525.748 34.9569 527.564 34.1613 529.004 32.9417L531.762 35.7001C529.605 37.6159 526.821 38.8407 523.754 39.0187ZM532.861 34.601L530.103 31.8425C531.322 30.4031 532.113 28.5868 532.28 26.5926H536.18C536.002 29.6598 534.777 32.4445 532.861 34.601ZM532.28 25.038C532.118 23.0437 531.322 21.2275 530.103 19.7881L532.861 17.0296C534.777 19.1861 536.002 21.9707 536.18 25.038H532.28Z" fill="#7DDACF"/>
<path d="M460.887 50.6574C447.147 50.6574 435.972 39.4771 435.972 25.7424C435.972 12.0077 447.152 0.827393 460.887 0.827393C474.621 0.827393 485.802 12.0077 485.802 25.7424C485.802 39.4771 474.621 50.6574 460.887 50.6574ZM460.887 2.48664C448.063 2.48664 437.631 12.9185 437.631 25.7424C437.631 38.5663 448.063 48.9981 460.887 48.9981C473.711 48.9981 484.142 38.5663 484.142 25.7424C484.142 12.9185 473.711 2.48664 460.887 2.48664Z" fill="#9DADF2"/>
<path d="M468.97 10.1862C468.844 10.1862 468.719 10.16 468.604 10.1025C466.191 8.90905 463.594 8.30188 460.888 8.30188C458.182 8.30188 455.586 8.90905 453.173 10.1025C452.854 10.2595 452.472 10.1967 452.22 9.94544L447.939 5.66383C447.756 5.48063 447.672 5.22938 447.703 4.97291C447.735 4.71643 447.881 4.49136 448.101 4.36051C451.959 2.04697 456.382 0.827393 460.894 0.827393C465.405 0.827393 469.828 2.05221 473.686 4.36051C473.906 4.49136 474.052 4.71643 474.084 4.97291C474.115 5.22938 474.026 5.48063 473.848 5.66383L469.567 9.94544C469.404 10.1025 469.195 10.1862 468.975 10.1862H468.97ZM460.888 6.64263C463.647 6.64263 466.306 7.21841 468.797 8.35424L471.896 5.25554C468.525 3.43926 464.741 2.48664 460.888 2.48664C457.036 2.48664 453.252 3.43926 449.881 5.25554L452.979 8.35424C455.471 7.21841 458.13 6.64263 460.888 6.64263Z" fill="#9DADF2"/>
<path d="M460.887 50.6573C456.376 50.6573 451.953 49.4325 448.095 47.1242C447.875 46.9933 447.729 46.7683 447.697 46.5118C447.666 46.2553 447.755 46.0041 447.933 45.8209L452.214 41.5393C452.466 41.288 452.853 41.2252 453.167 41.3822C455.58 42.5757 458.176 43.1828 460.882 43.1828C463.588 43.1828 466.185 42.5757 468.598 41.3822C468.917 41.2252 469.299 41.288 469.55 41.5393L473.832 45.8209C474.015 46.0041 474.099 46.2553 474.067 46.5118C474.036 46.7683 473.889 46.9933 473.669 47.1242C469.812 49.4377 465.389 50.6573 460.877 50.6573H460.887ZM449.88 46.2292C453.251 48.0454 457.035 48.9981 460.887 48.9981C464.74 48.9981 468.524 48.0454 471.895 46.2292L468.796 43.1305C466.305 44.2663 463.646 44.8421 460.887 44.8421C458.129 44.8421 455.47 44.2663 452.979 43.1305L449.88 46.2292Z" fill="#9DADF2"/>
<path d="M481.558 38.938C481.338 38.938 481.129 38.8542 480.972 38.6972L476.69 34.4156C476.439 34.1643 476.376 33.777 476.533 33.463C477.726 31.05 478.333 28.4538 478.333 25.7477C478.333 23.0416 477.726 20.4454 476.533 18.0324C476.376 17.7131 476.439 17.3258 476.69 17.0798L480.972 12.7982C481.155 12.615 481.406 12.5312 481.662 12.5626C481.919 12.594 482.144 12.7406 482.275 12.9604C484.588 16.8181 485.808 21.241 485.808 25.7529C485.808 30.2648 484.588 34.6878 482.275 38.5454C482.144 38.7653 481.919 38.9118 481.662 38.9432C481.626 38.9432 481.594 38.9432 481.558 38.9432V38.938ZM478.276 33.6514L481.375 36.7501C483.191 33.3792 484.143 29.5948 484.143 25.7424C484.143 21.89 483.191 18.1057 481.375 14.7348L478.276 17.8335C479.412 20.325 479.987 22.984 479.987 25.7424C479.987 28.5009 479.412 31.1599 478.276 33.6514Z" fill="#9DADF2"/>
<path d="M440.217 38.938C440.18 38.938 440.149 38.938 440.117 38.9327C439.861 38.9013 439.636 38.7548 439.505 38.5349C437.191 34.6773 435.972 30.2543 435.972 25.7424C435.972 21.2305 437.191 16.8076 439.505 12.9499C439.636 12.7301 439.861 12.5835 440.117 12.5521C440.374 12.5207 440.625 12.6097 440.808 12.7877L445.09 17.0693C445.341 17.3205 445.404 17.7079 445.247 18.0219C444.053 20.4349 443.446 23.0311 443.446 25.7372C443.446 28.4433 444.053 31.0395 445.247 33.4525C445.404 33.7717 445.341 34.1591 445.09 34.4051L440.808 38.6867C440.651 38.8437 440.442 38.9327 440.222 38.9327L440.217 38.938ZM440.4 14.7348C438.584 18.1057 437.631 21.89 437.631 25.7424C437.631 29.5948 438.584 33.3792 440.4 36.7501L443.499 33.6514C442.363 31.1599 441.787 28.5009 441.787 25.7424C441.787 22.984 442.363 20.325 443.499 17.8335L440.4 14.7348Z" fill="#9DADF2"/>
<path d="M460.887 6.63745C450.356 6.63745 441.782 15.2059 441.782 25.7424C441.782 36.279 450.351 44.8474 460.887 44.8474C471.424 44.8474 479.992 36.279 479.992 25.7424C479.992 15.2059 471.424 6.63745 460.887 6.63745ZM471.638 19.4666C472.544 21.0159 473.094 22.7066 473.271 24.5019C473.277 24.5752 473.245 24.6433 473.182 24.6799C471.816 25.5174 470.592 26.5433 469.534 27.7419C469.487 27.7995 469.409 27.8204 469.341 27.7943L466.98 27.0248C466.912 27.0039 466.865 26.9463 466.854 26.8731C466.587 24.9207 465.98 23.052 465.048 21.3143C465.017 21.2515 465.022 21.1782 465.064 21.1206L466.525 19.1107C466.561 19.0636 466.619 19.0321 466.676 19.0321C466.692 19.0321 466.702 19.0321 466.718 19.0321C468.278 19.3776 469.88 19.4928 471.471 19.3619C471.544 19.3567 471.612 19.3933 471.649 19.4561L471.638 19.4666ZM465.567 27.2028C465.572 27.2551 465.556 27.3075 465.525 27.3441C464.284 28.7731 462.704 29.9194 460.961 30.6522C460.913 30.6731 460.866 30.6731 460.819 30.6522C459.076 29.9141 457.495 28.7678 456.255 27.3441C456.224 27.3075 456.208 27.2551 456.213 27.2028C456.454 25.308 457.045 23.497 457.961 21.822C457.987 21.7749 458.029 21.7435 458.082 21.733C459.003 21.5394 459.945 21.4399 460.892 21.4399C461.84 21.4399 462.782 21.5394 463.703 21.733C463.756 21.7435 463.797 21.7749 463.824 21.822C464.74 23.497 465.326 25.308 465.572 27.2028H465.567ZM465.284 14.2114C465.284 14.2114 465.347 14.1591 465.41 14.1591C465.431 14.1591 465.457 14.1591 465.483 14.1748C467.409 14.939 469.131 16.1952 470.471 17.8021C470.539 17.8806 470.513 17.9644 470.497 17.9958C470.487 18.0219 470.44 18.1057 470.33 18.1057C469.142 18.1214 467.959 17.9853 466.812 17.7131C466.765 17.7027 466.723 17.6712 466.697 17.6294C466.085 16.6192 465.593 15.5304 465.237 14.3998C465.205 14.3004 465.263 14.2324 465.289 14.2114H465.284ZM458.244 13.5833C459.976 13.2117 461.803 13.2117 463.536 13.5833C463.604 13.599 463.661 13.6514 463.677 13.7194C464.049 15.274 464.651 16.7605 465.462 18.1371C465.499 18.1999 465.493 18.2784 465.452 18.3412L464.002 20.3407C463.96 20.3983 463.886 20.4297 463.818 20.414C461.903 20.0267 459.877 20.0267 457.961 20.414C457.893 20.4297 457.82 20.3983 457.778 20.3407L456.328 18.3412C456.286 18.2836 456.281 18.1999 456.318 18.1371C457.129 16.7605 457.731 15.274 458.103 13.7194C458.118 13.6514 458.176 13.599 458.244 13.5833ZM451.309 17.8021C452.649 16.19 454.371 14.9337 456.297 14.1748C456.323 14.1643 456.349 14.1591 456.37 14.1591C456.438 14.1591 456.48 14.1957 456.496 14.2114C456.522 14.2376 456.579 14.3004 456.548 14.3998C456.192 15.5357 455.7 16.6192 455.088 17.6294C455.061 17.6712 455.02 17.7027 454.973 17.7131C453.826 17.9853 452.643 18.1214 451.455 18.1057C451.345 18.1057 451.298 18.0219 451.288 17.9958C451.272 17.9644 451.246 17.8806 451.314 17.8021H451.309ZM450.141 19.4666C450.173 19.409 450.236 19.3724 450.304 19.3724C450.304 19.3724 450.314 19.3724 450.319 19.3724C451.916 19.498 453.517 19.3881 455.072 19.0426C455.145 19.0269 455.219 19.0531 455.26 19.1159L456.721 21.1258C456.763 21.1834 456.768 21.2619 456.736 21.3195C455.805 23.0573 455.198 24.9259 454.931 26.8783C454.92 26.9463 454.873 27.0039 454.805 27.0301L452.444 27.7995C452.376 27.8204 452.298 27.7995 452.251 27.7472C451.193 26.5485 449.969 25.5226 448.602 24.6851C448.545 24.6485 448.508 24.5805 448.513 24.5072C448.691 22.7118 449.241 21.0159 450.147 19.4718L450.141 19.4666ZM450.712 32.3638C450.68 32.4632 450.591 32.4842 450.555 32.4894C450.518 32.4894 450.434 32.4894 450.377 32.4056C449.262 30.6522 448.602 28.6213 448.472 26.5381C448.466 26.4334 448.534 26.381 448.566 26.3653C448.597 26.3496 448.681 26.313 448.765 26.3758C449.733 27.0615 450.612 27.8676 451.382 28.7626C451.413 28.7993 451.429 28.8464 451.424 28.8987C451.329 30.0764 451.089 31.2437 450.707 32.369L450.712 32.3638ZM455.883 37.1427C454.25 36.4256 452.811 35.3735 451.607 34.023C451.56 33.9707 451.544 33.8922 451.57 33.8294C452.183 32.3533 452.57 30.7987 452.722 29.2075C452.727 29.1342 452.779 29.0714 452.847 29.0505L455.182 28.2915C455.182 28.2915 455.219 28.281 455.239 28.281C455.292 28.281 455.339 28.302 455.376 28.3439C456.684 29.8095 458.322 31.0029 460.118 31.7932C460.186 31.8246 460.228 31.8875 460.228 31.9607V34.4156C460.228 34.4889 460.186 34.5569 460.118 34.5831C458.652 35.2164 457.291 36.0696 456.072 37.1112C456.019 37.1584 455.941 37.1688 455.878 37.1374L455.883 37.1427ZM464.117 37.6608C464.112 37.6975 464.085 37.7812 463.981 37.8074C461.96 38.3203 459.825 38.3203 457.804 37.8074C457.705 37.7812 457.673 37.6975 457.668 37.6608C457.663 37.6242 457.652 37.5405 457.741 37.4724C458.694 36.7658 459.73 36.1743 460.824 35.7189C460.872 35.698 460.919 35.698 460.966 35.7189C462.054 36.1743 463.091 36.7658 464.049 37.4724C464.132 37.5352 464.127 37.6242 464.122 37.6608H464.117ZM470.183 34.0283C468.979 35.3787 467.54 36.4256 465.907 37.1427C465.839 37.1741 465.766 37.1583 465.713 37.1165C464.494 36.0748 463.138 35.2217 461.667 34.5883C461.599 34.5569 461.557 34.4941 461.557 34.4208V31.966C461.557 31.8927 461.599 31.8246 461.667 31.7985C463.462 31.0081 465.106 29.8147 466.409 28.3491C466.446 28.3072 466.493 28.2863 466.545 28.2863C466.566 28.2863 466.582 28.2863 466.603 28.2968L468.937 29.0557C469.006 29.0767 469.058 29.1395 469.063 29.2128C469.215 30.804 469.602 32.3533 470.215 33.8346C470.241 33.8974 470.23 33.9759 470.178 34.0283H470.183ZM471.408 32.4109C471.35 32.4999 471.262 32.4999 471.23 32.4946C471.193 32.4946 471.11 32.4685 471.073 32.369C470.696 31.2437 470.455 30.0764 470.356 28.8987C470.356 28.8516 470.366 28.7993 470.398 28.7626C471.167 27.8676 472.047 27.0667 473.015 26.3758C473.052 26.3496 473.088 26.3392 473.12 26.3392C473.162 26.3392 473.193 26.3549 473.214 26.3653C473.245 26.381 473.319 26.4334 473.308 26.5381C473.177 28.6213 472.518 30.6522 471.403 32.4056L471.408 32.4109Z" fill="#9DADF2"/>
<path d="M399.377 0.986921C413.117 0.986921 424.297 12.1673 424.297 25.9072C424.297 39.6471 413.117 50.8274 399.377 50.8274C385.637 50.8274 374.457 39.6471 374.457 25.9072C374.457 12.1673 385.637 0.986921 399.377 0.986921ZM399.377 49.0321C412.127 49.0321 422.502 38.6578 422.502 25.9072C422.502 13.1565 412.127 2.78226 399.377 2.78226C386.626 2.78226 376.252 13.1565 376.252 25.9072C376.252 38.6578 386.626 49.0321 399.377 49.0321Z" fill="#478BF9"/>
<path d="M338.461 0.985681C338.958 0.985681 339.356 1.3887 339.356 1.88072C339.356 2.37274 338.953 2.77578 338.461 2.77578C325.71 2.77578 315.336 13.1501 315.336 25.9007C315.336 38.6513 325.71 49.0256 338.461 49.0256C338.958 49.0256 339.356 49.4286 339.356 49.9206C339.356 50.4127 338.953 50.8157 338.461 50.8157C324.721 50.8157 313.541 39.6353 313.541 25.8954C313.541 12.1555 324.721 0.975202 338.461 0.975202V0.985681Z" fill="#478BF9"/>
<path d="M394.583 21.4994C394.583 22.4154 395.205 23.211 396.095 23.4308L397.786 23.8548V19.5051H396.582C395.483 19.5051 394.588 20.4002 394.588 21.4994H394.583Z" fill="#478BF9"/>
<path d="M400.978 32.2977H402.182C403.281 32.2977 404.176 31.4026 404.176 30.3034C404.176 29.3874 403.553 28.5918 402.663 28.372L400.973 27.948V32.2977H400.978Z" fill="#478BF9"/>
<path d="M399.382 5.62402C388.201 5.62402 379.099 14.7211 379.099 25.9067C379.099 37.0923 388.196 46.1894 399.382 46.1894C410.567 46.1894 419.665 37.0923 419.665 25.9067C419.665 14.7211 410.567 5.62402 399.382 5.62402ZM407.38 22.7034H404.182V21.1017C404.182 20.2223 403.465 19.5 402.58 19.5H400.978V24.6505L403.444 25.2682C405.757 25.8492 407.375 27.9167 407.375 30.3035C407.375 33.1666 405.045 35.4959 402.182 35.4959H400.978V39.5472H397.78V35.4959H396.178C393.53 35.4959 391.379 33.3446 391.379 30.6961V29.0944H394.577V30.6961C394.577 31.5754 395.294 32.2978 396.178 32.2978H397.78V27.1472L395.315 26.5296C393.001 25.9486 391.384 23.8811 391.384 21.4943C391.384 18.6311 393.713 16.3019 396.576 16.3019H397.78V12.2506H400.978V16.3019H402.58C405.228 16.3019 407.38 18.4532 407.38 21.1017V22.7034Z" fill="#478BF9"/>
<path d="M338.079 0.955746L398.22 0.955746C398.717 0.955746 399.115 1.35876 399.115 1.85078C399.115 2.3428 398.712 2.74585 398.22 2.74585L338.079 2.74585C337.581 2.74585 337.184 2.3428 337.184 1.85078C337.184 1.35876 337.587 0.955746 338.079 0.955746Z" fill="#478BF9"/>
<path d="M337.948 48.998L398.089 48.998C398.587 48.998 398.984 49.401 398.984 49.8931C398.984 50.3851 398.581 50.7881 398.089 50.7881L337.948 50.7881C337.451 50.7881 337.053 50.3851 337.053 49.8931C337.053 49.401 337.456 48.998 337.948 48.998Z" fill="#478BF9"/>
<path d="M896.305 50.741C889.919 50.741 883.538 48.3123 878.676 43.4497C868.956 33.7297 868.956 17.917 878.676 8.19704C883.387 3.48622 889.647 0.895264 896.305 0.895264C902.963 0.895264 909.223 3.48622 913.934 8.19704C923.654 17.917 923.654 33.7297 913.934 43.4497C909.076 48.3071 902.69 50.741 896.305 50.741ZM879.984 42.1411C888.982 51.1388 903.622 51.1388 912.62 42.1411C921.618 33.1435 921.618 18.5033 912.62 9.50561C908.26 5.14548 902.465 2.74821 896.299 2.74821C890.134 2.74821 884.339 5.15071 879.979 9.50561C870.981 18.5033 870.981 33.1435 879.979 42.1411H879.984Z" fill="#9DADF2"/>
<path d="M895.975 35.1481C896.064 35.3627 896.274 35.4883 896.493 35.4883C896.567 35.4883 896.64 35.4726 896.713 35.4464C898.472 34.7084 900.074 33.5673 901.34 32.1436C901.544 31.9133 901.524 31.5574 901.293 31.3533C901.063 31.1491 900.707 31.17 900.503 31.4003C899.346 32.7037 897.886 33.7453 896.279 34.4153C895.996 34.5357 895.86 34.8654 895.98 35.1481H895.975Z" fill="#9DADF2"/>
<path d="M905.804 17.2051L896.508 13.4887C896.372 13.4364 896.225 13.4364 896.089 13.4887L886.793 17.2051C886.578 17.2888 886.442 17.4929 886.442 17.7232V24.3812C886.453 30.5262 890.337 36.0797 896.105 38.1944C896.168 38.2153 896.23 38.2258 896.298 38.2258C896.367 38.2258 896.429 38.2153 896.492 38.1944C902.26 36.0745 906.144 30.5262 906.155 24.3812V17.7232C906.155 17.4929 906.018 17.2888 905.804 17.2051ZM905.034 24.3812C905.024 29.9714 901.517 35.0643 896.304 37.069C891.09 35.0643 887.578 29.9714 887.568 24.3812V18.1053L896.304 14.6141L905.034 18.1053V24.3812Z" fill="#9DADF2"/>
<path d="M892.42 18.0793C892.284 18.0217 892.132 18.0217 891.991 18.0793L889.777 18.9639C889.562 19.0477 889.426 19.2518 889.426 19.4821V21.8428C889.426 22.1516 889.678 22.4028 889.986 22.4028C890.295 22.4028 890.546 22.1516 890.546 21.8428V19.8642L892.405 19.121C892.546 19.0634 892.651 18.9587 892.713 18.8174C892.771 18.6813 892.771 18.5295 892.713 18.3882C892.656 18.2469 892.551 18.1421 892.415 18.0793H892.42Z" fill="#9DADF2"/>
<path d="M910.463 11.6673C906.684 7.88293 901.654 5.80493 896.304 5.80493C890.955 5.80493 885.93 7.88817 882.146 11.6673C874.341 19.4716 874.341 32.1751 882.146 39.9846C886.05 43.8893 891.175 45.8364 896.304 45.8364C901.434 45.8364 906.558 43.8841 910.463 39.9846C918.267 32.1803 918.267 19.4768 910.463 11.6673ZM907.694 24.3813C907.71 31.4841 903.172 37.6972 896.404 39.8485C896.341 39.8694 896.273 39.8694 896.205 39.8485C889.437 37.6972 884.899 31.4841 884.915 24.3813V16.5247C884.915 16.3938 884.993 16.2734 885.119 16.2211L896.184 11.7981C896.221 11.7824 896.262 11.7772 896.304 11.7772C896.346 11.7772 896.388 11.7824 896.425 11.7981L907.49 16.2263C907.616 16.2734 907.694 16.3938 907.694 16.5299V24.3865V24.3813Z" fill="#9DADF2"/>
<path d="M832.643 50.7331C818.903 50.7331 807.728 39.5527 807.728 25.8181C807.728 12.0834 818.908 0.903076 832.643 0.903076C846.378 0.903076 857.558 12.0834 857.558 25.8181C857.558 39.5527 846.378 50.7331 832.643 50.7331ZM832.643 2.56232C819.819 2.56232 809.387 12.9942 809.387 25.8181C809.387 38.642 819.819 49.0738 832.643 49.0738C845.467 49.0738 855.899 38.642 855.899 25.8181C855.899 12.9942 845.467 2.56232 832.643 2.56232Z" fill="#7DDACF"/>
<path d="M848.902 8.0397L841.189 15.7529L842.706 17.2704L850.42 9.5572L848.902 8.0397Z" fill="#7DDACF"/>
<path d="M822.35 34.5907L814.637 42.304L816.154 43.8214L823.867 36.1082L822.35 34.5907Z" fill="#7DDACF"/>
<path d="M842.933 34.5946L841.415 36.1121L849.128 43.8253L850.646 42.3078L842.933 34.5946Z" fill="#7DDACF"/>
<path d="M816.152 7.81114L814.635 9.32861L822.344 17.0382L823.862 15.5207L816.152 7.81114Z" fill="#7DDACF"/>
<path d="M838.72 26.488C839.222 25.9855 839.222 25.1742 838.72 24.6769L837.652 23.6144C837.149 23.1119 836.338 23.1119 835.841 23.6144L835.265 24.1902L834.6 23.5254C834.098 23.0229 833.287 23.0229 832.789 23.5254L832.214 24.1064L831.549 23.4364C831.046 22.9339 830.235 22.9339 829.738 23.4364L826.205 26.9696C826.179 26.9957 826.179 27.0376 826.205 27.069C826.676 27.5401 827.445 27.5401 827.922 27.069L830.198 24.7921C830.444 24.5461 830.842 24.5461 831.088 24.7921L831.256 24.9596C831.287 24.991 831.287 25.0381 831.256 25.0695L829.356 26.9696C829.33 26.9957 829.33 27.0376 829.356 27.069C829.827 27.5401 830.596 27.5401 831.073 27.069L833.255 24.8863C833.501 24.6403 833.899 24.6403 834.145 24.8863L834.313 25.0538C834.339 25.08 834.339 25.1219 834.313 25.1533L832.481 26.9853C832.454 27.0114 832.454 27.0533 832.481 27.0847C832.952 27.5558 833.721 27.5558 834.197 27.0847L836.307 24.9753C836.553 24.7293 836.951 24.7293 837.197 24.9753L837.558 25.3365C837.699 25.4778 837.699 25.7133 837.558 25.8547L837.5 25.9122C837.359 26.0535 837.123 26.0535 836.982 25.9122L836.516 25.4464C836.49 25.4202 836.448 25.4202 836.417 25.4464L835.611 26.2525C835.584 26.2786 835.584 26.3205 835.611 26.3519L836.338 27.0795C836.841 27.582 837.652 27.582 838.149 27.0795L838.725 26.5037L838.72 26.488Z" fill="#7DDACF"/>
<path d="M832.644 6.71289C822.091 6.71289 813.539 15.2656 813.539 25.8179C813.539 36.3701 822.091 44.9229 832.644 44.9229C843.196 44.9229 851.749 36.3701 851.749 25.8179C851.749 15.2656 843.196 6.71289 832.644 6.71289ZM833.424 12.6119C836.491 12.7899 839.275 14.0147 841.432 15.9304L838.673 18.6888C837.234 17.4693 835.418 16.6789 833.424 16.5114V12.6119ZM831.869 12.6119V16.5114C829.875 16.6737 828.058 17.4693 826.619 18.6888L823.861 15.9304C826.017 14.0147 828.802 12.7899 831.869 12.6119ZM822.761 17.0296L825.52 19.7881C824.3 21.2275 823.51 23.0437 823.342 25.038H819.443C819.621 21.9707 820.846 19.1861 822.761 17.0296ZM819.443 26.5926H823.342C823.505 28.5868 824.3 30.4031 825.52 31.8425L822.761 34.601C820.846 32.4445 819.621 29.6598 819.443 26.5926ZM831.869 39.0187C828.802 38.8407 826.017 37.6159 823.861 35.7001L826.619 32.9417C828.058 34.1613 829.875 34.9517 831.869 35.1192V39.0187ZM824.614 25.8126C824.614 21.3792 828.21 17.7833 832.644 17.7833C837.077 17.7833 840.673 21.3792 840.673 25.8126C840.673 30.2461 837.077 33.842 832.644 33.842C828.21 33.842 824.614 30.2461 824.614 25.8126ZM833.424 39.0187V35.1192C835.418 34.9569 837.234 34.1613 838.673 32.9417L841.432 35.7001C839.275 37.6159 836.491 38.8407 833.424 39.0187ZM842.531 34.601L839.773 31.8425C840.992 30.4031 841.783 28.5868 841.95 26.5926H845.85C845.672 29.6598 844.447 32.4445 842.531 34.601ZM841.95 25.038C841.788 23.0437 840.992 21.2275 839.773 19.7881L842.531 17.0296C844.447 19.1861 845.672 21.9707 845.85 25.038H841.95Z" fill="#7DDACF"/>
<path d="M770.557 50.6574C756.817 50.6574 745.642 39.4771 745.642 25.7424C745.642 12.0077 756.822 0.827393 770.557 0.827393C784.291 0.827393 795.472 12.0077 795.472 25.7424C795.472 39.4771 784.291 50.6574 770.557 50.6574ZM770.557 2.48664C757.733 2.48664 747.301 12.9185 747.301 25.7424C747.301 38.5663 757.733 48.9981 770.557 48.9981C783.381 48.9981 793.812 38.5663 793.812 25.7424C793.812 12.9185 783.381 2.48664 770.557 2.48664Z" fill="#9DADF2"/>
<path d="M778.64 10.1862C778.514 10.1862 778.389 10.16 778.274 10.1025C775.861 8.90905 773.264 8.30188 770.558 8.30188C767.852 8.30188 765.256 8.90905 762.843 10.1025C762.524 10.2595 762.142 10.1967 761.89 9.94544L757.609 5.66383C757.426 5.48063 757.342 5.22938 757.373 4.97291C757.405 4.71643 757.551 4.49136 757.771 4.36051C761.629 2.04697 766.052 0.827393 770.563 0.827393C775.075 0.827393 779.498 2.05221 783.356 4.36051C783.576 4.49136 783.722 4.71643 783.754 4.97291C783.785 5.22938 783.696 5.48063 783.518 5.66383L779.237 9.94544C779.074 10.1025 778.865 10.1862 778.645 10.1862H778.64ZM770.558 6.64263C773.317 6.64263 775.976 7.21841 778.467 8.35424L781.566 5.25554C778.195 3.43926 774.411 2.48664 770.558 2.48664C766.706 2.48664 762.921 3.43926 759.551 5.25554L762.649 8.35424C765.141 7.21841 767.8 6.64263 770.558 6.64263Z" fill="#9DADF2"/>
<path d="M770.557 50.6573C766.045 50.6573 761.623 49.4325 757.765 47.1242C757.545 46.9933 757.398 46.7683 757.367 46.5118C757.336 46.2553 757.425 46.0041 757.603 45.8209L761.884 41.5393C762.135 41.288 762.523 41.2252 762.837 41.3822C765.25 42.5757 767.846 43.1828 770.552 43.1828C773.258 43.1828 775.854 42.5757 778.267 41.3822C778.587 41.2252 778.969 41.288 779.22 41.5393L783.502 45.8209C783.685 46.0041 783.769 46.2553 783.737 46.5118C783.706 46.7683 783.559 46.9933 783.339 47.1242C779.482 49.4377 775.059 50.6573 770.547 50.6573H770.557ZM759.55 46.2292C762.921 48.0454 766.705 48.9981 770.557 48.9981C774.41 48.9981 778.194 48.0454 781.565 46.2292L778.466 43.1305C775.975 44.2663 773.316 44.8421 770.557 44.8421C767.799 44.8421 765.14 44.2663 762.648 43.1305L759.55 46.2292Z" fill="#9DADF2"/>
<path d="M791.228 38.938C791.008 38.938 790.798 38.8542 790.641 38.6972L786.36 34.4156C786.109 34.1643 786.046 33.777 786.203 33.463C787.396 31.05 788.003 28.4538 788.003 25.7477C788.003 23.0416 787.396 20.4454 786.203 18.0324C786.046 17.7131 786.109 17.3258 786.36 17.0798L790.641 12.7982C790.825 12.615 791.076 12.5312 791.332 12.5626C791.589 12.594 791.814 12.7406 791.945 12.9604C794.258 16.8181 795.478 21.241 795.478 25.7529C795.478 30.2648 794.258 34.6878 791.945 38.5454C791.814 38.7653 791.589 38.9118 791.332 38.9432C791.296 38.9432 791.264 38.9432 791.228 38.9432V38.938ZM787.946 33.6514L791.044 36.7501C792.861 33.3792 793.813 29.5948 793.813 25.7424C793.813 21.89 792.861 18.1057 791.044 14.7348L787.946 17.8335C789.082 20.325 789.657 22.984 789.657 25.7424C789.657 28.5009 789.082 31.1599 787.946 33.6514Z" fill="#9DADF2"/>
<path d="M749.887 38.938C749.85 38.938 749.819 38.938 749.787 38.9327C749.531 38.9013 749.306 38.7548 749.175 38.5349C746.861 34.6773 745.642 30.2543 745.642 25.7424C745.642 21.2305 746.861 16.8076 749.175 12.9499C749.306 12.7301 749.531 12.5835 749.787 12.5521C750.044 12.5207 750.295 12.6097 750.478 12.7877L754.76 17.0693C755.011 17.3205 755.074 17.7079 754.917 18.0219C753.723 20.4349 753.116 23.0311 753.116 25.7372C753.116 28.4433 753.723 31.0395 754.917 33.4525C755.074 33.7717 755.011 34.1591 754.76 34.4051L750.478 38.6867C750.321 38.8437 750.112 38.9327 749.892 38.9327L749.887 38.938ZM750.07 14.7348C748.253 18.1057 747.301 21.89 747.301 25.7424C747.301 29.5948 748.253 33.3792 750.07 36.7501L753.168 33.6514C752.033 31.1599 751.457 28.5009 751.457 25.7424C751.457 22.984 752.033 20.325 753.168 17.8335L750.07 14.7348Z" fill="#9DADF2"/>
<path d="M770.557 6.63745C760.026 6.63745 751.452 15.2059 751.452 25.7424C751.452 36.279 760.021 44.8474 770.557 44.8474C781.094 44.8474 789.662 36.279 789.662 25.7424C789.662 15.2059 781.094 6.63745 770.557 6.63745ZM781.308 19.4666C782.214 21.0159 782.763 22.7066 782.941 24.5019C782.947 24.5752 782.915 24.6433 782.852 24.6799C781.486 25.5174 780.261 26.5433 779.204 27.7419C779.157 27.7995 779.079 27.8204 779.01 27.7943L776.65 27.0248C776.582 27.0039 776.535 26.9463 776.524 26.8731C776.257 24.9207 775.65 23.052 774.718 21.3143C774.687 21.2515 774.692 21.1782 774.734 21.1206L776.194 19.1107C776.231 19.0636 776.289 19.0321 776.346 19.0321C776.362 19.0321 776.372 19.0321 776.388 19.0321C777.948 19.3776 779.55 19.4928 781.141 19.3619C781.214 19.3567 781.282 19.3933 781.319 19.4561L781.308 19.4666ZM775.237 27.2028C775.242 27.2551 775.226 27.3075 775.195 27.3441C773.954 28.7731 772.373 29.9194 770.63 30.6522C770.583 30.6731 770.536 30.6731 770.489 30.6522C768.746 29.9141 767.165 28.7678 765.925 27.3441C765.893 27.3075 765.878 27.2551 765.883 27.2028C766.124 25.308 766.715 23.497 767.631 21.822C767.657 21.7749 767.699 21.7435 767.752 21.733C768.673 21.5394 769.615 21.4399 770.562 21.4399C771.51 21.4399 772.452 21.5394 773.373 21.733C773.426 21.7435 773.467 21.7749 773.494 21.822C774.41 23.497 774.996 25.308 775.242 27.2028H775.237ZM774.954 14.2114C774.954 14.2114 775.017 14.1591 775.08 14.1591C775.1 14.1591 775.127 14.1591 775.153 14.1748C777.079 14.939 778.801 16.1952 780.141 17.8021C780.209 17.8806 780.183 17.9644 780.167 17.9958C780.157 18.0219 780.11 18.1057 780 18.1057C778.812 18.1214 777.629 17.9853 776.482 17.7131C776.435 17.7027 776.393 17.6712 776.367 17.6294C775.755 16.6192 775.263 15.5304 774.907 14.3998C774.875 14.3004 774.933 14.2324 774.959 14.2114H774.954ZM767.914 13.5833C769.646 13.2117 771.473 13.2117 773.206 13.5833C773.274 13.599 773.331 13.6514 773.347 13.7194C773.719 15.274 774.321 16.7605 775.132 18.1371C775.169 18.1999 775.163 18.2784 775.121 18.3412L773.672 20.3407C773.63 20.3983 773.556 20.4297 773.488 20.414C771.573 20.0267 769.547 20.0267 767.631 20.414C767.563 20.4297 767.49 20.3983 767.448 20.3407L765.998 18.3412C765.956 18.2836 765.951 18.1999 765.988 18.1371C766.799 16.7605 767.401 15.274 767.773 13.7194C767.788 13.6514 767.846 13.599 767.914 13.5833ZM760.978 17.8021C762.318 16.19 764.041 14.9337 765.967 14.1748C765.993 14.1643 766.019 14.1591 766.04 14.1591C766.108 14.1591 766.15 14.1957 766.166 14.2114C766.192 14.2376 766.249 14.3004 766.218 14.3998C765.862 15.5357 765.37 16.6192 764.758 17.6294C764.731 17.6712 764.69 17.7027 764.642 17.7131C763.496 17.9853 762.313 18.1214 761.125 18.1057C761.015 18.1057 760.968 18.0219 760.958 17.9958C760.942 17.9644 760.916 17.8806 760.984 17.8021H760.978ZM759.811 19.4666C759.843 19.409 759.905 19.3724 759.974 19.3724C759.974 19.3724 759.984 19.3724 759.989 19.3724C761.586 19.498 763.187 19.3881 764.742 19.0426C764.815 19.0269 764.888 19.0531 764.93 19.1159L766.391 21.1258C766.433 21.1834 766.438 21.2619 766.406 21.3195C765.475 23.0573 764.868 24.9259 764.601 26.8783C764.59 26.9463 764.543 27.0039 764.475 27.0301L762.114 27.7995C762.046 27.8204 761.968 27.7995 761.921 27.7472C760.863 26.5485 759.639 25.5226 758.272 24.6851C758.215 24.6485 758.178 24.5805 758.183 24.5072C758.361 22.7118 758.911 21.0159 759.816 19.4718L759.811 19.4666ZM760.382 32.3638C760.35 32.4632 760.261 32.4842 760.225 32.4894C760.188 32.4894 760.104 32.4894 760.047 32.4056C758.932 30.6522 758.272 28.6213 758.142 26.5381C758.136 26.4334 758.204 26.381 758.236 26.3653C758.267 26.3496 758.351 26.313 758.435 26.3758C759.403 27.0615 760.282 27.8676 761.052 28.7626C761.083 28.7993 761.099 28.8464 761.094 28.8987C760.999 30.0764 760.759 31.2437 760.377 32.369L760.382 32.3638ZM765.553 37.1427C763.92 36.4256 762.481 35.3735 761.277 34.023C761.23 33.9707 761.214 33.8922 761.24 33.8294C761.853 32.3533 762.24 30.7987 762.392 29.2075C762.397 29.1342 762.449 29.0714 762.517 29.0505L764.852 28.2915C764.852 28.2915 764.888 28.281 764.909 28.281C764.962 28.281 765.009 28.302 765.046 28.3439C766.354 29.8095 767.992 31.0029 769.788 31.7932C769.856 31.8246 769.898 31.8875 769.898 31.9607V34.4156C769.898 34.4889 769.856 34.5569 769.788 34.5831C768.322 35.2164 766.961 36.0696 765.742 37.1112C765.689 37.1584 765.611 37.1688 765.548 37.1374L765.553 37.1427ZM773.787 37.6608C773.781 37.6975 773.755 37.7812 773.651 37.8074C771.63 38.3203 769.495 38.3203 767.474 37.8074C767.375 37.7812 767.343 37.6975 767.338 37.6608C767.333 37.6242 767.322 37.5405 767.411 37.4724C768.364 36.7658 769.4 36.1743 770.494 35.7189C770.541 35.698 770.589 35.698 770.636 35.7189C771.724 36.1743 772.761 36.7658 773.719 37.4724C773.802 37.5352 773.797 37.6242 773.792 37.6608H773.787ZM779.853 34.0283C778.649 35.3787 777.21 36.4256 775.577 37.1427C775.509 37.1741 775.435 37.1583 775.383 37.1165C774.164 36.0748 772.808 35.2217 771.337 34.5883C771.269 34.5569 771.227 34.4941 771.227 34.4208V31.966C771.227 31.8927 771.269 31.8246 771.337 31.7985C773.132 31.0081 774.776 29.8147 776.079 28.3491C776.116 28.3072 776.163 28.2863 776.215 28.2863C776.236 28.2863 776.252 28.2863 776.273 28.2968L778.607 29.0557C778.675 29.0767 778.728 29.1395 778.733 29.2128C778.885 30.804 779.272 32.3533 779.885 33.8346C779.911 33.8974 779.9 33.9759 779.848 34.0283H779.853ZM781.078 32.4109C781.02 32.4999 780.931 32.4999 780.9 32.4946C780.863 32.4946 780.78 32.4685 780.743 32.369C780.366 31.2437 780.125 30.0764 780.026 28.8987C780.026 28.8516 780.036 28.7993 780.068 28.7626C780.837 27.8676 781.717 27.0667 782.685 26.3758C782.722 26.3496 782.758 26.3392 782.79 26.3392C782.831 26.3392 782.863 26.3549 782.884 26.3653C782.915 26.381 782.989 26.4334 782.978 26.5381C782.847 28.6213 782.188 30.6522 781.073 32.4056L781.078 32.4109Z" fill="#9DADF2"/>
<path d="M709.047 0.986921C722.787 0.986921 733.967 12.1673 733.967 25.9072C733.967 39.6471 722.787 50.8274 709.047 50.8274C695.307 50.8274 684.126 39.6471 684.126 25.9072C684.126 12.1673 695.307 0.986921 709.047 0.986921ZM709.047 49.0321C721.797 49.0321 732.172 38.6578 732.172 25.9072C732.172 13.1565 721.797 2.78226 709.047 2.78226C696.296 2.78226 685.922 13.1565 685.922 25.9072C685.922 38.6578 696.296 49.0321 709.047 49.0321Z" fill="#478BF9"/>
<path d="M648.131 0.985681C648.628 0.985681 649.026 1.3887 649.026 1.88072C649.026 2.37274 648.623 2.77578 648.131 2.77578C635.38 2.77578 625.006 13.1501 625.006 25.9007C625.006 38.6513 635.38 49.0256 648.131 49.0256C648.628 49.0256 649.026 49.4286 649.026 49.9206C649.026 50.4127 648.623 50.8157 648.131 50.8157C634.391 50.8157 623.21 39.6353 623.21 25.8954C623.21 12.1555 634.391 0.975202 648.131 0.975202V0.985681Z" fill="#478BF9"/>
<path d="M704.252 21.4994C704.252 22.4154 704.875 23.211 705.765 23.4308L707.456 23.8548V19.5051H706.252C705.153 19.5051 704.258 20.4002 704.258 21.4994H704.252Z" fill="#478BF9"/>
<path d="M710.648 32.2977H711.852C712.951 32.2977 713.846 31.4026 713.846 30.3034C713.846 29.3874 713.223 28.5918 712.333 28.372L710.643 27.948V32.2977H710.648Z" fill="#478BF9"/>
<path d="M709.052 5.62402C697.872 5.62402 688.77 14.7211 688.77 25.9067C688.77 37.0923 697.867 46.1894 709.052 46.1894C720.238 46.1894 729.335 37.0923 729.335 25.9067C729.335 14.7211 720.238 5.62402 709.052 5.62402ZM717.05 22.7034H713.852V21.1017C713.852 20.2223 713.135 19.5 712.25 19.5H710.649V24.6505L713.114 25.2682C715.428 25.8492 717.045 27.9167 717.045 30.3035C717.045 33.1666 714.716 35.4959 711.853 35.4959H710.649V39.5472H707.451V35.4959H705.849C703.2 35.4959 701.049 33.3446 701.049 30.6961V29.0944H704.247V30.6961C704.247 31.5754 704.964 32.2978 705.849 32.2978H707.451V27.1472L704.985 26.5296C702.672 25.9486 701.054 23.8811 701.054 21.4943C701.054 18.6311 703.384 16.3019 706.247 16.3019H707.451V12.2506H710.649V16.3019H712.25C714.899 16.3019 717.05 18.4532 717.05 21.1017V22.7034Z" fill="#478BF9"/>
<path d="M647.749 0.955746L707.89 0.955746C708.387 0.955746 708.785 1.35876 708.785 1.85078C708.785 2.3428 708.382 2.74585 707.89 2.74585L647.749 2.74585C647.251 2.74585 646.854 2.3428 646.854 1.85078C646.854 1.35876 647.257 0.955746 647.749 0.955746Z" fill="#478BF9"/>
<path d="M647.618 48.998L707.759 48.998C708.256 48.998 708.654 49.401 708.654 49.8931C708.654 50.3851 708.251 50.7881 707.759 50.7881L647.618 50.7881C647.12 50.7881 646.723 50.3851 646.723 49.8931C646.723 49.401 647.126 48.998 647.618 48.998Z" fill="#478BF9"/>
<path d="M1206.09 50.9136C1199.71 50.9136 1193.33 48.4849 1188.47 43.6223C1178.75 33.9023 1178.75 18.0896 1188.47 8.36965C1193.18 3.65883 1199.44 1.06787 1206.09 1.06787C1212.75 1.06787 1219.01 3.65883 1223.72 8.36965C1233.44 18.0896 1233.44 33.9023 1223.72 43.6223C1218.87 48.4797 1212.48 50.9136 1206.09 50.9136ZM1189.77 42.3138C1198.77 51.3114 1213.41 51.3114 1222.41 42.3138C1231.41 33.3161 1231.41 18.6759 1222.41 9.67821C1218.05 5.31809 1212.25 2.92081 1206.09 2.92081C1199.92 2.92081 1194.13 5.32332 1189.77 9.67821C1180.77 18.6759 1180.77 33.3161 1189.77 42.3138H1189.77Z" fill="#9DADF2"/>
<path d="M1205.76 35.3207C1205.85 35.5353 1206.06 35.6609 1206.28 35.6609C1206.36 35.6609 1206.43 35.6452 1206.5 35.619C1208.26 34.881 1209.86 33.7399 1211.13 32.3162C1211.33 32.0859 1211.31 31.73 1211.08 31.5259C1210.85 31.3217 1210.5 31.3426 1210.29 31.573C1209.14 32.8763 1207.68 33.9179 1206.07 34.5879C1205.79 34.7083 1205.65 35.038 1205.77 35.3207H1205.76Z" fill="#9DADF2"/>
<path d="M1215.59 17.3777L1206.3 13.6613C1206.16 13.609 1206.01 13.609 1205.88 13.6613L1196.58 17.3777C1196.37 17.4614 1196.23 17.6655 1196.23 17.8958V24.5538C1196.24 30.6988 1200.13 36.2523 1205.89 38.367C1205.96 38.3879 1206.02 38.3984 1206.09 38.3984C1206.16 38.3984 1206.22 38.3879 1206.28 38.367C1212.05 36.2471 1215.93 30.6988 1215.94 24.5538V17.8958C1215.94 17.6655 1215.81 17.4614 1215.59 17.3777ZM1214.82 24.5538C1214.81 30.144 1211.31 35.2369 1206.09 37.2416C1200.88 35.2369 1197.37 30.144 1197.36 24.5538V18.2779L1206.09 14.7867L1214.82 18.2779V24.5538Z" fill="#9DADF2"/>
<path d="M1202.21 18.2519C1202.07 18.1943 1201.92 18.1943 1201.78 18.2519L1199.57 19.1365C1199.35 19.2203 1199.22 19.4244 1199.22 19.6547V22.0154C1199.22 22.3242 1199.47 22.5754 1199.78 22.5754C1200.08 22.5754 1200.34 22.3242 1200.34 22.0154V20.0368L1202.19 19.2936C1202.34 19.236 1202.44 19.1313 1202.5 18.99C1202.56 18.8539 1202.56 18.7021 1202.5 18.5608C1202.45 18.4195 1202.34 18.3147 1202.2 18.2519H1202.21Z" fill="#9DADF2"/>
<path d="M1220.25 11.8399C1216.47 8.05554 1211.44 5.97754 1206.09 5.97754C1200.74 5.97754 1195.72 8.06078 1191.94 11.8399C1184.13 19.6442 1184.13 32.3477 1191.94 40.1572C1195.84 44.0619 1200.96 46.009 1206.09 46.009C1211.22 46.009 1216.35 44.0567 1220.25 40.1572C1228.06 32.3529 1228.06 19.6494 1220.25 11.8399ZM1217.48 24.5539C1217.5 31.6567 1212.96 37.8698 1206.19 40.0211C1206.13 40.042 1206.06 40.042 1205.99 40.0211C1199.23 37.8698 1194.69 31.6567 1194.7 24.5539V16.6973C1194.7 16.5664 1194.78 16.446 1194.91 16.3937L1205.97 11.9708C1206.01 11.9551 1206.05 11.9498 1206.09 11.9498C1206.14 11.9498 1206.18 11.9551 1206.21 11.9708L1217.28 16.3989C1217.41 16.446 1217.48 16.5664 1217.48 16.7025V24.5591V24.5539Z" fill="#9DADF2"/>
<path d="M1142.43 50.9057C1128.69 50.9057 1117.52 39.7253 1117.52 25.9907C1117.52 12.256 1128.7 1.07568 1142.43 1.07568C1156.17 1.07568 1167.35 12.256 1167.35 25.9907C1167.35 39.7253 1156.17 50.9057 1142.43 50.9057ZM1142.43 2.73493C1129.61 2.73493 1119.18 13.1668 1119.18 25.9907C1119.18 38.8146 1129.61 49.2464 1142.43 49.2464C1155.26 49.2464 1165.69 38.8146 1165.69 25.9907C1165.69 13.1668 1155.26 2.73493 1142.43 2.73493Z" fill="#7DDACF"/>
<path d="M1158.69 8.21231L1150.98 15.9255L1152.5 17.443L1160.21 9.7298L1158.69 8.21231Z" fill="#7DDACF"/>
<path d="M1132.14 34.7633L1124.43 42.4766L1125.94 43.994L1133.66 36.2808L1132.14 34.7633Z" fill="#7DDACF"/>
<path d="M1152.72 34.7672L1151.2 36.2847L1158.92 43.9979L1160.44 42.4804L1152.72 34.7672Z" fill="#7DDACF"/>
<path d="M1125.94 7.98375L1124.42 9.50122L1132.13 17.2108L1133.65 15.6933L1125.94 7.98375Z" fill="#7DDACF"/>
<path d="M1148.51 26.6606C1149.01 26.1581 1149.01 25.3468 1148.51 24.8496L1147.44 23.787C1146.94 23.2845 1146.13 23.2845 1145.63 23.787L1145.05 24.3628L1144.39 23.698C1143.89 23.1955 1143.08 23.1955 1142.58 23.698L1142 24.279L1141.34 23.609C1140.84 23.1066 1140.02 23.1066 1139.53 23.609L1135.99 27.1422C1135.97 27.1683 1135.97 27.2102 1135.99 27.2416C1136.47 27.7127 1137.23 27.7127 1137.71 27.2416L1139.99 24.9647C1140.23 24.7187 1140.63 24.7187 1140.88 24.9647L1141.05 25.1322C1141.08 25.1636 1141.08 25.2107 1141.05 25.2421L1139.15 27.1422C1139.12 27.1683 1139.12 27.2102 1139.15 27.2416C1139.62 27.7127 1140.39 27.7127 1140.86 27.2416L1143.04 25.0589C1143.29 24.8129 1143.69 24.8129 1143.93 25.0589L1144.1 25.2264C1144.13 25.2526 1144.13 25.2945 1144.1 25.3259L1142.27 27.1579C1142.24 27.184 1142.24 27.2259 1142.27 27.2573C1142.74 27.7284 1143.51 27.7284 1143.99 27.2573L1146.1 25.1479C1146.34 24.9019 1146.74 24.9019 1146.99 25.1479L1147.35 25.5091C1147.49 25.6504 1147.49 25.8859 1147.35 26.0273L1147.29 26.0848C1147.15 26.2262 1146.91 26.2262 1146.77 26.0848L1146.31 25.619C1146.28 25.5928 1146.24 25.5928 1146.21 25.619L1145.4 26.4251C1145.37 26.4512 1145.37 26.4931 1145.4 26.5245L1146.13 27.2521C1146.63 27.7546 1147.44 27.7546 1147.94 27.2521L1148.51 26.6763L1148.51 26.6606Z" fill="#7DDACF"/>
<path d="M1142.43 6.8855C1131.88 6.8855 1123.33 15.4383 1123.33 25.9905C1123.33 36.5427 1131.88 45.0955 1142.43 45.0955C1152.99 45.0955 1161.54 36.5427 1161.54 25.9905C1161.54 15.4383 1152.99 6.8855 1142.43 6.8855ZM1143.21 12.7845C1146.28 12.9625 1149.06 14.1873 1151.22 16.103L1148.46 18.8615C1147.02 17.6419 1145.21 16.8515 1143.21 16.684V12.7845ZM1141.66 12.7845V16.684C1139.66 16.8463 1137.85 17.6419 1136.41 18.8615L1133.65 16.103C1135.81 14.1873 1138.59 12.9625 1141.66 12.7845ZM1132.55 17.2022L1135.31 19.9607C1134.09 21.4001 1133.3 23.2163 1133.13 25.2106H1129.23C1129.41 22.1433 1130.64 19.3587 1132.55 17.2022ZM1129.23 26.7652H1133.13C1133.29 28.7594 1134.09 30.5757 1135.31 32.0151L1132.55 34.7736C1130.64 32.6171 1129.41 29.8325 1129.23 26.7652ZM1141.66 39.1913C1138.59 39.0133 1135.81 37.7885 1133.65 35.8728L1136.41 33.1143C1137.85 34.3339 1139.66 35.1243 1141.66 35.2918V39.1913ZM1134.4 25.9853C1134.4 21.5518 1138 17.9559 1142.43 17.9559C1146.87 17.9559 1150.46 21.5518 1150.46 25.9853C1150.46 30.4187 1146.87 34.0146 1142.43 34.0146C1138 34.0146 1134.4 30.4187 1134.4 25.9853ZM1143.21 39.1913V35.2918C1145.21 35.1295 1147.02 34.3339 1148.46 33.1143L1151.22 35.8728C1149.06 37.7885 1146.28 39.0133 1143.21 39.1913ZM1152.32 34.7736L1149.56 32.0151C1150.78 30.5757 1151.57 28.7594 1151.74 26.7652H1155.64C1155.46 29.8325 1154.24 32.6171 1152.32 34.7736ZM1151.74 25.2106C1151.58 23.2163 1150.78 21.4001 1149.56 19.9607L1152.32 17.2022C1154.24 19.3587 1155.46 22.1433 1155.64 25.2106H1151.74Z" fill="#7DDACF"/>
<path d="M1080.35 50.83C1066.61 50.83 1055.43 39.6497 1055.43 25.915C1055.43 12.1803 1066.61 1 1080.35 1C1094.08 1 1105.26 12.1803 1105.26 25.915C1105.26 39.6497 1094.08 50.83 1080.35 50.83ZM1080.35 2.65925C1067.52 2.65925 1057.09 13.0911 1057.09 25.915C1057.09 38.7389 1067.52 49.1708 1080.35 49.1708C1093.17 49.1708 1103.6 38.7389 1103.6 25.915C1103.6 13.0911 1093.17 2.65925 1080.35 2.65925Z" fill="#9DADF2"/>
<path d="M1088.43 10.3588C1088.3 10.3588 1088.18 10.3326 1088.06 10.2751C1085.65 9.08166 1083.05 8.47449 1080.35 8.47449C1077.64 8.47449 1075.05 9.08166 1072.63 10.2751C1072.31 10.4321 1071.93 10.3693 1071.68 10.118L1067.4 5.83644C1067.22 5.65324 1067.13 5.40199 1067.16 5.14551C1067.19 4.88904 1067.34 4.66397 1067.56 4.53312C1071.42 2.21958 1075.84 1 1080.35 1C1084.86 1 1089.29 2.22481 1093.15 4.53312C1093.37 4.66397 1093.51 4.88904 1093.54 5.14551C1093.57 5.40199 1093.49 5.65324 1093.31 5.83644L1089.03 10.118C1088.86 10.2751 1088.65 10.3588 1088.43 10.3588H1088.43ZM1080.35 6.81524C1083.11 6.81524 1085.77 7.39102 1088.26 8.52685L1091.36 5.42815C1087.98 3.61187 1084.2 2.65925 1080.35 2.65925C1076.5 2.65925 1072.71 3.61187 1069.34 5.42815L1072.44 8.52685C1074.93 7.39102 1077.59 6.81524 1080.35 6.81524Z" fill="#9DADF2"/>
<path d="M1080.35 50.8299C1075.83 50.8299 1071.41 49.6051 1067.55 47.2968C1067.33 47.1659 1067.19 46.9409 1067.16 46.6844C1067.13 46.4279 1067.21 46.1767 1067.39 45.9935L1071.67 41.7119C1071.93 41.4606 1072.31 41.3978 1072.63 41.5549C1075.04 42.7483 1077.64 43.3554 1080.34 43.3554C1083.05 43.3554 1085.64 42.7483 1088.06 41.5549C1088.38 41.3978 1088.76 41.4606 1089.01 41.7119L1093.29 45.9935C1093.47 46.1767 1093.56 46.4279 1093.53 46.6844C1093.5 46.9409 1093.35 47.1659 1093.13 47.2968C1089.27 49.6103 1084.85 50.8299 1080.34 50.8299H1080.35ZM1069.34 46.4018C1072.71 48.2181 1076.49 49.1707 1080.35 49.1707C1084.2 49.1707 1087.98 48.2181 1091.35 46.4018L1088.26 43.3031C1085.76 44.4389 1083.11 45.0147 1080.35 45.0147C1077.59 45.0147 1074.93 44.4389 1072.44 43.3031L1069.34 46.4018Z" fill="#9DADF2"/>
<path d="M1101.02 39.1106C1100.8 39.1106 1100.59 39.0268 1100.43 38.8698L1096.15 34.5882C1095.9 34.337 1095.84 33.9496 1095.99 33.6356C1097.19 31.2226 1097.79 28.6264 1097.79 25.9203C1097.79 23.2142 1097.19 20.618 1095.99 18.205C1095.84 17.8857 1095.9 17.4984 1096.15 17.2524L1100.43 12.9708C1100.61 12.7876 1100.87 12.7038 1101.12 12.7352C1101.38 12.7666 1101.6 12.9132 1101.73 13.133C1104.05 16.9907 1105.27 21.4136 1105.27 25.9255C1105.27 30.4374 1104.05 34.8604 1101.73 38.718C1101.6 38.9379 1101.38 39.0844 1101.12 39.1158C1101.09 39.1158 1101.05 39.1158 1101.02 39.1158V39.1106ZM1097.74 33.824L1100.83 36.9227C1102.65 33.5518 1103.6 29.7675 1103.6 25.9151C1103.6 22.0626 1102.65 18.2783 1100.83 14.9074L1097.74 18.0061C1098.87 20.4976 1099.45 23.1566 1099.45 25.9151C1099.45 28.6735 1098.87 31.3325 1097.74 33.824Z" fill="#9DADF2"/>
<path d="M1059.68 39.1106C1059.64 39.1106 1059.61 39.1106 1059.58 39.1053C1059.32 39.0739 1059.1 38.9274 1058.96 38.7075C1056.65 34.8499 1055.43 30.4269 1055.43 25.915C1055.43 21.4031 1056.65 16.9802 1058.96 13.1225C1059.1 12.9027 1059.32 12.7561 1059.58 12.7247C1059.83 12.6933 1060.08 12.7823 1060.27 12.9603L1064.55 17.2419C1064.8 17.4931 1064.86 17.8805 1064.71 18.1945C1063.51 20.6075 1062.91 23.2037 1062.91 25.9098C1062.91 28.6159 1063.51 31.2121 1064.71 33.6251C1064.86 33.9443 1064.8 34.3317 1064.55 34.5777L1060.27 38.8593C1060.11 39.0163 1059.9 39.1053 1059.68 39.1053L1059.68 39.1106ZM1059.86 14.9074C1058.04 18.2783 1057.09 22.0626 1057.09 25.915C1057.09 29.7674 1058.04 33.5518 1059.86 36.9227L1062.96 33.824C1061.82 31.3325 1061.25 28.6735 1061.25 25.915C1061.25 23.1566 1061.82 20.4976 1062.96 18.0061L1059.86 14.9074Z" fill="#9DADF2"/>
<path d="M1080.35 6.81006C1069.82 6.81006 1061.24 15.3785 1061.24 25.9151C1061.24 36.4516 1069.81 45.0201 1080.35 45.0201C1090.88 45.0201 1099.45 36.4516 1099.45 25.9151C1099.45 15.3785 1090.88 6.81006 1080.35 6.81006ZM1091.1 19.6392C1092 21.1885 1092.55 22.8792 1092.73 24.6745C1092.74 24.7478 1092.7 24.8159 1092.64 24.8525C1091.28 25.69 1090.05 26.7159 1088.99 27.9145C1088.95 27.9721 1088.87 27.993 1088.8 27.9669L1086.44 27.1975C1086.37 27.1765 1086.32 27.1189 1086.31 27.0457C1086.05 25.0933 1085.44 23.2246 1084.51 21.4869C1084.48 21.4241 1084.48 21.3508 1084.52 21.2932L1085.98 19.2833C1086.02 19.2362 1086.08 19.2047 1086.14 19.2047C1086.15 19.2047 1086.16 19.2047 1086.18 19.2047C1087.74 19.5502 1089.34 19.6654 1090.93 19.5345C1091 19.5293 1091.07 19.5659 1091.11 19.6287L1091.1 19.6392ZM1085.03 27.3754C1085.03 27.4277 1085.02 27.4801 1084.98 27.5167C1083.74 28.9457 1082.16 30.092 1080.42 30.8248C1080.37 30.8457 1080.33 30.8457 1080.28 30.8248C1078.54 30.0868 1076.95 28.9404 1075.71 27.5167C1075.68 27.4801 1075.67 27.4277 1075.67 27.3754C1075.91 25.4806 1076.5 23.6696 1077.42 21.9946C1077.45 21.9475 1077.49 21.9161 1077.54 21.9056C1078.46 21.712 1079.4 21.6125 1080.35 21.6125C1081.3 21.6125 1082.24 21.712 1083.16 21.9056C1083.22 21.9161 1083.26 21.9475 1083.28 21.9946C1084.2 23.6696 1084.79 25.4806 1085.03 27.3754H1085.03ZM1084.74 14.384C1084.74 14.384 1084.81 14.3317 1084.87 14.3317C1084.89 14.3317 1084.92 14.3317 1084.94 14.3474C1086.87 15.1116 1088.59 16.3678 1089.93 17.9747C1090 18.0532 1089.97 18.137 1089.96 18.1684C1089.95 18.1945 1089.9 18.2783 1089.79 18.2783C1088.6 18.294 1087.42 18.1579 1086.27 17.8857C1086.22 17.8753 1086.18 17.8438 1086.16 17.802C1085.54 16.7918 1085.05 15.7031 1084.7 14.5725C1084.66 14.473 1084.72 14.405 1084.75 14.384H1084.74ZM1077.7 13.7559C1079.44 13.3843 1081.26 13.3843 1083 13.7559C1083.06 13.7716 1083.12 13.824 1083.14 13.892C1083.51 15.4466 1084.11 16.9331 1084.92 18.3097C1084.96 18.3725 1084.95 18.451 1084.91 18.5138L1083.46 20.5133C1083.42 20.5709 1083.35 20.6023 1083.28 20.5866C1081.36 20.1993 1079.34 20.1993 1077.42 20.5866C1077.35 20.6023 1077.28 20.5709 1077.24 20.5133L1075.79 18.5138C1075.75 18.4562 1075.74 18.3725 1075.78 18.3097C1076.59 16.9331 1077.19 15.4466 1077.56 13.892C1077.58 13.824 1077.64 13.7716 1077.7 13.7559ZM1070.77 17.9747C1072.11 16.3626 1073.83 15.1064 1075.76 14.3474C1075.78 14.3369 1075.81 14.3317 1075.83 14.3317C1075.9 14.3317 1075.94 14.3683 1075.96 14.384C1075.98 14.4102 1076.04 14.473 1076.01 14.5725C1075.65 15.7083 1075.16 16.7918 1074.55 17.802C1074.52 17.8438 1074.48 17.8753 1074.43 17.8857C1073.29 18.1579 1072.1 18.294 1070.91 18.2783C1070.8 18.2783 1070.76 18.1945 1070.75 18.1684C1070.73 18.137 1070.71 18.0532 1070.77 17.9747H1070.77ZM1069.6 19.6392C1069.63 19.5816 1069.7 19.545 1069.76 19.545C1069.76 19.545 1069.77 19.545 1069.78 19.545C1071.38 19.6706 1072.98 19.5607 1074.53 19.2152C1074.6 19.1995 1074.68 19.2257 1074.72 19.2885L1076.18 21.2984C1076.22 21.356 1076.23 21.4345 1076.2 21.4921C1075.26 23.2299 1074.66 25.0985 1074.39 27.0509C1074.38 27.1189 1074.33 27.1765 1074.26 27.2027L1071.9 27.9721C1071.84 27.993 1071.76 27.9721 1071.71 27.9198C1070.65 26.7211 1069.43 25.6952 1068.06 24.8577C1068 24.8211 1067.97 24.7531 1067.97 24.6798C1068.15 22.8844 1068.7 21.1885 1069.61 19.6444L1069.6 19.6392ZM1070.17 32.5364C1070.14 32.6358 1070.05 32.6568 1070.01 32.662C1069.98 32.662 1069.89 32.662 1069.84 32.5782C1068.72 30.8248 1068.06 28.7939 1067.93 26.7107C1067.93 26.606 1067.99 26.5536 1068.03 26.5379C1068.06 26.5222 1068.14 26.4856 1068.22 26.5484C1069.19 27.2341 1070.07 28.0402 1070.84 28.9352C1070.87 28.9719 1070.89 29.019 1070.88 29.0713C1070.79 30.249 1070.55 31.4163 1070.17 32.5416L1070.17 32.5364ZM1075.34 37.3153C1073.71 36.5982 1072.27 35.5461 1071.07 34.1956C1071.02 34.1433 1071 34.0648 1071.03 34.002C1071.64 32.5259 1072.03 30.9713 1072.18 29.3801C1072.19 29.3068 1072.24 29.244 1072.31 29.2231L1074.64 28.4641C1074.64 28.4641 1074.68 28.4537 1074.7 28.4537C1074.75 28.4537 1074.8 28.4746 1074.84 28.5165C1076.14 29.9821 1077.78 31.1755 1079.58 31.9658C1079.65 31.9972 1079.69 32.0601 1079.69 32.1333V34.5882C1079.69 34.6615 1079.65 34.7295 1079.58 34.7557C1078.11 35.389 1076.75 36.2422 1075.53 37.2839C1075.48 37.331 1075.4 37.3414 1075.34 37.31L1075.34 37.3153ZM1083.58 37.8334C1083.57 37.8701 1083.54 37.9538 1083.44 37.98C1081.42 38.4929 1079.28 38.4929 1077.26 37.98C1077.16 37.9538 1077.13 37.8701 1077.13 37.8334C1077.12 37.7968 1077.11 37.7131 1077.2 37.645C1078.15 36.9384 1079.19 36.3469 1080.28 35.8915C1080.33 35.8706 1080.38 35.8706 1080.43 35.8915C1081.51 36.3469 1082.55 36.9384 1083.51 37.645C1083.59 37.7078 1083.59 37.7968 1083.58 37.8334H1083.58ZM1089.64 34.2009C1088.44 35.5513 1087 36.5982 1085.37 37.3153C1085.3 37.3467 1085.23 37.3309 1085.17 37.2891C1083.95 36.2474 1082.6 35.3943 1081.13 34.7609C1081.06 34.7295 1081.02 34.6667 1081.02 34.5934V32.1386C1081.02 32.0653 1081.06 31.9973 1081.13 31.9711C1082.92 31.1807 1084.57 29.9873 1085.87 28.5217C1085.91 28.4798 1085.95 28.4589 1086 28.4589C1086.03 28.4589 1086.04 28.4589 1086.06 28.4694L1088.4 29.2283C1088.47 29.2493 1088.52 29.3121 1088.52 29.3854C1088.67 30.9766 1089.06 32.5259 1089.67 34.0072C1089.7 34.07 1089.69 34.1485 1089.64 34.2009H1089.64ZM1090.87 32.5835C1090.81 32.6725 1090.72 32.6725 1090.69 32.6672C1090.65 32.6672 1090.57 32.6411 1090.53 32.5416C1090.16 31.4163 1089.91 30.249 1089.82 29.0713C1089.82 29.0242 1089.83 28.9719 1089.86 28.9352C1090.63 28.0402 1091.51 27.2393 1092.47 26.5484C1092.51 26.5222 1092.55 26.5118 1092.58 26.5118C1092.62 26.5118 1092.65 26.5275 1092.67 26.5379C1092.7 26.5536 1092.78 26.606 1092.77 26.7107C1092.64 28.7939 1091.98 30.8248 1090.86 32.5782L1090.87 32.5835Z" fill="#9DADF2"/>
<path d="M1018.84 1.15953C1032.58 1.15953 1043.76 12.3399 1043.76 26.0798C1043.76 39.8197 1032.58 51 1018.84 51C1005.1 51 993.916 39.8197 993.916 26.0798C993.916 12.3399 1005.1 1.15953 1018.84 1.15953ZM1018.84 49.2047C1031.59 49.2047 1041.96 38.8304 1041.96 26.0798C1041.96 13.3291 1031.59 2.95487 1018.84 2.95487C1006.09 2.95487 995.711 13.3291 995.711 26.0798C995.711 38.8304 1006.09 49.2047 1018.84 49.2047Z" fill="#478BF9"/>
<path d="M957.92 1.15829C958.417 1.15829 958.815 1.5613 958.815 2.05332C958.815 2.54534 958.412 2.94839 957.92 2.94839C945.17 2.94839 934.795 13.3227 934.795 26.0733C934.795 38.8239 945.17 49.1982 957.92 49.1982C958.417 49.1982 958.815 49.6012 958.815 50.0932C958.815 50.5853 958.412 50.9883 957.92 50.9883C944.18 50.9883 933 39.8079 933 26.068C933 12.3282 944.18 1.14781 957.92 1.14781V1.15829Z" fill="#478BF9"/>
<path d="M1014.04 21.672C1014.04 22.588 1014.66 23.3836 1015.55 23.6034L1017.25 24.0274V19.6777H1016.04C1014.94 19.6777 1014.05 20.5728 1014.05 21.672H1014.04Z" fill="#478BF9"/>
<path d="M1020.44 32.4703H1021.64C1022.74 32.4703 1023.64 31.5752 1023.64 30.476C1023.64 29.56 1023.01 28.7644 1022.12 28.5446L1020.43 28.1206V32.4703H1020.44Z" fill="#478BF9"/>
<path d="M1018.84 5.79663C1007.66 5.79663 998.559 14.8938 998.559 26.0793C998.559 37.2649 1007.66 46.362 1018.84 46.362C1030.03 46.362 1039.12 37.2649 1039.12 26.0793C1039.12 14.8938 1030.03 5.79663 1018.84 5.79663ZM1026.84 22.876H1023.64V21.2743C1023.64 20.3949 1022.92 19.6726 1022.04 19.6726H1020.44V24.8231L1022.9 25.4408C1025.22 26.0218 1026.83 28.0893 1026.83 30.4761C1026.83 33.3392 1024.51 35.6685 1021.64 35.6685H1020.44V39.7198H1017.24V35.6685H1015.64C1012.99 35.6685 1010.84 33.5172 1010.84 30.8687V29.267H1014.04V30.8687C1014.04 31.748 1014.75 32.4704 1015.64 32.4704H1017.24V27.3198L1014.77 26.7022C1012.46 26.1212 1010.84 24.0537 1010.84 21.6669C1010.84 18.8037 1013.17 16.4745 1016.04 16.4745H1017.24V12.4232H1020.44V16.4745H1022.04C1024.69 16.4745 1026.84 18.6258 1026.84 21.2743V22.876Z" fill="#478BF9"/>
<path d="M957.538 1.12835L1017.68 1.12835C1018.18 1.12835 1018.57 1.53137 1018.57 2.02339C1018.57 2.51541 1018.17 2.91846 1017.68 2.91846L957.538 2.91846C957.041 2.91846 956.643 2.51541 956.643 2.02339C956.643 1.53137 957.046 1.12835 957.538 1.12835Z" fill="#478BF9"/>
<path d="M957.407 49.1706L1017.55 49.1706C1018.05 49.1706 1018.44 49.5736 1018.44 50.0657C1018.44 50.5577 1018.04 50.9607 1017.55 50.9607L957.407 50.9607C956.91 50.9607 956.512 50.5577 956.512 50.0657C956.512 49.5736 956.915 49.1706 957.407 49.1706Z" fill="#478BF9"/>
<path d="M273.233 50.741C266.847 50.741 260.467 48.3123 255.604 43.4497C245.884 33.7297 245.884 17.917 255.604 8.19704C260.315 3.48622 266.575 0.895264 273.233 0.895264C279.891 0.895264 286.151 3.48622 290.862 8.19704C300.582 17.917 300.582 33.7297 290.862 43.4497C286.004 48.3071 279.619 50.741 273.233 50.741ZM256.913 42.1411C265.91 51.1388 280.55 51.1388 289.548 42.1411C298.546 33.1435 298.546 18.5033 289.548 9.50561C285.188 5.14548 279.394 2.74821 273.228 2.74821C267.062 2.74821 261.267 5.15071 256.907 9.50561C247.91 18.5033 247.91 33.1435 256.907 42.1411H256.913Z" fill="#9DADF2"/>
<path d="M272.903 35.1483C272.992 35.3629 273.202 35.4885 273.422 35.4885C273.495 35.4885 273.568 35.4728 273.641 35.4467C275.4 34.7086 277.002 33.5675 278.269 32.1438C278.473 31.9135 278.452 31.5576 278.221 31.3535C277.991 31.1494 277.635 31.1703 277.431 31.4006C276.274 32.7039 274.814 33.7455 273.207 34.4155C272.924 34.5359 272.788 34.8657 272.909 35.1483H272.903Z" fill="#9DADF2"/>
<path d="M282.733 17.2053L273.437 13.489C273.3 13.4366 273.154 13.4366 273.018 13.489L263.722 17.2053C263.507 17.289 263.371 17.4932 263.371 17.7235V24.3814C263.382 30.5264 267.265 36.08 273.034 38.1946C273.096 38.2155 273.159 38.226 273.227 38.226C273.295 38.226 273.358 38.2155 273.421 38.1946C279.189 36.0747 283.073 30.5264 283.083 24.3814V17.7235C283.083 17.4932 282.947 17.289 282.733 17.2053ZM281.963 24.3814C281.953 29.9716 278.446 35.0645 273.232 37.0692C268.019 35.0645 264.507 29.9716 264.496 24.3814V18.1056L273.232 14.6143L281.963 18.1056V24.3814Z" fill="#9DADF2"/>
<path d="M269.349 18.0793C269.213 18.0217 269.061 18.0217 268.92 18.0793L266.706 18.9639C266.491 19.0477 266.355 19.2518 266.355 19.4821V21.8428C266.355 22.1516 266.606 22.4028 266.915 22.4028C267.224 22.4028 267.475 22.1516 267.475 21.8428V19.8642L269.333 19.121C269.475 19.0634 269.579 18.9587 269.642 18.8174C269.7 18.6813 269.7 18.5295 269.642 18.3882C269.584 18.2469 269.48 18.1421 269.344 18.0793H269.349Z" fill="#9DADF2"/>
<path d="M287.392 11.6675C283.613 7.88318 278.582 5.80518 273.233 5.80518C267.884 5.80518 262.859 7.88841 259.074 11.6675C251.27 19.4718 251.27 32.1753 259.074 39.9848C262.979 43.8896 268.103 45.8367 273.233 45.8367C278.363 45.8367 283.487 43.8843 287.392 39.9848C295.196 32.1806 295.196 19.477 287.392 11.6675ZM284.623 24.3815C284.638 31.4844 280.1 37.6975 273.332 39.8487C273.27 39.8697 273.202 39.8697 273.134 39.8487C266.366 37.6975 261.828 31.4844 261.843 24.3815V16.5249C261.843 16.394 261.922 16.2737 262.047 16.2213L273.113 11.7984C273.149 11.7827 273.191 11.7775 273.233 11.7775C273.275 11.7775 273.317 11.7827 273.353 11.7984L284.419 16.2266C284.544 16.2737 284.623 16.394 284.623 16.5301V24.3867V24.3815Z" fill="#9DADF2"/>
<path d="M209.571 50.7331C195.831 50.7331 184.656 39.5527 184.656 25.8181C184.656 12.0834 195.837 0.903076 209.571 0.903076C223.306 0.903076 234.486 12.0834 234.486 25.8181C234.486 39.5527 223.306 50.7331 209.571 50.7331ZM209.571 2.56232C196.747 2.56232 186.315 12.9942 186.315 25.8181C186.315 38.642 196.747 49.0738 209.571 49.0738C222.395 49.0738 232.827 38.642 232.827 25.8181C232.827 12.9942 222.395 2.56232 209.571 2.56232Z" fill="#7DDACF"/>
<path d="M225.83 8.0397L218.117 15.7529L219.635 17.2704L227.348 9.5572L225.83 8.0397Z" fill="#7DDACF"/>
<path d="M199.278 34.5907L191.565 42.304L193.082 43.8214L200.796 36.1082L199.278 34.5907Z" fill="#7DDACF"/>
<path d="M219.861 34.5946L218.343 36.1121L226.056 43.8253L227.574 42.3078L219.861 34.5946Z" fill="#7DDACF"/>
<path d="M193.08 7.81114L191.563 9.32861L199.273 17.0382L200.79 15.5207L193.08 7.81114Z" fill="#7DDACF"/>
<path d="M215.648 26.488C216.151 25.9855 216.151 25.1742 215.648 24.6769L214.581 23.6144C214.078 23.1119 213.267 23.1119 212.77 23.6144L212.194 24.1902L211.529 23.5254C211.027 23.0229 210.215 23.0229 209.718 23.5254L209.142 24.1064L208.478 23.4364C207.975 22.9339 207.164 22.9339 206.667 23.4364L203.133 26.9696C203.107 26.9957 203.107 27.0376 203.133 27.069C203.604 27.5401 204.374 27.5401 204.85 27.069L207.127 24.7921C207.373 24.5461 207.771 24.5461 208.017 24.7921L208.184 24.9596C208.216 24.991 208.216 25.0381 208.184 25.0695L206.284 26.9696C206.258 26.9957 206.258 27.0376 206.284 27.069C206.756 27.5401 207.525 27.5401 208.001 27.069L210.184 24.8863C210.43 24.6403 210.828 24.6403 211.074 24.8863L211.241 25.0538C211.267 25.08 211.267 25.1219 211.241 25.1533L209.409 26.9853C209.383 27.0114 209.383 27.0533 209.409 27.0847C209.88 27.5558 210.65 27.5558 211.126 27.0847L213.235 24.9753C213.481 24.7293 213.879 24.7293 214.125 24.9753L214.486 25.3365C214.628 25.4778 214.628 25.7133 214.486 25.8547L214.429 25.9122C214.288 26.0535 214.052 26.0535 213.911 25.9122L213.445 25.4464C213.419 25.4202 213.377 25.4202 213.345 25.4464L212.539 26.2525C212.513 26.2786 212.513 26.3205 212.539 26.3519L213.267 27.0795C213.769 27.582 214.581 27.582 215.078 27.0795L215.654 26.5037L215.648 26.488Z" fill="#7DDACF"/>
<path d="M209.572 6.71289C199.02 6.71289 190.467 15.2656 190.467 25.8179C190.467 36.3701 199.02 44.9229 209.572 44.9229C220.124 44.9229 228.677 36.3701 228.677 25.8179C228.677 15.2656 220.124 6.71289 209.572 6.71289ZM210.352 12.6119C213.419 12.7899 216.204 14.0147 218.36 15.9304L215.602 18.6888C214.162 17.4693 212.346 16.6789 210.352 16.5114V12.6119ZM208.797 12.6119V16.5114C206.803 16.6737 204.987 17.4693 203.547 18.6888L200.789 15.9304C202.945 14.0147 205.73 12.7899 208.797 12.6119ZM199.69 17.0296L202.448 19.7881C201.228 21.2275 200.438 23.0437 200.271 25.038H196.371C196.549 21.9707 197.774 19.1861 199.69 17.0296ZM196.371 26.5926H200.271C200.433 28.5868 201.228 30.4031 202.448 31.8425L199.69 34.601C197.774 32.4445 196.549 29.6598 196.371 26.5926ZM208.797 39.0187C205.73 38.8407 202.945 37.6159 200.789 35.7001L203.547 32.9417C204.987 34.1613 206.803 34.9517 208.797 35.1192V39.0187ZM201.542 25.8126C201.542 21.3792 205.138 17.7833 209.572 17.7833C214.005 17.7833 217.601 21.3792 217.601 25.8126C217.601 30.2461 214.005 33.842 209.572 33.842C205.138 33.842 201.542 30.2461 201.542 25.8126ZM210.352 39.0187V35.1192C212.346 34.9569 214.162 34.1613 215.602 32.9417L218.36 35.7001C216.204 37.6159 213.419 38.8407 210.352 39.0187ZM219.459 34.601L216.701 31.8425C217.92 30.4031 218.711 28.5868 218.878 26.5926H222.778C222.6 29.6598 221.375 32.4445 219.459 34.601ZM218.878 25.038C218.716 23.0437 217.92 21.2275 216.701 19.7881L219.459 17.0296C221.375 19.1861 222.6 21.9707 222.778 25.038H218.878Z" fill="#7DDACF"/>
<path d="M147.485 50.6574C133.745 50.6574 122.57 39.4771 122.57 25.7424C122.57 12.0077 133.75 0.827393 147.485 0.827393C161.219 0.827393 172.4 12.0077 172.4 25.7424C172.4 39.4771 161.219 50.6574 147.485 50.6574ZM147.485 2.48664C134.661 2.48664 124.229 12.9185 124.229 25.7424C124.229 38.5663 134.661 48.9981 147.485 48.9981C160.309 48.9981 170.741 38.5663 170.741 25.7424C170.741 12.9185 160.309 2.48664 147.485 2.48664Z" fill="#9DADF2"/>
<path d="M155.569 10.1862C155.443 10.1862 155.317 10.16 155.202 10.1025C152.789 8.90905 150.193 8.30188 147.487 8.30188C144.781 8.30188 142.185 8.90905 139.772 10.1025C139.452 10.2595 139.07 10.1967 138.819 9.94544L134.537 5.66383C134.354 5.48063 134.27 5.22938 134.302 4.97291C134.333 4.71643 134.48 4.49136 134.7 4.36051C138.557 2.04697 142.98 0.827393 147.492 0.827393C152.004 0.827393 156.427 2.05221 160.285 4.36051C160.505 4.49136 160.651 4.71643 160.682 4.97291C160.714 5.22938 160.625 5.48063 160.447 5.66383L156.165 9.94544C156.003 10.1025 155.794 10.1862 155.574 10.1862H155.569ZM147.487 6.64263C150.245 6.64263 152.904 7.21841 155.396 8.35424L158.495 5.25554C155.124 3.43926 151.339 2.48664 147.487 2.48664C143.635 2.48664 139.85 3.43926 136.479 5.25554L139.578 8.35424C142.07 7.21841 144.728 6.64263 147.487 6.64263Z" fill="#9DADF2"/>
<path d="M147.486 50.6573C142.974 50.6573 138.551 49.4325 134.694 47.1242C134.474 46.9933 134.327 46.7683 134.296 46.5118C134.264 46.2553 134.353 46.0041 134.531 45.8209L138.813 41.5393C139.064 41.288 139.452 41.2252 139.766 41.3822C142.179 42.5757 144.775 43.1828 147.481 43.1828C150.187 43.1828 152.783 42.5757 155.196 41.3822C155.515 41.2252 155.898 41.288 156.149 41.5393L160.43 45.8209C160.614 46.0041 160.697 46.2553 160.666 46.5118C160.634 46.7683 160.488 46.9933 160.268 47.1242C156.41 49.4377 151.988 50.6573 147.476 50.6573H147.486ZM136.478 46.2292C139.849 48.0454 143.634 48.9981 147.486 48.9981C151.338 48.9981 155.123 48.0454 158.494 46.2292L155.395 43.1305C152.904 44.2663 150.245 44.8421 147.486 44.8421C144.728 44.8421 142.069 44.2663 139.577 43.1305L136.478 46.2292Z" fill="#9DADF2"/>
<path d="M168.156 38.938C167.936 38.938 167.727 38.8542 167.57 38.6972L163.288 34.4156C163.037 34.1643 162.974 33.777 163.131 33.463C164.324 31.05 164.932 28.4538 164.932 25.7477C164.932 23.0416 164.324 20.4454 163.131 18.0324C162.974 17.7131 163.037 17.3258 163.288 17.0798L167.57 12.7982C167.753 12.615 168.004 12.5312 168.261 12.5626C168.517 12.594 168.742 12.7406 168.873 12.9604C171.187 16.8181 172.406 21.241 172.406 25.7529C172.406 30.2648 171.187 34.6878 168.873 38.5454C168.742 38.7653 168.517 38.9118 168.261 38.9432C168.224 38.9432 168.193 38.9432 168.156 38.9432V38.938ZM164.874 33.6514L167.973 36.7501C169.789 33.3792 170.742 29.5948 170.742 25.7424C170.742 21.89 169.789 18.1057 167.973 14.7348L164.874 17.8335C166.01 20.325 166.586 22.984 166.586 25.7424C166.586 28.5009 166.01 31.1599 164.874 33.6514Z" fill="#9DADF2"/>
<path d="M126.815 38.938C126.778 38.938 126.747 38.938 126.715 38.9327C126.459 38.9013 126.234 38.7548 126.103 38.5349C123.789 34.6773 122.57 30.2543 122.57 25.7424C122.57 21.2305 123.789 16.8076 126.103 12.9499C126.234 12.7301 126.459 12.5835 126.715 12.5521C126.972 12.5207 127.223 12.6097 127.406 12.7877L131.688 17.0693C131.939 17.3205 132.002 17.7079 131.845 18.0219C130.651 20.4349 130.044 23.0311 130.044 25.7372C130.044 28.4433 130.651 31.0395 131.845 33.4525C132.002 33.7717 131.939 34.1591 131.688 34.4051L127.406 38.6867C127.249 38.8437 127.04 38.9327 126.82 38.9327L126.815 38.938ZM126.998 14.7348C125.182 18.1057 124.229 21.89 124.229 25.7424C124.229 29.5948 125.182 33.3792 126.998 36.7501L130.097 33.6514C128.961 31.1599 128.385 28.5009 128.385 25.7424C128.385 22.984 128.961 20.325 130.097 17.8335L126.998 14.7348Z" fill="#9DADF2"/>
<path d="M147.485 6.63745C136.954 6.63745 128.38 15.2059 128.38 25.7424C128.38 36.279 136.949 44.8474 147.485 44.8474C158.022 44.8474 166.59 36.279 166.59 25.7424C166.59 15.2059 158.022 6.63745 147.485 6.63745ZM158.237 19.4666C159.142 21.0159 159.692 22.7066 159.87 24.5019C159.875 24.5752 159.843 24.6433 159.781 24.6799C158.414 25.5174 157.19 26.5433 156.132 27.7419C156.085 27.7995 156.007 27.8204 155.939 27.7943L153.578 27.0248C153.51 27.0039 153.463 26.9463 153.452 26.8731C153.185 24.9207 152.578 23.052 151.647 21.3143C151.615 21.2515 151.62 21.1782 151.662 21.1206L153.123 19.1107C153.159 19.0636 153.217 19.0321 153.274 19.0321C153.29 19.0321 153.301 19.0321 153.316 19.0321C154.876 19.3776 156.478 19.4928 158.069 19.3619C158.142 19.3567 158.21 19.3933 158.247 19.4561L158.237 19.4666ZM152.165 27.2028C152.17 27.2551 152.154 27.3075 152.123 27.3441C150.882 28.7731 149.302 29.9194 147.559 30.6522C147.512 30.6731 147.464 30.6731 147.417 30.6522C145.674 29.9141 144.094 28.7678 142.853 27.3441C142.822 27.3075 142.806 27.2551 142.811 27.2028C143.052 25.308 143.643 23.497 144.559 21.822C144.586 21.7749 144.627 21.7435 144.68 21.733C145.601 21.5394 146.543 21.4399 147.491 21.4399C148.438 21.4399 149.38 21.5394 150.301 21.733C150.354 21.7435 150.396 21.7749 150.422 21.822C151.338 23.497 151.924 25.308 152.17 27.2028H152.165ZM151.882 14.2114C151.882 14.2114 151.945 14.1591 152.008 14.1591C152.029 14.1591 152.055 14.1591 152.081 14.1748C154.007 14.939 155.729 16.1952 157.069 17.8021C157.137 17.8806 157.111 17.9644 157.095 17.9958C157.085 18.0219 157.038 18.1057 156.928 18.1057C155.74 18.1214 154.557 17.9853 153.411 17.7131C153.363 17.7027 153.322 17.6712 153.295 17.6294C152.683 16.6192 152.191 15.5304 151.835 14.3998C151.804 14.3004 151.861 14.2324 151.887 14.2114H151.882ZM144.842 13.5833C146.575 13.2117 148.401 13.2117 150.134 13.5833C150.202 13.599 150.26 13.6514 150.275 13.7194C150.647 15.274 151.249 16.7605 152.06 18.1371C152.097 18.1999 152.092 18.2784 152.05 18.3412L150.6 20.3407C150.558 20.3983 150.485 20.4297 150.417 20.414C148.501 20.0267 146.475 20.0267 144.559 20.414C144.491 20.4297 144.418 20.3983 144.376 20.3407L142.926 18.3412C142.884 18.2836 142.879 18.1999 142.916 18.1371C143.727 16.7605 144.329 15.274 144.701 13.7194C144.716 13.6514 144.774 13.599 144.842 13.5833ZM137.907 17.8021C139.247 16.19 140.969 14.9337 142.895 14.1748C142.921 14.1643 142.947 14.1591 142.968 14.1591C143.036 14.1591 143.078 14.1957 143.094 14.2114C143.12 14.2376 143.178 14.3004 143.146 14.3998C142.79 15.5357 142.298 16.6192 141.686 17.6294C141.66 17.6712 141.618 17.7027 141.571 17.7131C140.424 17.9853 139.241 18.1214 138.053 18.1057C137.943 18.1057 137.896 18.0219 137.886 17.9958C137.87 17.9644 137.844 17.8806 137.912 17.8021H137.907ZM136.739 19.4666C136.771 19.409 136.834 19.3724 136.902 19.3724C136.902 19.3724 136.912 19.3724 136.917 19.3724C138.514 19.498 140.116 19.3881 141.67 19.0426C141.743 19.0269 141.817 19.0531 141.859 19.1159L143.319 21.1258C143.361 21.1834 143.366 21.2619 143.335 21.3195C142.403 23.0573 141.796 24.9259 141.529 26.8783C141.518 26.9463 141.471 27.0039 141.403 27.0301L139.043 27.7995C138.974 27.8204 138.896 27.7995 138.849 27.7472C137.792 26.5485 136.567 25.5226 135.201 24.6851C135.143 24.6485 135.106 24.5805 135.112 24.5072C135.29 22.7118 135.839 21.0159 136.745 19.4718L136.739 19.4666ZM137.31 32.3638C137.279 32.4632 137.19 32.4842 137.153 32.4894C137.116 32.4894 137.033 32.4894 136.975 32.4056C135.86 30.6522 135.201 28.6213 135.07 26.5381C135.065 26.4334 135.133 26.381 135.164 26.3653C135.195 26.3496 135.279 26.313 135.363 26.3758C136.331 27.0615 137.211 27.8676 137.98 28.7626C138.011 28.7993 138.027 28.8464 138.022 28.8987C137.928 30.0764 137.687 31.2437 137.305 32.369L137.31 32.3638ZM142.481 37.1427C140.848 36.4256 139.409 35.3735 138.205 34.023C138.158 33.9707 138.142 33.8922 138.168 33.8294C138.781 32.3533 139.168 30.7987 139.32 29.2075C139.325 29.1342 139.378 29.0714 139.446 29.0505L141.78 28.2915C141.78 28.2915 141.817 28.281 141.838 28.281C141.89 28.281 141.937 28.302 141.974 28.3439C143.282 29.8095 144.921 31.0029 146.716 31.7932C146.784 31.8246 146.826 31.8875 146.826 31.9607V34.4156C146.826 34.4889 146.784 34.5569 146.716 34.5831C145.25 35.2164 143.889 36.0696 142.67 37.1112C142.618 37.1584 142.539 37.1688 142.476 37.1374L142.481 37.1427ZM150.715 37.6608C150.71 37.6975 150.684 37.7812 150.579 37.8074C148.558 38.3203 146.423 38.3203 144.402 37.8074C144.303 37.7812 144.272 37.6975 144.266 37.6608C144.261 37.6242 144.251 37.5405 144.34 37.4724C145.292 36.7658 146.329 36.1743 147.423 35.7189C147.47 35.698 147.517 35.698 147.564 35.7189C148.653 36.1743 149.689 36.7658 150.647 37.4724C150.731 37.5352 150.725 37.6242 150.72 37.6608H150.715ZM156.781 34.0283C155.578 35.3787 154.138 36.4256 152.505 37.1427C152.437 37.1741 152.364 37.1583 152.311 37.1165C151.092 36.0748 149.736 35.2217 148.265 34.5883C148.197 34.5569 148.155 34.4941 148.155 34.4208V31.966C148.155 31.8927 148.197 31.8246 148.265 31.7985C150.061 31.0081 151.704 29.8147 153.007 28.3491C153.044 28.3072 153.091 28.2863 153.144 28.2863C153.165 28.2863 153.18 28.2863 153.201 28.2968L155.536 29.0557C155.604 29.0767 155.656 29.1395 155.661 29.2128C155.813 30.804 156.2 32.3533 156.813 33.8346C156.839 33.8974 156.828 33.9759 156.776 34.0283H156.781ZM158.006 32.4109C157.949 32.4999 157.86 32.4999 157.828 32.4946C157.792 32.4946 157.708 32.4685 157.671 32.369C157.294 31.2437 157.054 30.0764 156.954 28.8987C156.954 28.8516 156.965 28.7993 156.996 28.7626C157.765 27.8676 158.645 27.0667 159.613 26.3758C159.65 26.3496 159.686 26.3392 159.718 26.3392C159.76 26.3392 159.791 26.3549 159.812 26.3653C159.843 26.381 159.917 26.4334 159.906 26.5381C159.775 28.6213 159.116 30.6522 158.001 32.4056L158.006 32.4109Z" fill="#9DADF2"/>
<path d="M85.9749 0.986921C99.7148 0.986921 110.895 12.1673 110.895 25.9072C110.895 39.6471 99.7148 50.8274 85.9749 50.8274C72.235 50.8274 61.0547 39.6471 61.0547 25.9072C61.0547 12.1673 72.235 0.986921 85.9749 0.986921ZM85.9749 49.0321C98.7256 49.0321 109.1 38.6578 109.1 25.9072C109.1 13.1565 98.7256 2.78226 85.9749 2.78226C73.2243 2.78226 62.85 13.1565 62.85 25.9072C62.85 38.6578 73.2243 49.0321 85.9749 49.0321Z" fill="#478BF9"/>
<path d="M25.0587 0.985681C25.5559 0.985681 25.9537 1.3887 25.9537 1.88072C25.9537 2.37274 25.5507 2.77578 25.0587 2.77578C12.308 2.77578 1.93377 13.1501 1.93377 25.9007C1.93377 38.6513 12.308 49.0256 25.0587 49.0256C25.5559 49.0256 25.9537 49.4286 25.9537 49.9206C25.9537 50.4127 25.5507 50.8157 25.0587 50.8157C11.3188 50.8157 0.138428 39.6353 0.138428 25.8954C0.138428 12.1555 11.3188 0.975202 25.0587 0.975202V0.985681Z" fill="#478BF9"/>
<path d="M81.1802 21.4994C81.1802 22.4154 81.8031 23.211 82.6929 23.4308L84.3835 23.8548V19.5051H83.1797C82.0805 19.5051 81.1854 20.4002 81.1854 21.4994H81.1802Z" fill="#478BF9"/>
<path d="M87.5755 32.2977H88.7794C89.8786 32.2977 90.7737 31.4026 90.7737 30.3034C90.7737 29.3874 90.1508 28.5918 89.261 28.372L87.5703 27.948V32.2977H87.5755Z" fill="#478BF9"/>
<path d="M85.98 5.62402C74.7996 5.62402 65.6973 14.7211 65.6973 25.9067C65.6973 37.0923 74.7944 46.1894 85.98 46.1894C97.1656 46.1894 106.263 37.0923 106.263 25.9067C106.263 14.7211 97.1656 5.62402 85.98 5.62402ZM93.9779 22.7034H90.7798V21.1017C90.7798 20.2223 90.0627 19.5 89.1781 19.5H87.5764V24.6505L90.0417 25.2682C92.3553 25.8492 93.9727 27.9167 93.9727 30.3035C93.9727 33.1666 91.6434 35.4959 88.7803 35.4959H87.5764V39.5472H84.3783V35.4959H82.7766C80.1281 35.4959 77.9768 33.3446 77.9768 30.6961V29.0944H81.1749V30.6961C81.1749 31.5754 81.892 32.2978 82.7766 32.2978H84.3783V27.1472L81.9129 26.5296C79.5994 25.9486 77.9821 23.8811 77.9821 21.4943C77.9821 18.6311 80.3113 16.3019 83.1744 16.3019H84.3783V12.2506H87.5764V16.3019H89.1781C91.8266 16.3019 93.9779 18.4532 93.9779 21.1017V22.7034Z" fill="#478BF9"/>
<path d="M24.6768 0.955746L84.8183 0.955746C85.3155 0.955746 85.7133 1.35876 85.7133 1.85078C85.7133 2.3428 85.3103 2.74585 84.8183 2.74585L24.6768 2.74585C24.1795 2.74585 23.7817 2.3428 23.7817 1.85078C23.7817 1.35876 24.1848 0.955746 24.6768 0.955746Z" fill="#478BF9"/>
<path d="M24.5459 48.998L84.6874 48.998C85.1847 48.998 85.5824 49.401 85.5824 49.8931C85.5824 50.3851 85.1794 50.7881 84.6874 50.7881L24.5459 50.7881C24.0487 50.7881 23.6509 50.3851 23.6509 49.8931C23.6509 49.401 24.0539 48.998 24.5459 48.998Z" fill="#478BF9"/>
</svg>
