<svg xmlns="http://www.w3.org/2000/svg" width="100" height="967" viewBox="0 0 100 967" fill="none">
    <path d="M49.8769 966.153C22.5542 966.153 0.331787 943.92 0.331787 916.608C0.331787 889.295 22.5646 867.062 49.8769 867.062C77.1891 867.062 99.422 889.295 99.422 916.608C99.422 943.92 77.1891 966.153 49.8769 966.153ZM49.8769 870.362C24.3757 870.362 3.63131 891.106 3.63131 916.608C3.63131 942.109 24.3757 962.853 49.8769 962.853C75.378 962.853 96.1224 942.109 96.1224 916.608C96.1224 891.106 75.378 870.362 49.8769 870.362Z" fill="#9DADF2"/>
    <path d="M65.9512 885.673C65.7014 885.673 65.4516 885.621 65.2226 885.507C60.4242 883.133 55.2616 881.926 49.8803 881.926C44.499 881.926 39.3364 883.133 34.538 885.507C33.9031 885.819 33.1432 885.694 32.6436 885.194L24.1293 876.68C23.765 876.316 23.5985 875.816 23.6609 875.306C23.7234 874.796 24.0149 874.349 24.452 874.088C32.1232 869.488 40.9185 867.062 49.8907 867.062C58.863 867.062 67.6583 869.498 75.3294 874.088C75.7666 874.349 76.058 874.796 76.1205 875.306C76.1829 875.816 76.006 876.316 75.6521 876.68L67.1378 885.194C66.8152 885.507 66.3988 885.673 65.9617 885.673H65.9512ZM49.8803 878.626C55.3657 878.626 60.6532 879.771 65.6077 882.03L71.7697 875.868C65.0665 872.256 57.5411 870.362 49.8803 870.362C42.2195 870.362 34.6941 872.256 27.991 875.868L34.1529 882.03C39.1074 879.771 44.395 878.626 49.8803 878.626Z" fill="#9DADF2"/>
    <path d="M49.8785 966.153C40.9063 966.153 32.111 963.717 24.4398 959.127C24.0026 958.867 23.7112 958.419 23.6487 957.909C23.5863 957.399 23.7632 956.899 24.1171 956.535L32.6314 948.021C33.131 947.521 33.9013 947.396 34.5258 947.709C39.3242 950.082 44.4868 951.289 49.8681 951.289C55.2494 951.289 60.4121 950.082 65.2105 947.709C65.8454 947.396 66.6052 947.521 67.1048 948.021L75.6191 956.535C75.9834 956.899 76.1499 957.399 76.0875 957.909C76.025 958.419 75.7336 958.867 75.2964 959.127C67.6252 963.727 58.83 966.153 49.8577 966.153H49.8785ZM27.9892 957.347C34.6923 960.959 42.2178 962.853 49.8785 962.853C57.5393 962.853 65.0647 960.959 71.7679 957.347L65.606 951.185C60.6514 953.444 55.3639 954.589 49.8785 954.589C44.3932 954.589 39.1056 953.444 34.1511 951.185L27.9892 957.347Z" fill="#9DADF2"/>
    <path d="M90.9825 942.848C90.5453 942.848 90.129 942.681 89.8167 942.369L81.3025 933.855C80.8028 933.355 80.678 932.585 80.9902 931.96C83.3634 927.162 84.5708 921.999 84.5708 916.618C84.5708 911.237 83.3634 906.074 80.9902 901.276C80.678 900.641 80.8028 899.87 81.3025 899.381L89.8167 890.867C90.181 890.503 90.6806 890.336 91.1907 890.399C91.7007 890.461 92.1482 890.752 92.4085 891.19C97.0091 898.861 99.4343 907.656 99.4343 916.628C99.4343 925.601 97.0091 934.396 92.4085 942.067C92.1482 942.504 91.7007 942.796 91.1907 942.858C91.1178 942.858 91.0553 942.858 90.9825 942.858V942.848ZM84.4563 932.335L90.6182 938.497C94.23 931.794 96.1243 924.268 96.1243 916.608C96.1243 908.947 94.23 901.421 90.6182 894.718L84.4563 900.88C86.715 905.835 87.8599 911.122 87.8599 916.608C87.8599 922.093 86.715 927.38 84.4563 932.335Z" fill="#9DADF2"/>
    <path d="M8.77298 942.848C8.70012 942.848 8.63766 942.848 8.57521 942.837C8.06519 942.775 7.61763 942.483 7.35742 942.046C2.7568 934.375 0.331589 925.58 0.331589 916.608C0.331589 907.635 2.7568 898.84 7.35742 891.169C7.61763 890.732 8.06519 890.44 8.57521 890.378C9.08523 890.315 9.58486 890.492 9.94916 890.846L18.4634 899.36C18.963 899.86 19.0879 900.63 18.7757 901.255C16.4025 906.053 15.1951 911.216 15.1951 916.597C15.1951 921.978 16.4025 927.141 18.7757 931.94C19.0879 932.574 18.963 933.345 18.4634 933.834L9.94916 942.348C9.6369 942.66 9.22056 942.837 8.7834 942.837L8.77298 942.848ZM9.13725 894.718C5.52546 901.421 3.63111 908.947 3.63111 916.608C3.63111 924.268 5.52546 931.794 9.13725 938.497L15.2992 932.335C13.0405 927.381 11.8956 922.093 11.8956 916.608C11.8956 911.122 13.0405 905.835 15.2992 900.88L9.13725 894.718Z" fill="#9DADF2"/>
    <path d="M49.878 878.616C28.9358 878.616 11.8865 895.655 11.8865 916.608C11.8865 937.56 28.9254 954.599 49.878 954.599C70.8306 954.599 87.8695 937.56 87.8695 916.608C87.8695 895.655 70.8306 878.616 49.878 878.616ZM71.2574 904.128C73.0581 907.209 74.151 910.571 74.5049 914.141C74.5153 914.287 74.4528 914.422 74.3279 914.495C71.6112 916.16 69.1756 918.2 67.0731 920.584C66.9794 920.698 66.8233 920.74 66.688 920.688L61.9937 919.158C61.8583 919.116 61.7647 919.002 61.7439 918.856C61.213 914.974 60.0056 911.258 58.1529 907.802C58.0904 907.677 58.1009 907.531 58.1841 907.417L61.0881 903.42C61.161 903.326 61.2754 903.264 61.3899 903.264C61.4212 903.264 61.442 903.264 61.4732 903.264C64.575 903.951 67.7601 904.18 70.9243 903.92C71.07 903.909 71.2053 903.982 71.2781 904.107L71.2574 904.128ZM59.1833 919.512C59.1937 919.616 59.1625 919.72 59.1 919.793C56.6332 922.634 53.4898 924.914 50.0237 926.371C49.9301 926.413 49.8364 926.413 49.7427 926.371C46.2766 924.903 43.1332 922.624 40.6664 919.793C40.6039 919.72 40.5727 919.616 40.5831 919.512C41.0619 915.744 42.2381 912.142 44.0596 908.812C44.1116 908.718 44.1949 908.656 44.299 908.635C46.1309 908.25 48.0044 908.052 49.8884 908.052C51.7724 908.052 53.6459 908.25 55.4778 908.635C55.5819 908.656 55.6652 908.718 55.7172 908.812C57.5387 912.142 58.7045 915.744 59.1937 919.512H59.1833ZM58.6213 893.678C58.6213 893.678 58.7462 893.573 58.8711 893.573C58.9127 893.573 58.9648 893.573 59.0168 893.605C62.8472 895.124 66.2716 897.622 68.9362 900.818C69.0715 900.974 69.0195 901.141 68.9882 901.203C68.9674 901.255 68.8738 901.422 68.6552 901.422C66.2925 901.453 63.9401 901.182 61.6606 900.641C61.5669 900.62 61.4837 900.558 61.4316 900.474C60.2138 898.465 59.2354 896.3 58.5276 894.052C58.4651 893.854 58.5796 893.719 58.6317 893.678H58.6213ZM44.6216 892.428C48.0669 891.689 51.6995 891.689 55.1448 892.428C55.2801 892.46 55.3946 892.564 55.4258 892.699C56.1648 895.79 57.3618 898.747 58.9751 901.484C59.048 901.609 59.0376 901.765 58.9544 901.89L56.0711 905.866C55.9879 905.981 55.8422 906.043 55.7069 906.012C51.8973 905.242 47.8692 905.242 44.0596 906.012C43.9243 906.043 43.7785 905.981 43.6953 905.866L40.8121 901.89C40.7288 901.775 40.7184 901.609 40.7913 901.484C42.4046 898.747 43.6016 895.79 44.3406 892.699C44.3718 892.564 44.4863 892.46 44.6216 892.428ZM30.8302 900.818C33.4948 897.612 36.9193 895.114 40.7497 893.605C40.8017 893.584 40.8537 893.573 40.8953 893.573C41.0306 893.573 41.1139 893.646 41.1451 893.678C41.1972 893.73 41.3117 893.854 41.2493 894.052C40.5415 896.311 39.563 898.465 38.3452 900.474C38.2932 900.558 38.2099 900.62 38.1162 900.641C35.8368 901.182 33.4844 901.453 31.1217 901.422C30.9031 901.422 30.8094 901.255 30.7886 901.203C30.7574 901.141 30.7053 900.974 30.8406 900.818H30.8302ZM28.5091 904.128C28.5715 904.013 28.6965 903.94 28.8318 903.94C28.8318 903.94 28.8525 903.94 28.863 903.94C32.0376 904.19 35.2226 903.972 38.314 903.285C38.4597 903.253 38.6054 903.306 38.6887 903.43L41.5928 907.427C41.676 907.542 41.6864 907.698 41.624 907.812C39.7712 911.268 38.5638 914.984 38.033 918.866C38.0121 919.002 37.9185 919.116 37.7832 919.168L33.0889 920.698C32.9535 920.74 32.7974 920.698 32.7037 920.594C30.6012 918.211 28.1656 916.171 25.449 914.505C25.3345 914.432 25.2616 914.297 25.272 914.151C25.6259 910.581 26.7188 907.209 28.5195 904.138L28.5091 904.128ZM29.6436 929.775C29.5812 929.972 29.4042 930.014 29.3314 930.024C29.2585 930.024 29.0919 930.024 28.9774 929.858C26.7604 926.371 25.449 922.332 25.1887 918.19C25.1783 917.982 25.3136 917.878 25.3761 917.846C25.4385 917.815 25.6051 917.742 25.7716 917.867C27.6972 919.231 29.4459 920.834 30.9759 922.614C31.0384 922.686 31.0696 922.78 31.0592 922.884C30.8718 925.226 30.393 927.547 29.6332 929.785L29.6436 929.775ZM39.9273 939.278C36.6798 937.852 33.8175 935.76 31.4235 933.074C31.3298 932.97 31.2986 932.814 31.3506 932.689C32.5684 929.754 33.3387 926.662 33.6405 923.498C33.651 923.353 33.755 923.228 33.8903 923.186L38.5326 921.677C38.5326 921.677 38.6055 921.656 38.6471 921.656C38.7512 921.656 38.8449 921.698 38.9177 921.781C41.5199 924.695 44.7778 927.068 48.348 928.64C48.4833 928.703 48.5665 928.827 48.5665 928.973V933.855C48.5665 934.001 48.4833 934.136 48.348 934.188C45.4335 935.447 42.7272 937.144 40.302 939.215C40.1979 939.309 40.0418 939.33 39.9169 939.267L39.9273 939.278ZM56.3001 940.308C56.2897 940.381 56.2377 940.548 56.0295 940.6C52.0118 941.62 47.765 941.62 43.7473 940.6C43.5495 940.548 43.4871 940.381 43.4767 940.308C43.4663 940.235 43.4454 940.069 43.6224 939.934C45.5168 938.528 47.5777 937.352 49.7531 936.447C49.8468 936.405 49.9405 936.405 50.0341 936.447C52.1991 937.352 54.2601 938.528 56.1648 939.934C56.3314 940.058 56.3209 940.235 56.3105 940.308H56.3001ZM68.3637 933.085C65.9698 935.77 63.1074 937.852 59.8599 939.278C59.7246 939.34 59.5789 939.309 59.4748 939.226C57.0496 937.154 54.3537 935.458 51.4289 934.198C51.2936 934.136 51.2103 934.011 51.2103 933.865V928.984C51.2103 928.838 51.2936 928.703 51.4289 928.651C54.999 927.079 58.2673 924.706 60.8591 921.791C60.932 921.708 61.0256 921.666 61.1297 921.666C61.1714 921.666 61.2026 921.666 61.2442 921.687L65.8865 923.196C66.0218 923.238 66.1259 923.363 66.1363 923.509C66.4381 926.673 67.2084 929.754 68.4262 932.7C68.4782 932.824 68.4574 932.981 68.3533 933.085H68.3637ZM70.7994 929.868C70.6849 930.045 70.5079 930.045 70.4455 930.035C70.3726 930.035 70.2061 929.983 70.1332 929.785C69.3838 927.547 68.905 925.226 68.7072 922.884C68.7072 922.79 68.728 922.686 68.7905 922.614C70.3205 920.834 72.0692 919.241 73.9948 917.867C74.0676 917.815 74.1405 917.794 74.203 917.794C74.2862 917.794 74.3487 917.826 74.3903 917.846C74.4528 917.878 74.5985 917.982 74.5777 918.19C74.3175 922.332 73.006 926.371 70.789 929.858L70.7994 929.868Z" fill="#9DADF2"/>
    <path d="M99.1109 794.285C99.1109 821.608 76.878 843.841 49.5554 843.841C22.2327 843.841 -0.00012207 821.608 -0.00012207 794.285C-0.00012207 766.963 22.2327 744.73 49.5554 744.73C76.878 744.73 99.1109 766.963 99.1109 794.285ZM3.57003 794.285C3.57003 819.641 24.1999 840.271 49.5554 840.271C74.9108 840.271 95.5407 819.641 95.5407 794.285C95.5407 768.93 74.9108 748.3 49.5554 748.3C24.1999 748.3 3.57003 768.93 3.57003 794.285Z" fill="#478BF9"/>
    <path d="M99.1135 673.149C99.1135 674.138 98.312 674.929 97.3336 674.929C96.3552 674.929 95.5537 674.128 95.5537 673.149C95.5537 647.794 74.9238 627.164 49.5684 627.164C24.213 627.164 3.58305 647.794 3.58305 673.149C3.58305 674.138 2.78156 674.929 1.80315 674.929C0.82474 674.929 0.0233154 674.128 0.0233154 673.149C0.0233154 645.827 22.2561 623.594 49.5788 623.594C76.9015 623.594 99.1343 645.827 99.1343 673.149H99.1135Z" fill="#478BF9"/>
    <path d="M40.0118 785.532C40.0118 787.353 41.2505 788.935 43.0199 789.372L46.3819 790.215V781.566H43.9879C41.8021 781.566 40.0223 783.346 40.0223 785.532H40.0118Z" fill="#478BF9"/>
    <path d="M52.7292 807.005H55.1233C57.3091 807.005 59.0889 805.225 59.0889 803.039C59.0889 801.217 57.8503 799.635 56.0808 799.198L52.7189 798.355V807.005H52.7292Z" fill="#478BF9"/>
    <path d="M49.5562 753.962C27.3234 753.962 9.22277 772.052 9.22277 794.296C9.22277 816.539 27.313 834.629 49.5562 834.629C71.7995 834.629 89.8897 816.539 89.8897 794.296C89.8897 772.052 71.7995 753.962 49.5562 753.962ZM65.4607 787.926H59.1009V784.74C59.1009 782.992 57.675 781.555 55.9159 781.555H52.7309V791.798L57.6333 793.026C62.234 794.181 65.4502 798.293 65.4502 803.039C65.4502 808.732 60.8184 813.364 55.1249 813.364H52.7309V821.421H46.3712V813.364H43.1862C37.9194 813.364 33.6415 809.086 33.6415 803.82V800.635H40.0011V803.82C40.0011 805.568 41.4271 807.005 43.1862 807.005H46.3712V796.762L41.4687 795.534C36.8681 794.379 33.6519 790.267 33.6519 785.521C33.6519 779.828 38.2837 775.196 43.9772 775.196H46.3712V767.14H52.7309V775.196H55.9159C61.1827 775.196 65.4607 779.474 65.4607 784.74V787.926Z" fill="#478BF9"/>
    <path d="M99.1729 672.39V791.985C99.1729 792.974 98.3715 793.765 97.3931 793.765C96.4146 793.765 95.6132 792.963 95.6132 791.985V672.39C95.6132 671.401 96.4146 670.61 97.3931 670.61C98.3715 670.61 99.1729 671.411 99.1729 672.39Z" fill="#478BF9"/>
    <path d="M3.63774 672.129V791.725C3.63774 792.714 2.83625 793.505 1.85784 793.505C0.879427 793.505 0.0780029 792.703 0.0780029 791.725V672.129C0.0780029 671.141 0.879427 670.35 1.85784 670.35C2.83625 670.35 3.63774 671.151 3.63774 672.129Z" fill="#478BF9"/>
    <path d="M49.7325 593C37.0339 593 24.3458 588.171 14.6762 578.501C-4.65264 559.172 -4.65264 527.728 14.6762 508.399C24.044 499.031 36.4927 493.879 49.7325 493.879C62.9722 493.879 75.421 499.031 84.7888 508.399C104.118 527.728 104.118 559.172 84.7888 578.501C75.1296 588.16 62.431 593 49.7325 593ZM17.2784 575.899C35.1708 593.791 64.2838 593.791 82.1762 575.899C100.069 558.006 100.069 528.893 82.1762 511.001C73.5058 502.33 61.9835 497.563 49.7221 497.563C37.4607 497.563 25.9383 502.341 17.2679 511.001C-0.624513 528.893 -0.624513 558.006 17.2679 575.899H17.2784Z" fill="#9DADF2"/>
    <path d="M49.0769 561.993C49.2538 562.42 49.6701 562.669 50.1073 562.669C50.253 562.669 50.3987 562.638 50.5445 562.586C54.0418 561.118 57.2268 558.849 59.7457 556.018C60.1517 555.56 60.11 554.853 59.652 554.447C59.194 554.041 58.4862 554.082 58.0803 554.54C55.78 557.132 52.876 559.203 49.6805 560.536C49.1185 560.775 48.8478 561.431 49.0872 561.993H49.0769Z" fill="#9DADF2"/>
    <path d="M68.6225 526.312L50.1368 518.922C49.8661 518.818 49.5747 518.818 49.3041 518.922L30.8183 526.312C30.3916 526.479 30.121 526.884 30.121 527.342V540.582C30.1418 552.802 37.865 563.846 49.3353 568.051C49.4602 568.092 49.5851 568.113 49.7204 568.113C49.8558 568.113 49.9807 568.092 50.1056 568.051C61.5759 563.835 69.299 552.802 69.3199 540.582V527.342C69.3199 526.884 69.0493 526.479 68.6225 526.312ZM67.0925 540.582C67.0716 551.699 60.0978 561.826 49.7308 565.813C39.3638 561.826 32.3796 551.699 32.3588 540.582V528.102L49.7308 521.16L67.0925 528.102V540.582Z" fill="#9DADF2"/>
    <path d="M42.0083 528.05C41.7376 527.936 41.4358 527.936 41.1548 528.05L36.7519 529.809C36.3252 529.976 36.0546 530.382 36.0546 530.84V535.534C36.0546 536.148 36.5542 536.648 37.1683 536.648C37.7824 536.648 38.282 536.148 38.282 535.534V531.6L41.9771 530.122C42.2581 530.007 42.4663 529.799 42.5912 529.518C42.7056 529.247 42.7056 528.945 42.5912 528.664C42.4767 528.383 42.2685 528.175 41.9979 528.05H42.0083Z" fill="#9DADF2"/>
    <path d="M77.8876 515.3C70.3726 507.774 60.3698 503.642 49.7322 503.642C39.0946 503.642 29.1023 507.785 21.5768 515.3C6.05756 530.819 6.05756 556.081 21.5768 571.611C29.3417 579.375 39.5317 583.247 49.7322 583.247C59.9326 583.247 70.1227 579.365 77.8876 571.611C93.4069 556.091 93.4069 530.829 77.8876 515.3ZM72.3814 540.582C72.4126 554.707 63.3883 567.062 49.9299 571.34C49.805 571.382 49.6697 571.382 49.5344 571.34C36.076 567.062 27.0518 554.707 27.083 540.582V524.959C27.083 524.699 27.2391 524.459 27.4889 524.355L49.4928 515.56C49.5657 515.529 49.6489 515.518 49.7322 515.518C49.8154 515.518 49.8988 515.529 49.9716 515.56L71.9755 524.366C72.2253 524.459 72.3814 524.699 72.3814 524.969V540.593V540.582Z" fill="#9DADF2"/>
    <path d="M49.7325 466.39C22.4098 466.39 0.187378 444.157 0.187378 416.844C0.187378 389.532 22.4202 367.299 49.7325 367.299C77.0447 367.299 99.2776 389.532 99.2776 416.844C99.2776 444.157 77.0447 466.39 49.7325 466.39ZM49.7325 370.599C24.2313 370.599 3.4869 391.343 3.4869 416.844C3.4869 442.346 24.2313 463.09 49.7325 463.09C75.2336 463.09 95.9781 442.346 95.9781 416.844C95.9781 391.343 75.2336 370.599 49.7325 370.599Z" fill="#7DDACF"/>
    <path d="M82.0647 381.491L66.7264 396.829L69.7441 399.847L85.0823 384.509L82.0647 381.491Z" fill="#7DDACF"/>
    <path d="M29.2638 434.29L13.9255 449.628L16.9431 452.646L32.2813 437.308L29.2638 434.29Z" fill="#7DDACF"/>
    <path d="M70.1932 434.298L67.1757 437.315L82.5139 452.653L85.5315 449.636L70.1932 434.298Z" fill="#7DDACF"/>
    <path d="M16.9393 381.037L13.9218 384.054L29.2527 399.385L32.2703 396.368L16.9393 381.037Z" fill="#7DDACF"/>
    <path d="M61.8166 418.177C62.8158 417.178 62.8158 415.564 61.8166 414.575L59.6932 412.462C58.694 411.463 57.0807 411.463 56.0919 412.462L54.9469 413.607L53.625 412.285C52.6258 411.286 51.0124 411.286 50.0236 412.285L48.8787 413.441L47.5568 412.109C46.5575 411.109 44.9442 411.109 43.9554 412.109L36.9295 419.134C36.8775 419.186 36.8775 419.27 36.9295 419.332C37.8663 420.269 39.3964 420.269 40.3436 419.332L44.8713 414.804C45.3605 414.315 46.1516 414.315 46.6408 414.804L46.9739 415.138C47.0363 415.2 47.0363 415.294 46.9739 415.356L43.1956 419.134C43.1435 419.186 43.1435 419.27 43.1956 419.332C44.1323 420.269 45.6624 420.269 46.6096 419.332L50.95 414.992C51.4392 414.503 52.2303 414.503 52.7195 414.992L53.0525 415.325C53.1045 415.377 53.1045 415.46 53.0525 415.523L49.4095 419.166C49.3574 419.218 49.3574 419.301 49.4095 419.363C50.3463 420.3 51.8764 420.3 52.8235 419.363L57.0182 415.169C57.5074 414.679 58.2985 414.679 58.7877 415.169L59.5059 415.887C59.7869 416.168 59.7869 416.636 59.5059 416.917L59.3914 417.032C59.1104 417.313 58.642 417.313 58.3609 417.032L57.4346 416.105C57.3825 416.053 57.2992 416.053 57.2368 416.105L55.6339 417.708C55.5818 417.76 55.5818 417.844 55.6339 417.906L57.0806 419.353C58.0799 420.352 59.6932 420.352 60.682 419.353L61.827 418.208L61.8166 418.177Z" fill="#7DDACF"/>
    <path d="M49.7336 378.853C28.7498 378.853 11.7421 395.861 11.7421 416.845C11.7421 437.828 28.7498 454.836 49.7336 454.836C70.7174 454.836 87.7251 437.828 87.7251 416.845C87.7251 395.861 70.7174 378.853 49.7336 378.853ZM51.2845 390.584C57.384 390.937 62.9214 393.373 67.2097 397.183L61.7244 402.668C58.862 400.243 55.2502 398.671 51.2845 398.338V390.584ZM48.1931 390.584V398.338C44.2274 398.661 40.6157 400.243 37.7533 402.668L32.2679 397.183C36.5563 393.373 42.0937 390.937 48.1931 390.584ZM30.0821 399.368L35.5674 404.854C33.1422 407.716 31.5706 411.328 31.2375 415.294H23.483C23.8369 409.194 26.2726 403.657 30.0821 399.368ZM23.483 418.385H31.2375C31.5601 422.351 33.1422 425.963 35.5674 428.825L30.0821 434.31C26.2726 430.022 23.8369 424.485 23.483 418.385ZM48.1931 443.095C42.0937 442.741 36.5563 440.306 32.2679 436.496L37.7533 431.011C40.6157 433.436 44.2274 435.008 48.1931 435.341V443.095ZM33.7668 416.834C33.7668 408.018 40.9175 400.867 49.7336 400.867C58.5497 400.867 65.7005 408.018 65.7005 416.834C65.7005 425.65 58.5497 432.801 49.7336 432.801C40.9175 432.801 33.7668 425.65 33.7668 416.834ZM51.2845 443.095V435.341C55.2502 435.018 58.862 433.436 61.7244 431.011L67.2097 436.496C62.9214 440.306 57.384 442.741 51.2845 443.095ZM69.3955 434.31L63.9102 428.825C66.3354 425.963 67.9071 422.351 68.2402 418.385H75.9946C75.6407 424.485 73.2051 430.022 69.3955 434.31ZM68.2402 415.294C67.9175 411.328 66.3354 407.716 63.9102 404.854L69.3955 399.368C73.2051 403.657 75.6407 409.194 75.9946 415.294H68.2402Z" fill="#7DDACF"/>
    <path d="M49.8769 342.932C22.5542 342.932 0.331787 320.7 0.331787 293.387C0.331787 266.075 22.5646 243.842 49.8769 243.842C77.1891 243.842 99.422 266.075 99.422 293.387C99.422 320.7 77.1891 342.932 49.8769 342.932ZM49.8769 247.142C24.3757 247.142 3.63131 267.886 3.63131 293.387C3.63131 318.889 24.3757 339.633 49.8769 339.633C75.378 339.633 96.1224 318.889 96.1224 293.387C96.1224 267.886 75.378 247.142 49.8769 247.142Z" fill="#9DADF2"/>
    <path d="M65.9512 262.453C65.7014 262.453 65.4516 262.401 65.2226 262.286C60.4242 259.913 55.2616 258.706 49.8803 258.706C44.499 258.706 39.3364 259.913 34.538 262.286C33.9031 262.599 33.1432 262.474 32.6436 261.974L24.1293 253.46C23.765 253.096 23.5985 252.596 23.6609 252.086C23.7234 251.576 24.0149 251.128 24.452 250.868C32.1232 246.267 40.9185 243.842 49.8907 243.842C58.863 243.842 67.6583 246.278 75.3294 250.868C75.7666 251.128 76.058 251.576 76.1205 252.086C76.1829 252.596 76.006 253.096 75.6521 253.46L67.1378 261.974C66.8152 262.286 66.3988 262.453 65.9617 262.453H65.9512ZM49.8803 255.406C55.3657 255.406 60.6532 256.551 65.6077 258.81L71.7697 252.648C65.0665 249.036 57.5411 247.142 49.8803 247.142C42.2195 247.142 34.6941 249.036 27.991 252.648L34.1529 258.81C39.1074 256.551 44.395 255.406 49.8803 255.406Z" fill="#9DADF2"/>
    <path d="M49.8785 342.932C40.9063 342.932 32.111 340.497 24.4398 335.907C24.0026 335.646 23.7112 335.199 23.6487 334.689C23.5863 334.179 23.7632 333.679 24.1171 333.315L32.6314 324.801C33.131 324.301 33.9013 324.176 34.5258 324.488C39.3242 326.862 44.4868 328.069 49.8681 328.069C55.2494 328.069 60.4121 326.862 65.2105 324.488C65.8454 324.176 66.6052 324.301 67.1048 324.801L75.6191 333.315C75.9834 333.679 76.1499 334.179 76.0875 334.689C76.025 335.199 75.7336 335.646 75.2964 335.907C67.6252 340.507 58.83 342.932 49.8577 342.932H49.8785ZM27.9892 334.127C34.6923 337.739 42.2178 339.633 49.8785 339.633C57.5393 339.633 65.0647 337.739 71.7679 334.127L65.606 327.965C60.6514 330.224 55.3639 331.368 49.8785 331.368C44.3932 331.368 39.1056 330.224 34.1511 327.965L27.9892 334.127Z" fill="#9DADF2"/>
    <path d="M90.9825 319.628C90.5453 319.628 90.129 319.461 89.8167 319.149L81.3025 310.634C80.8028 310.135 80.678 309.365 80.9902 308.74C83.3634 303.942 84.5708 298.779 84.5708 293.398C84.5708 288.016 83.3634 282.854 80.9902 278.055C80.678 277.42 80.8028 276.65 81.3025 276.161L89.8167 267.647C90.181 267.282 90.6806 267.116 91.1907 267.178C91.7007 267.241 92.1482 267.532 92.4085 267.969C97.0091 275.641 99.4343 284.436 99.4343 293.408C99.4343 302.38 97.0091 311.176 92.4085 318.847C92.1482 319.284 91.7007 319.575 91.1907 319.638C91.1178 319.638 91.0553 319.638 90.9825 319.638V319.628ZM84.4563 309.115L90.6182 315.277C94.23 308.574 96.1243 301.048 96.1243 293.387C96.1243 285.727 94.23 278.201 90.6182 271.498L84.4563 277.66C86.715 282.614 87.8599 287.902 87.8599 293.387C87.8599 298.873 86.715 304.16 84.4563 309.115Z" fill="#9DADF2"/>
    <path d="M8.77298 319.628C8.70012 319.628 8.63766 319.628 8.57521 319.617C8.06519 319.555 7.61763 319.263 7.35742 318.826C2.7568 311.155 0.331589 302.36 0.331589 293.387C0.331589 284.415 2.7568 275.62 7.35742 267.949C7.61763 267.512 8.06519 267.22 8.57521 267.158C9.08523 267.095 9.58486 267.272 9.94916 267.626L18.4634 276.14C18.963 276.64 19.0879 277.41 18.7757 278.035C16.4025 282.833 15.1951 287.996 15.1951 293.377C15.1951 298.758 16.4025 303.921 18.7757 308.719C19.0879 309.354 18.963 310.124 18.4634 310.614L9.94916 319.128C9.6369 319.44 9.22056 319.617 8.7834 319.617L8.77298 319.628ZM9.13725 271.498C5.52546 278.201 3.63111 285.727 3.63111 293.387C3.63111 301.048 5.52546 308.574 9.13725 315.277L15.2992 309.115C13.0405 304.16 11.8956 298.873 11.8956 293.387C11.8956 287.902 13.0405 282.614 15.2992 277.66L9.13725 271.498Z" fill="#9DADF2"/>
    <path d="M49.878 255.396C28.9358 255.396 11.8865 272.435 11.8865 293.387C11.8865 314.34 28.9254 331.379 49.878 331.379C70.8306 331.379 87.8695 314.34 87.8695 293.387C87.8695 272.435 70.8306 255.396 49.878 255.396ZM71.2574 280.907C73.0581 283.988 74.151 287.35 74.5049 290.92C74.5153 291.066 74.4528 291.201 74.3279 291.274C71.6112 292.94 69.1756 294.98 67.0731 297.363C66.9794 297.478 66.8233 297.519 66.688 297.467L61.9937 295.937C61.8583 295.896 61.7647 295.781 61.7439 295.636C61.213 291.753 60.0056 288.037 58.1529 284.582C58.0904 284.457 58.1009 284.311 58.1841 284.196L61.0881 280.2C61.161 280.106 61.2754 280.043 61.3899 280.043C61.4212 280.043 61.442 280.043 61.4732 280.043C64.575 280.73 67.7601 280.959 70.9243 280.699C71.07 280.689 71.2053 280.762 71.2781 280.886L71.2574 280.907ZM59.1833 296.291C59.1937 296.395 59.1625 296.499 59.1 296.572C56.6332 299.414 53.4898 301.693 50.0237 303.151C49.9301 303.192 49.8364 303.192 49.7427 303.151C46.2766 301.683 43.1332 299.403 40.6664 296.572C40.6039 296.499 40.5727 296.395 40.5831 296.291C41.0619 292.523 42.2381 288.922 44.0596 285.591C44.1116 285.498 44.1949 285.435 44.299 285.414C46.1309 285.029 48.0044 284.831 49.8884 284.831C51.7724 284.831 53.6459 285.029 55.4778 285.414C55.5819 285.435 55.6652 285.498 55.7172 285.591C57.5387 288.922 58.7045 292.523 59.1937 296.291H59.1833ZM58.6213 270.457C58.6213 270.457 58.7462 270.353 58.8711 270.353C58.9127 270.353 58.9648 270.353 59.0168 270.384C62.8472 271.904 66.2716 274.402 68.9362 277.597C69.0715 277.754 69.0195 277.92 68.9882 277.983C68.9674 278.035 68.8738 278.201 68.6552 278.201C66.2925 278.232 63.9401 277.962 61.6606 277.42C61.5669 277.4 61.4837 277.337 61.4316 277.254C60.2138 275.245 59.2354 273.08 58.5276 270.832C58.4651 270.634 58.5796 270.499 58.6317 270.457H58.6213ZM44.6216 269.208C48.0669 268.469 51.6995 268.469 55.1448 269.208C55.2801 269.239 55.3946 269.343 55.4258 269.479C56.1648 272.57 57.3618 275.526 58.9751 278.264C59.048 278.388 59.0376 278.545 58.9544 278.669L56.0711 282.646C55.9879 282.76 55.8422 282.823 55.7069 282.791C51.8973 282.021 47.8692 282.021 44.0596 282.791C43.9243 282.823 43.7785 282.76 43.6953 282.646L40.8121 278.669C40.7288 278.555 40.7184 278.388 40.7913 278.264C42.4046 275.526 43.6016 272.57 44.3406 269.479C44.3718 269.343 44.4863 269.239 44.6216 269.208ZM30.8302 277.597C33.4948 274.392 36.9193 271.893 40.7497 270.384C40.8017 270.363 40.8537 270.353 40.8953 270.353C41.0306 270.353 41.1139 270.426 41.1451 270.457C41.1972 270.509 41.3117 270.634 41.2493 270.832C40.5415 273.09 39.563 275.245 38.3452 277.254C38.2932 277.337 38.2099 277.4 38.1162 277.42C35.8368 277.962 33.4844 278.232 31.1217 278.201C30.9031 278.201 30.8094 278.035 30.7886 277.983C30.7574 277.92 30.7053 277.754 30.8406 277.597H30.8302ZM28.5091 280.907C28.5715 280.793 28.6965 280.72 28.8318 280.72C28.8318 280.72 28.8525 280.72 28.863 280.72C32.0376 280.97 35.2226 280.751 38.314 280.064C38.4597 280.033 38.6054 280.085 38.6887 280.21L41.5928 284.207C41.676 284.321 41.6864 284.477 41.624 284.592C39.7712 288.048 38.5638 291.764 38.033 295.646C38.0121 295.781 37.9185 295.896 37.7832 295.948L33.0889 297.478C32.9535 297.519 32.7974 297.478 32.7037 297.374C30.6012 294.99 28.1656 292.95 25.449 291.285C25.3345 291.212 25.2616 291.077 25.272 290.931C25.6259 287.361 26.7188 283.988 28.5195 280.918L28.5091 280.907ZM29.6436 306.554C29.5812 306.752 29.4042 306.794 29.3314 306.804C29.2585 306.804 29.0919 306.804 28.9774 306.637C26.7604 303.151 25.449 299.112 25.1887 294.969C25.1783 294.761 25.3136 294.657 25.3761 294.626C25.4385 294.595 25.6051 294.522 25.7716 294.647C27.6972 296.01 29.4459 297.613 30.9759 299.393C31.0384 299.466 31.0696 299.56 31.0592 299.664C30.8718 302.006 30.393 304.327 29.6332 306.565L29.6436 306.554ZM39.9273 316.057C36.6798 314.631 33.8175 312.539 31.4235 309.854C31.3298 309.75 31.2986 309.594 31.3506 309.469C32.5684 306.533 33.3387 303.442 33.6405 300.278C33.651 300.132 33.755 300.007 33.8903 299.966L38.5326 298.456C38.5326 298.456 38.6055 298.435 38.6471 298.435C38.7512 298.435 38.8449 298.477 38.9177 298.56C41.5199 301.475 44.7778 303.848 48.348 305.42C48.4833 305.482 48.5665 305.607 48.5665 305.753V310.634C48.5665 310.78 48.4833 310.915 48.348 310.967C45.4335 312.227 42.7272 313.924 40.302 315.995C40.1979 316.089 40.0418 316.109 39.9169 316.047L39.9273 316.057ZM56.3001 317.088C56.2897 317.161 56.2377 317.327 56.0295 317.379C52.0118 318.399 47.765 318.399 43.7473 317.379C43.5495 317.327 43.4871 317.161 43.4767 317.088C43.4663 317.015 43.4454 316.848 43.6224 316.713C45.5168 315.308 47.5777 314.132 49.7531 313.226C49.8468 313.184 49.9405 313.184 50.0341 313.226C52.1991 314.132 54.2601 315.308 56.1648 316.713C56.3314 316.838 56.3209 317.015 56.3105 317.088H56.3001ZM68.3637 309.864C65.9698 312.55 63.1074 314.631 59.8599 316.057C59.7246 316.12 59.5789 316.088 59.4748 316.005C57.0496 313.934 54.3537 312.237 51.4289 310.978C51.2936 310.915 51.2103 310.791 51.2103 310.645V305.763C51.2103 305.617 51.2936 305.482 51.4289 305.43C54.999 303.858 58.2673 301.485 60.8591 298.571C60.932 298.487 61.0256 298.446 61.1297 298.446C61.1714 298.446 61.2026 298.446 61.2442 298.467L65.8865 299.976C66.0218 300.018 66.1259 300.142 66.1363 300.288C66.4381 303.452 67.2084 306.533 68.4262 309.479C68.4782 309.604 68.4574 309.76 68.3533 309.864H68.3637ZM70.7994 306.648C70.6849 306.825 70.5079 306.825 70.4455 306.814C70.3726 306.814 70.2061 306.762 70.1332 306.565C69.3838 304.327 68.905 302.006 68.7072 299.664C68.7072 299.57 68.728 299.466 68.7905 299.393C70.3205 297.613 72.0692 296.021 73.9948 294.647C74.0676 294.595 74.1405 294.574 74.203 294.574C74.2862 294.574 74.3487 294.605 74.3903 294.626C74.4528 294.657 74.5985 294.761 74.5777 294.969C74.3175 299.112 73.006 303.151 70.789 306.637L70.7994 306.648Z" fill="#9DADF2"/>
    <path d="M99.1109 171.065C99.1109 198.388 76.878 220.621 49.5554 220.621C22.2327 220.621 -0.00012207 198.388 -0.00012207 171.065C-0.00012207 143.743 22.2327 121.51 49.5554 121.51C76.878 121.51 99.1109 143.743 99.1109 171.065ZM3.57003 171.065C3.57003 196.421 24.1999 217.051 49.5554 217.051C74.9108 217.051 95.5407 196.421 95.5407 171.065C95.5407 145.71 74.9108 125.08 49.5554 125.08C24.1999 125.08 3.57003 145.71 3.57003 171.065Z" fill="#478BF9"/>
    <path d="M99.1135 49.9295C99.1135 50.9183 98.312 51.7094 97.3336 51.7094C96.3552 51.7094 95.5537 50.9079 95.5537 49.9295C95.5537 24.5741 74.9238 3.94418 49.5684 3.94418C24.213 3.94418 3.58305 24.5741 3.58305 49.9295C3.58305 50.9183 2.78156 51.7094 1.80315 51.7094C0.82474 51.7094 0.0233154 50.9079 0.0233154 49.9295C0.0233154 22.6069 22.2561 0.374023 49.5788 0.374023C76.9015 0.374023 99.1343 22.6069 99.1343 49.9295H99.1135Z" fill="#478BF9"/>
    <path d="M40.0118 162.312C40.0118 164.133 41.2505 165.715 43.0199 166.152L46.3819 166.996V158.346H43.9879C41.8021 158.346 40.0223 160.126 40.0223 162.312H40.0118Z" fill="#478BF9"/>
    <path d="M52.7292 183.785H55.1233C57.3091 183.785 59.0889 182.005 59.0889 179.819C59.0889 177.997 57.8503 176.415 56.0808 175.978L52.7189 175.135V183.785H52.7292Z" fill="#478BF9"/>
    <path d="M49.5562 130.742C27.3234 130.742 9.22277 148.832 9.22277 171.076C9.22277 193.319 27.313 211.409 49.5562 211.409C71.7995 211.409 89.8897 193.319 89.8897 171.076C89.8897 148.832 71.7995 130.742 49.5562 130.742ZM65.4607 164.706H59.1009V161.521C59.1009 159.772 57.675 158.335 55.9159 158.335H52.7309V168.578L57.6333 169.806C62.234 170.961 65.4502 175.073 65.4502 179.819C65.4502 185.512 60.8184 190.144 55.1249 190.144H52.7309V198.201H46.3712V190.144H43.1862C37.9194 190.144 33.6415 185.866 33.6415 180.6V177.415H40.0011V180.6C40.0011 182.348 41.4271 183.785 43.1862 183.785H46.3712V173.542L41.4687 172.314C36.8681 171.159 33.6519 167.048 33.6519 162.301C33.6519 156.608 38.2837 151.976 43.9772 151.976H46.3712V143.92H52.7309V151.976H55.9159C61.1827 151.976 65.4607 156.254 65.4607 161.521V164.706Z" fill="#478BF9"/>
    <path d="M99.1729 49.1697V168.765C99.1729 169.754 98.3715 170.545 97.3931 170.545C96.4146 170.545 95.6132 169.743 95.6132 168.765V49.1697C95.6132 48.1809 96.4146 47.3899 97.3931 47.3899C98.3715 47.3899 99.1729 48.1913 99.1729 49.1697Z" fill="#478BF9"/>
    <path d="M3.63774 48.9095V168.505C3.63774 169.494 2.83625 170.285 1.85784 170.285C0.879427 170.285 0.0780029 169.483 0.0780029 168.505V48.9095C0.0780029 47.9207 0.879427 47.1296 1.85784 47.1296C2.83625 47.1296 3.63774 47.9311 3.63774 48.9095Z" fill="#478BF9"/>
</svg>