<svg xmlns="http://www.w3.org/2000/svg" width="102" height="1000" viewBox="0 0 102 1000" fill="none">
    <path d="M16.6172 953.672C-2.87255 934.182 -2.87255 902.473 16.6172 882.984C36.1069 863.494 67.8156 863.494 87.3053 882.984C106.795 902.473 106.795 934.182 87.3053 953.672C67.8156 973.162 36.1069 973.162 16.6172 953.672ZM84.9497 885.339C66.7586 867.148 37.1638 867.148 18.9775 885.339C0.7865 903.53 0.7865 933.125 18.9775 951.312C37.1686 969.503 66.7634 969.503 84.9497 951.312C103.141 933.121 103.141 903.526 84.9497 885.339Z" fill="white"/>
    <path d="M85.4892 907.725C85.3138 907.55 85.1716 907.327 85.091 907.081C83.361 901.962 80.5361 897.426 76.697 893.587C72.8625 889.752 68.3219 886.927 63.203 885.192C62.5252 884.96 62.0702 884.33 62.0702 883.614V871.466C62.0702 870.954 62.3072 870.471 62.71 870.153C63.1177 869.836 63.6438 869.727 64.1367 869.85C72.8862 872.04 80.8963 876.58 87.295 882.984C93.6936 889.387 98.2343 897.393 100.424 906.142C100.547 906.64 100.433 907.166 100.121 907.573C99.8031 907.981 99.3196 908.213 98.8078 908.213H86.6599C86.2048 908.213 85.7878 908.028 85.4797 907.72L85.4892 907.725ZM79.0526 891.231C82.9676 895.146 85.9205 899.734 87.8448 904.881H96.6322C94.4235 897.525 90.409 890.804 84.9441 885.339C79.4792 879.875 72.7583 875.86 65.407 873.656V882.443C70.5543 884.363 75.1423 887.316 79.0573 891.236L79.0526 891.231Z" fill="white"/>
    <path d="M16.616 953.672C10.2174 947.273 5.67197 939.263 3.48222 930.514C3.35899 930.016 3.47275 929.49 3.78557 929.087C4.10313 928.679 4.58656 928.447 5.09845 928.447H17.2464C17.9621 928.447 18.5972 928.902 18.8247 929.58C20.5547 934.699 23.3795 939.235 27.2187 943.074C31.0531 946.908 35.5938 949.733 40.7127 951.468C41.3905 951.695 41.8455 952.33 41.8455 953.046V965.194C41.8455 965.706 41.6085 966.189 41.2056 966.507C40.798 966.825 40.2719 966.934 39.7742 966.81C31.0247 964.621 23.0194 960.08 16.616 953.681V953.672ZM7.28348 931.774C9.49219 939.13 13.5067 945.851 18.9716 951.316C24.4365 956.781 31.1575 960.796 38.5135 963.004V954.217C33.3662 952.297 28.7781 949.344 24.8631 945.429C20.9481 941.514 17.9952 936.926 16.0709 931.779H7.28348V931.774Z" fill="white"/>
    <path d="M62.5662 966.365C62.2534 966.052 62.078 965.63 62.078 965.185V953.037C62.078 952.321 62.533 951.686 63.2108 951.459C68.3297 949.729 72.8656 946.904 76.7048 943.065C80.5439 939.225 83.3641 934.689 85.0988 929.571C85.3263 928.893 85.9615 928.438 86.6772 928.438H98.8251C99.3369 928.438 99.8204 928.675 100.138 929.078C100.456 929.48 100.565 930.011 100.441 930.504C98.2468 939.254 93.7061 947.259 87.3075 953.663C80.9089 960.066 72.8988 964.607 64.1493 966.796C63.6516 966.92 63.1255 966.806 62.7226 966.493C62.6705 966.446 62.6183 966.403 62.571 966.355L62.5662 966.365ZM65.41 954.212V963C72.7661 960.791 79.487 956.777 84.9519 951.312C90.4168 945.847 94.4266 939.126 96.64 931.77H87.8526C85.933 936.917 82.9801 941.5 79.0604 945.42C75.1454 949.335 70.5574 952.293 65.41 954.212Z" fill="white"/>
    <path d="M3.91901 907.725C3.87161 907.678 3.82423 907.626 3.78631 907.573C3.46875 907.171 3.35973 906.64 3.48296 906.142C5.67271 897.393 10.2134 889.382 16.6167 882.984C23.0201 876.585 31.0254 872.04 39.775 869.85C40.2726 869.727 40.7988 869.841 41.2016 870.153C41.6045 870.471 41.8415 870.954 41.8415 871.466V883.614C41.8415 884.33 41.3865 884.965 40.7087 885.192C35.5898 886.922 31.0539 889.747 27.2147 893.587C23.3803 897.421 20.5554 901.962 18.8207 907.081C18.5932 907.758 17.9581 908.213 17.2424 908.213H5.09448C4.64895 908.213 4.22235 908.038 3.91427 907.73L3.91901 907.725ZM38.5095 873.656C31.1535 875.865 24.4325 879.879 18.9676 885.344C13.5027 890.809 9.49293 897.53 7.27948 904.886H16.0669C17.9865 899.739 20.9393 895.155 24.8591 891.236C28.7741 887.321 33.3622 884.368 38.5095 882.443V873.656Z" fill="white"/>
    <path d="M79.0565 891.231C64.1169 876.291 39.8022 876.287 24.8626 891.231C9.91827 906.175 9.92301 930.485 24.8626 945.425C39.8022 960.364 64.1122 960.369 79.0565 945.425C94.0009 930.48 93.9961 906.17 79.0565 891.231Z" fill="white"/>
    <path d="M65.7833 932.005L38.2556 932.188C37.096 932.196 36.1622 933.142 36.1699 934.302L36.1764 935.283C36.1841 936.442 37.1304 937.376 38.29 937.368L65.8177 937.186C66.9773 937.178 67.9111 936.232 67.9034 935.072L67.8969 934.091C67.8892 932.932 66.9429 931.998 65.7833 932.005Z" fill="#110A1D"/>
    <path d="M42.0061 915.389C41.7075 915.389 41.4042 915.323 41.1293 915.19L38.9822 914.152C38.0485 913.697 37.6219 912.593 38.0105 911.631L38.9964 909.175C39.2998 908.427 40.0154 907.938 40.8212 907.934C41.1672 907.934 41.5084 908.019 41.8118 908.194L44.3712 909.654C44.8499 909.924 45.1959 910.394 45.3192 910.934C45.4424 911.474 45.3334 912.043 45.0206 912.498L43.6176 914.531C43.2527 915.062 42.646 915.384 42.0014 915.384L42.0061 915.389Z" fill="#110A1D"/>
    <path d="M61.821 915.256C61.1764 915.256 60.565 914.948 60.1953 914.422L58.8065 912.465C58.4842 912.014 58.3705 911.446 58.4842 910.905C58.598 910.365 58.9392 909.891 59.418 909.611L62.058 908.062C62.3566 907.886 62.6979 907.791 63.0439 907.787C63.8496 907.782 64.5748 908.261 64.8876 909.005L65.8829 911.389C66.2811 912.346 65.8687 913.46 64.9445 913.925L62.6979 915.048C62.4277 915.181 62.1243 915.256 61.8257 915.256H61.821Z" fill="#110A1D"/>
    <path d="M39.8435 930.348C38.6349 930.357 37.5495 929.599 37.1372 928.461L32.5444 915.821C32.2506 915.963 31.9377 916.072 31.6201 916.152C31.2457 916.247 30.8665 916.295 30.4826 916.295C30.2598 916.295 30.0418 916.285 29.8285 916.257C27.435 915.953 25.6197 913.901 25.6055 911.484C25.5865 908.811 27.7478 906.621 30.421 906.602C33.0942 906.583 35.284 908.744 35.2982 911.417C35.2982 912.034 35.1939 912.626 34.9758 913.181C34.8574 913.484 34.7105 913.773 34.5398 914.048L43.2751 918.276L49.9581 908.592C49.6785 908.474 49.4083 908.327 49.1524 908.152C48.6689 907.825 48.2471 907.417 47.9058 906.938C47.3276 906.123 47.0147 905.161 47.01 904.166C46.991 901.492 49.1524 899.303 51.8256 899.284C51.9441 899.284 52.0673 899.284 52.1858 899.293C54.5793 899.454 56.5132 901.374 56.6885 903.767C56.7691 904.9 56.4705 905.986 55.8259 906.91C55.4847 907.393 55.0675 907.806 54.5888 908.133C54.3376 908.308 54.0675 908.455 53.7878 908.574L60.5893 918.157L69.1824 913.858C69.0213 913.55 68.8933 913.228 68.7985 912.891C68.6848 912.484 68.6232 912.057 68.6232 911.626C68.6232 911.432 68.6326 911.237 68.6516 911.048C68.9265 908.611 70.9835 906.763 73.4339 906.749C76.1071 906.73 78.2969 908.891 78.3111 911.564C78.3301 914.114 76.3489 916.257 73.8036 916.432L73.5003 916.441C73.0074 916.441 72.5239 916.375 72.0547 916.233C71.7514 916.138 71.4575 916.02 71.1826 915.868L66.8694 928.262C66.476 929.405 65.3954 930.172 64.1867 930.182L39.8435 930.343V930.348Z" fill="#110A1D"/>
    <path d="M51.5528 840.627C38.8542 840.627 26.1661 835.798 16.4965 826.128C-2.83233 806.799 -2.83233 775.355 16.4965 756.026C25.8643 746.658 38.313 741.506 51.5528 741.506C64.7926 741.506 77.2413 746.658 86.6091 756.026C105.938 775.355 105.938 806.799 86.6091 826.128C76.9498 835.787 64.2513 840.627 51.5528 840.627ZM19.0987 823.526C36.9911 841.418 66.104 841.418 83.9965 823.526C101.889 805.633 101.889 776.521 83.9965 758.628C75.3261 749.958 63.8037 745.19 51.5424 745.19C39.281 745.19 27.7586 749.968 19.0882 758.628C1.1958 776.521 1.1958 805.633 19.0882 823.526H19.0987Z" fill="#7DDACF"/>
    <path d="M53.3873 780.643L44.2069 793.508H49.713V802.688L58.8934 789.833H53.3873V780.643Z" fill="#7DDACF"/>
    <path d="M51.5431 773.492C41.4883 773.492 33.3279 781.652 33.3279 791.707C33.3279 801.762 41.4883 809.901 51.5431 809.901C61.5978 809.901 69.7582 801.741 69.7582 791.707C69.7582 781.673 61.5978 773.492 51.5431 773.492ZM51.5431 807.653C42.7165 807.653 35.5554 800.492 35.5554 791.665C35.5554 782.839 42.7165 775.678 51.5431 775.678C60.3696 775.678 67.5308 782.839 67.5308 791.665C67.5308 800.492 60.3696 807.653 51.5431 807.653Z" fill="#7DDACF"/>
    <path d="M79.7 762.927C72.185 755.402 62.1822 751.269 51.5446 751.269C40.907 751.269 30.9147 755.412 23.3893 762.927C7.87 778.446 7.87 803.708 23.3893 819.238C31.1541 827.003 41.3442 830.885 51.5446 830.885C61.7451 830.885 71.9352 827.003 79.7 819.238C95.2193 803.718 95.2193 778.457 79.7 762.927ZM51.5446 816.417C37.9301 816.417 26.845 805.332 26.845 791.717C26.845 785.701 28.9995 780.184 32.5801 775.875L29.5616 772.857C28.6977 771.993 28.6977 770.588 29.5616 769.713C30.4255 768.839 31.8307 768.85 32.705 769.713L35.7235 772.732C39.4707 769.599 44.1857 767.538 49.3276 767.101V765.061H47.2875C45.4868 765.061 43.9984 763.572 43.9984 761.772V760.054C43.9984 758.233 45.4868 756.765 47.2875 756.765H55.8226C57.6233 756.765 59.1117 758.233 59.1117 760.054V761.772C59.1117 763.572 57.6233 765.061 55.8226 765.061H53.7825V767.101C58.9348 767.548 63.6395 769.609 67.3866 772.732L70.4051 769.713C71.269 768.85 72.6742 768.85 73.5485 769.713C74.4124 770.577 74.4124 771.982 73.5485 772.857L70.53 775.875C74.1105 780.184 76.2651 785.691 76.2651 791.717C76.2651 805.332 65.18 816.417 51.5655 816.417H51.5446Z" fill="#7DDACF"/>
    <path d="M50.545 722.344C23.2224 722.344 0.999878 700.111 0.999878 672.799C0.999878 645.486 23.2328 623.253 50.545 623.253C77.8573 623.253 100.09 645.486 100.09 672.799C100.09 700.111 77.8573 722.344 50.545 722.344ZM50.545 626.553C25.0439 626.553 4.29946 647.297 4.29946 672.799C4.29946 698.3 25.0439 719.044 50.545 719.044C76.0462 719.044 96.7906 698.3 96.7906 672.799C96.7906 647.297 76.0462 626.553 50.545 626.553Z" fill="white"/>
    <path d="M82.8731 637.444L67.5349 652.783L70.5525 655.8L85.8908 640.462L82.8731 637.444Z" fill="white"/>
    <path d="M30.0762 690.243L14.738 705.582L17.7556 708.599L33.0938 693.261L30.0762 690.243Z" fill="white"/>
    <path d="M71.0173 690.24L67.9997 693.258L83.3379 708.596L86.3555 705.579L71.0173 690.24Z" fill="white"/>
    <path d="M17.7673 636.979L14.7497 639.997L30.0806 655.328L33.0982 652.31L17.7673 636.979Z" fill="white"/>
    <path d="M62.6408 674.131C63.6401 673.132 63.6401 671.518 62.6408 670.529L60.5174 668.417C59.5182 667.417 57.9049 667.417 56.9161 668.417L55.7711 669.562L54.4492 668.24C53.45 667.24 51.8367 667.24 50.8478 668.24L49.7029 669.395L48.381 668.063C47.3818 667.063 45.7684 667.063 44.7796 668.063L37.7538 675.088C37.7017 675.141 37.7017 675.224 37.7538 675.286C38.6905 676.223 40.2206 676.223 41.1678 675.286L45.6955 670.758C46.1848 670.269 46.9758 670.269 47.465 670.758L47.7981 671.092C47.8606 671.154 47.8606 671.248 47.7981 671.31L44.0198 675.088C43.9677 675.141 43.9677 675.224 44.0198 675.286C44.9565 676.223 46.4866 676.223 47.4338 675.286L51.7742 670.946C52.2634 670.457 53.0545 670.457 53.5437 670.946L53.8767 671.279C53.9288 671.331 53.9288 671.414 53.8767 671.477L50.2337 675.12C50.1817 675.172 50.1817 675.255 50.2337 675.317C51.1705 676.254 52.7006 676.254 53.6478 675.317L57.8424 671.123C58.3316 670.634 59.1227 670.634 59.6119 671.123L60.3301 671.841C60.6111 672.122 60.6111 672.59 60.3301 672.871L60.2156 672.986C59.9346 673.267 59.4662 673.267 59.1852 672.986L58.2588 672.06C58.2067 672.008 58.1235 672.008 58.061 672.06L56.4581 673.663C56.4061 673.715 56.4061 673.798 56.4581 673.86L57.9049 675.307C58.9041 676.306 60.5174 676.306 61.5063 675.307L62.6513 674.162L62.6408 674.131Z" fill="white"/>
    <path d="M50.5461 634.797C29.5623 634.797 12.5546 651.804 12.5546 672.788C12.5546 693.772 29.5623 710.78 50.5461 710.78C71.5299 710.78 88.5376 693.772 88.5376 672.788C88.5376 651.804 71.5299 634.797 50.5461 634.797ZM52.097 646.527C58.1964 646.881 63.7338 649.317 68.0222 653.126L62.5368 658.612C59.6744 656.186 56.0627 654.615 52.097 654.282V646.527ZM49.0056 646.527V654.282C45.0399 654.604 41.4281 656.186 38.5657 658.612L33.0804 653.126C37.3687 649.317 42.9061 646.881 49.0056 646.527ZM30.8946 655.312L36.3799 660.797C33.9547 663.66 32.383 667.272 32.0499 671.237H24.2955C24.6494 665.138 27.085 659.6 30.8946 655.312ZM24.2955 674.329H32.0499C32.3726 678.294 33.9547 681.906 36.3799 684.768L30.8946 690.254C27.085 685.965 24.6494 680.428 24.2955 674.329ZM49.0056 699.039C42.9061 698.685 37.3687 696.249 33.0804 692.44L38.5657 686.954C41.4281 689.379 45.0399 690.951 49.0056 691.284V699.039ZM34.5792 672.778C34.5792 663.962 41.73 656.811 50.5461 656.811C59.3622 656.811 66.5129 663.962 66.5129 672.778C66.5129 681.594 59.3622 688.745 50.5461 688.745C41.73 688.745 34.5792 681.594 34.5792 672.778ZM52.097 699.039V691.284C56.0627 690.962 59.6744 689.379 62.5368 686.954L68.0222 692.44C63.7338 696.249 58.1964 698.685 52.097 699.039ZM70.2079 690.254L64.7226 684.768C67.1479 681.906 68.7195 678.294 69.0526 674.329H76.807C76.4532 680.428 74.0175 685.965 70.2079 690.254ZM69.0526 671.237C68.7299 667.272 67.1479 663.66 64.7226 660.797L70.2079 655.312C74.0175 659.6 76.4532 665.138 76.807 671.237H69.0526Z" fill="white"/>
    <path d="M1.54675 417.461C1.54675 390.139 23.7796 367.906 51.1023 367.906C78.425 367.906 100.658 390.139 100.658 417.461C100.658 444.784 78.425 467.017 51.1023 467.017C23.7796 467.017 1.54675 444.784 1.54675 417.461ZM97.0877 417.461C97.0877 392.106 76.4577 371.476 51.1023 371.476C25.7469 371.476 5.11697 392.106 5.11697 417.461C5.11697 442.817 25.7469 463.447 51.1023 463.447C76.4577 463.447 97.0877 442.817 97.0877 417.461Z" fill="#478BF9"/>
    <path d="M1.54409 538.607C1.54409 537.618 2.34558 536.827 3.32399 536.827C4.3024 536.827 5.10389 537.629 5.10389 538.607C5.10389 563.963 25.7338 584.593 51.0892 584.593C76.4447 584.593 97.0746 563.963 97.0746 538.607C97.0746 537.618 97.8761 536.827 98.8545 536.827C99.8329 536.827 100.634 537.629 100.634 538.607C100.634 565.93 78.4015 588.163 51.0788 588.163C23.7561 588.163 1.52332 565.93 1.52332 538.607H1.54409Z" fill="#478BF9"/>
    <path d="M99.1433 416.264H77.4413V420.542H99.1433V416.264Z" fill="#478BF9"/>
    <path d="M24.4207 416.264H2.71863V420.542H24.4207V416.264Z" fill="#478BF9"/>
    <path d="M53.4106 445.242H49.1327V466.944H53.4106V445.242Z" fill="#478BF9"/>
    <path d="M53.4106 369.863H49.1327V391.565H53.4106V369.863Z" fill="#478BF9"/>
    <path d="M76.7858 391.252C61.9431 376.409 37.8678 376.409 23.0147 391.252C8.17201 406.095 8.17201 430.17 23.0147 445.023C37.8574 459.866 61.9326 459.866 76.7858 445.023C91.6285 430.18 91.6285 406.105 76.7858 391.252ZM57.2487 394.468C61.5787 395.811 65.4611 398.32 68.4796 401.734L69.0625 402.389L68.2091 402.587C65.9504 403.118 63.5356 403.555 61.0375 403.878L60.5899 403.94L60.465 403.503C60.0487 402.077 59.5595 400.703 58.9974 399.433C58.3 397.841 57.5194 396.446 56.6659 395.27L55.7291 393.99L57.2487 394.458V394.468ZM39.8767 416.951L39.8976 416.41C40.0017 413.121 40.3659 409.977 40.9905 407.084L41.0842 406.626L41.5525 406.667C47.0274 407.146 52.8771 407.125 58.3209 406.615L58.7892 406.574L58.8933 407.032C59.5283 409.957 59.8925 413.11 59.9862 416.41V416.951H39.8871H39.8767ZM59.9862 419.366V419.907C59.8717 423.207 59.5074 426.36 58.8725 429.285L58.7684 429.743L58.3 429.702C52.8563 429.192 47.0067 429.181 41.5317 429.65L41.0633 429.691L40.9696 429.233C40.3451 426.34 39.9808 423.207 39.8767 419.907L39.8559 419.366H59.9654H59.9862ZM49.9315 393.563C52.9604 393.563 56.0413 397.404 57.9669 403.597L58.1647 404.221L57.509 404.273C54.9484 404.492 52.3047 404.606 49.6505 404.606C47.1836 404.606 44.7271 404.513 42.3331 404.315L41.6774 404.263L41.8752 403.628C43.8008 397.414 46.8922 393.552 49.9315 393.552V393.563ZM31.2792 401.848C34.3185 398.382 38.2322 395.832 42.6142 394.479L44.1443 394.01L43.1971 395.301C42.3436 396.467 41.5525 397.872 40.8656 399.454C40.3139 400.703 39.8143 402.098 39.3771 403.597L39.2522 404.024L38.8047 403.972C36.2858 403.659 33.8501 403.243 31.5602 402.712L30.6963 402.514L31.2792 401.848ZM25.2006 416.389C25.492 412.33 26.7931 408.374 28.9685 404.929L29.1767 404.606L29.5514 404.7C32.216 405.377 35.0887 405.918 38.1072 406.303L38.6694 406.376L38.5548 406.938C37.9303 409.956 37.5764 413.152 37.4828 416.441V416.951H25.1693L25.211 416.389H25.2006ZM29.1767 431.711L28.9685 431.388C26.7931 427.953 25.492 423.987 25.2006 419.928L25.1589 419.366H37.4619V419.876C37.566 423.165 37.9303 426.371 38.5445 429.379L38.6589 429.941L38.0968 430.014C35.0887 430.399 32.2056 430.94 29.541 431.617L29.1663 431.711H29.1767ZM42.6142 441.849C38.2322 440.495 34.3185 437.945 31.2792 434.479L30.6963 433.813L31.5602 433.615C33.8501 433.095 36.2858 432.668 38.8047 432.356L39.2522 432.304L39.3771 432.731C39.8143 434.229 40.3139 435.624 40.8656 436.873C41.5629 438.466 42.3436 439.86 43.1971 441.037L44.1443 442.327L42.6142 441.859V441.849ZM49.9315 442.754C46.8922 442.754 43.8008 438.892 41.8752 432.679L41.6774 432.044L42.3331 431.992C47.2981 431.596 52.5857 431.606 57.509 432.033L58.1647 432.085L57.9669 432.71C56.0309 438.892 52.95 442.744 49.9315 442.744V442.754ZM68.4796 434.583C65.4611 437.997 61.5683 440.506 57.2487 441.849L55.7291 442.317L56.6659 441.037C57.5194 439.871 58.3 438.466 58.9974 436.873C59.549 435.593 60.0487 434.229 60.465 432.803L60.5899 432.366L61.0375 432.429C63.5356 432.751 65.9504 433.189 68.2091 433.719L69.0625 433.928L68.4796 434.583ZM74.652 419.928C74.3606 424.029 73.0387 428.036 70.8112 431.513L70.603 431.835L70.2283 431.742C67.595 431.044 64.7325 430.493 61.7349 430.087L61.1728 430.014L61.2873 429.462C61.9118 426.444 62.2761 423.227 62.3698 419.886V419.376H74.6832L74.6416 419.938L74.652 419.928ZM62.3906 416.951V416.441C62.2865 413.1 61.9222 409.873 61.2977 406.865L61.1832 406.313L61.7453 406.241C64.743 405.835 67.5949 405.283 70.2387 404.586L70.6135 404.492L70.8216 404.815C73.049 408.291 74.3813 412.288 74.6624 416.399L74.704 416.961H62.401L62.3906 416.951Z" fill="#478BF9"/>
    <path d="M1.48441 539.357V419.762C1.48441 418.773 2.2859 417.982 3.26431 417.982C4.24273 417.982 5.04421 418.783 5.04421 419.762V539.357C5.04421 540.346 4.24273 541.137 3.26431 541.137C2.2859 541.137 1.48441 540.335 1.48441 539.357Z" fill="#478BF9"/>
    <path d="M97.035 539.628V420.032C97.035 419.044 97.8365 418.252 98.8149 418.252C99.7933 418.252 100.595 419.054 100.595 420.032V539.628C100.595 540.616 99.7933 541.407 98.8149 541.407C97.8365 541.407 97.035 540.606 97.035 539.628Z" fill="#478BF9"/>
    <path d="M14.8281 330.452C-4.66161 310.962 -4.66161 279.253 14.8281 259.764C34.3178 240.274 66.0265 240.274 85.5162 259.764C105.006 279.253 105.006 310.962 85.5162 330.452C66.0265 349.941 34.3178 349.941 14.8281 330.452ZM83.1606 262.119C64.9696 243.928 35.3748 243.928 17.1885 262.119C-1.00256 280.31 -1.00256 309.905 17.1885 328.091C35.3795 346.282 64.9743 346.282 83.1606 328.091C101.352 309.9 101.352 280.305 83.1606 262.119Z" fill="white"/>
    <path d="M83.7001 284.505C83.5247 284.33 83.3826 284.107 83.302 283.86C81.572 278.741 78.7471 274.205 74.9079 270.366C71.0735 266.532 66.5328 263.707 61.4139 261.972C60.7361 261.74 60.2811 261.11 60.2811 260.394V248.246C60.2811 247.734 60.5181 247.251 60.921 246.933C61.3286 246.616 61.8547 246.507 62.3476 246.63C71.0972 248.82 79.1073 253.36 85.5059 259.764C91.9045 266.167 96.4452 274.172 98.635 282.922C98.7582 283.42 98.6444 283.946 98.3316 284.353C98.014 284.761 97.5306 284.993 97.0187 284.993H84.8708C84.4158 284.993 83.9987 284.808 83.6906 284.5L83.7001 284.505ZM77.2635 268.011C81.1785 271.926 84.1314 276.514 86.0557 281.661H94.8432C92.6345 274.305 88.6199 267.584 83.155 262.119C77.6901 256.654 70.9692 252.64 63.6179 250.436V259.223C68.7652 261.143 73.3533 264.096 77.2683 268.015L77.2635 268.011Z" fill="white"/>
    <path d="M14.8269 330.452C8.42831 324.053 3.88291 316.043 1.69316 307.293C1.56992 306.796 1.68368 306.27 1.99651 305.867C2.31407 305.459 2.7975 305.227 3.30939 305.227H15.4573C16.173 305.227 16.8081 305.682 17.0356 306.36C18.7656 311.479 21.5905 316.014 25.4296 319.854C29.2641 323.688 33.8048 326.513 38.9237 328.248C39.6015 328.475 40.0564 329.11 40.0564 329.826V341.974C40.0564 342.486 39.8194 342.969 39.4166 343.287C39.0089 343.604 38.4828 343.713 37.9852 343.59C29.2356 341.4 21.2303 336.86 14.8269 330.461V330.452ZM5.49442 308.554C7.70313 315.91 11.7177 322.631 17.1826 328.096C22.6475 333.561 29.3684 337.575 36.7244 339.784V330.997C31.5771 329.077 26.989 326.124 23.074 322.209C19.159 318.294 16.2062 313.706 14.2818 308.559H5.49442V308.554Z" fill="white"/>
    <path d="M60.7771 343.145C60.4643 342.832 60.2889 342.41 60.2889 341.965V329.817C60.2889 329.101 60.744 328.466 61.4217 328.238C66.5406 326.508 71.0765 323.683 74.9157 319.844C78.7549 316.005 81.575 311.469 83.3097 306.35C83.5372 305.673 84.1724 305.218 84.8881 305.218H97.036C97.5479 305.218 98.0313 305.455 98.3489 305.857C98.6665 306.26 98.7755 306.791 98.6522 307.284C96.4578 316.034 91.9171 324.039 85.5185 330.442C79.1198 336.846 71.1097 341.386 62.3602 343.576C61.8625 343.699 61.3364 343.586 60.9335 343.273C60.8814 343.225 60.8293 343.183 60.7819 343.135L60.7771 343.145ZM63.621 330.992V339.78C70.977 337.571 77.6979 333.556 83.1628 328.091C88.6277 322.627 92.6375 315.906 94.851 308.55H86.0635C84.1439 313.697 81.1911 318.28 77.2713 322.2C73.3563 326.115 68.7683 329.073 63.621 330.992Z" fill="white"/>
    <path d="M2.12995 284.505C2.08255 284.458 2.03517 284.405 1.99725 284.353C1.67969 283.95 1.57067 283.42 1.6939 282.922C3.88365 274.172 8.42431 266.162 14.8277 259.764C21.231 253.365 29.2364 248.82 37.9859 246.63C38.4836 246.507 39.0097 246.62 39.4126 246.933C39.8154 247.251 40.0525 247.734 40.0525 248.246V260.394C40.0525 261.11 39.5975 261.745 38.9197 261.972C33.8008 263.702 29.2648 266.527 25.4256 270.366C21.5912 274.201 18.7664 278.741 17.0316 283.86C16.8041 284.538 16.169 284.993 15.4533 284.993H3.30542C2.85988 284.993 2.43328 284.818 2.1252 284.51L2.12995 284.505ZM36.7204 250.436C29.3644 252.645 22.6434 256.659 17.1786 262.124C11.7137 267.589 7.70387 274.31 5.49042 281.666H14.2778C16.1974 276.518 19.1503 271.935 23.07 268.015C26.985 264.1 31.5731 261.148 36.7204 259.223V250.436Z" fill="white"/>
    <path d="M77.2675 268.011C62.3279 253.071 38.0131 253.066 23.0735 268.011C8.12921 282.955 8.13395 307.265 23.0735 322.205C38.0131 337.144 62.3231 337.149 77.2675 322.205C92.2118 307.26 92.2071 282.95 77.2675 268.011Z" fill="white"/>
    <path d="M63.9942 308.785L36.4666 308.968C35.307 308.975 34.3731 309.922 34.3808 311.081L34.3873 312.062C34.395 313.222 35.3413 314.156 36.5009 314.148L64.0286 313.966C65.1882 313.958 66.122 313.012 66.1144 311.852L66.1078 310.871C66.1002 309.711 65.1538 308.777 63.9942 308.785Z" fill="#110A1D"/>
    <path d="M40.2171 292.169C39.9185 292.169 39.6151 292.103 39.3402 291.97L37.1931 290.932C36.2594 290.477 35.8328 289.373 36.2214 288.41L37.2073 285.955C37.5107 285.206 38.2264 284.718 39.0321 284.713C39.3781 284.713 39.7194 284.799 40.0227 284.974L42.5822 286.434C43.0609 286.704 43.4069 287.173 43.5301 287.714C43.6534 288.254 43.5443 288.823 43.2315 289.278L41.8286 291.311C41.4636 291.842 40.8569 292.164 40.2123 292.164L40.2171 292.169Z" fill="#110A1D"/>
    <path d="M60.0319 292.036C59.3873 292.036 58.7759 291.728 58.4062 291.202L57.0175 289.245C56.6952 288.795 56.5814 288.226 56.6952 287.685C56.8089 287.145 57.1502 286.671 57.6289 286.391L60.2689 284.842C60.5675 284.666 60.9088 284.571 61.2548 284.567C62.0605 284.562 62.7857 285.041 63.0985 285.785L64.0939 288.169C64.492 289.126 64.0797 290.24 63.1554 290.705L60.9088 291.828C60.6386 291.961 60.3353 292.036 60.0367 292.036H60.0319Z" fill="#110A1D"/>
    <path d="M38.0545 307.128C36.8459 307.137 35.7605 306.379 35.3481 305.241L30.7554 292.6C30.4615 292.743 30.1486 292.852 29.8311 292.932C29.4566 293.027 29.0775 293.074 28.6935 293.074C28.4708 293.074 28.2527 293.065 28.0395 293.036C25.6459 292.733 23.8306 290.681 23.8164 288.264C23.7974 285.59 25.9587 283.401 28.6319 283.382C31.3051 283.363 33.4949 285.524 33.5091 288.197C33.5091 288.813 33.4048 289.406 33.1868 289.96C33.0683 290.264 32.9214 290.553 32.7508 290.828L41.486 295.056L48.1691 285.372C47.8894 285.254 47.6192 285.107 47.3633 284.931C46.8798 284.604 46.458 284.197 46.1167 283.718C45.5385 282.903 45.2257 281.941 45.2209 280.945C45.202 278.272 47.3633 276.082 50.0365 276.063C50.155 276.063 50.2782 276.063 50.3967 276.073C52.7903 276.234 54.7241 278.154 54.8995 280.547C54.98 281.68 54.6815 282.765 54.0369 283.69C53.6956 284.173 53.2785 284.585 52.7997 284.913C52.5485 285.088 52.2784 285.235 51.9988 285.353L58.8002 294.937L67.3934 290.638C67.2322 290.33 67.1043 290.008 67.0095 289.671C66.8957 289.264 66.8341 288.837 66.8341 288.406C66.8341 288.211 66.8435 288.017 66.8625 287.827C67.1374 285.391 69.1944 283.543 71.6449 283.529C74.3181 283.51 76.5078 285.671 76.5221 288.344C76.541 290.894 74.5598 293.036 72.0146 293.212L71.7112 293.221C71.2183 293.221 70.7349 293.155 70.2657 293.013C69.9623 292.918 69.6684 292.799 69.3935 292.648L65.0804 305.042C64.687 306.184 63.6063 306.952 62.3977 306.962L38.0545 307.123V307.128Z" fill="#110A1D"/>
    <path d="M50.6153 217.407C37.9167 217.407 25.2286 212.577 15.559 202.908C-3.76983 183.579 -3.76983 152.135 15.559 132.806C24.9268 123.438 37.3755 118.286 50.6153 118.286C63.8551 118.286 76.3038 123.438 85.6716 132.806C105 152.135 105 183.579 85.6716 202.908C76.0123 212.567 63.3138 217.407 50.6153 217.407ZM18.1612 200.306C36.0536 218.198 65.1665 218.198 83.059 200.306C100.951 182.413 100.951 153.3 83.059 135.408C74.3886 126.737 62.8662 121.97 50.6049 121.97C38.3435 121.97 26.8211 126.748 18.1507 135.408C0.2583 153.3 0.2583 182.413 18.1507 200.306H18.1612Z" fill="#7DDACF"/>
    <path d="M52.4498 157.422L43.2694 170.287H48.7755V179.468L57.9559 166.613H52.4498V157.422Z" fill="#7DDACF"/>
    <path d="M50.6056 150.271C40.5508 150.271 32.3904 158.432 32.3904 168.487C32.3904 178.541 40.5508 186.681 50.6056 186.681C60.6603 186.681 68.8207 178.521 68.8207 168.487C68.8207 158.453 60.6603 150.271 50.6056 150.271ZM50.6056 184.433C41.779 184.433 34.6179 177.272 34.6179 168.445C34.6179 159.618 41.779 152.457 50.6056 152.457C59.4321 152.457 66.5933 159.618 66.5933 168.445C66.5933 177.272 59.4321 184.433 50.6056 184.433Z" fill="#7DDACF"/>
    <path d="M78.7625 139.707C71.2475 132.181 61.2447 128.049 50.6071 128.049C39.9695 128.049 29.9772 132.192 22.4518 139.707C6.9325 155.226 6.9325 180.488 22.4518 196.017C30.2166 203.782 40.4067 207.665 50.6071 207.665C60.8076 207.665 70.9977 203.782 78.7625 196.017C94.2818 180.498 94.2818 155.236 78.7625 139.707ZM50.6071 193.197C36.9926 193.197 25.9075 182.112 25.9075 168.497C25.9075 162.481 28.062 156.964 31.6426 152.655L28.6241 149.637C27.7602 148.773 27.7602 147.368 28.6241 146.493C29.488 145.619 30.8932 145.629 31.7675 146.493L34.786 149.512C38.5332 146.379 43.2482 144.318 48.3901 143.881V141.841H46.35C44.5493 141.841 43.0609 140.352 43.0609 138.551V136.834C43.0609 135.012 44.5493 133.545 46.35 133.545H54.8851C56.6858 133.545 58.1742 135.012 58.1742 136.834V138.551C58.1742 140.352 56.6858 141.841 54.8851 141.841H52.845V143.881C57.9973 144.328 62.702 146.389 66.4491 149.512L69.4676 146.493C70.3315 145.629 71.7367 145.629 72.611 146.493C73.4749 147.357 73.4749 148.762 72.611 149.637L69.5925 152.655C73.173 156.964 75.3276 162.47 75.3276 168.497C75.3276 182.112 64.2425 193.197 50.628 193.197H50.6071Z" fill="#7DDACF"/>
    <path d="M51.545 99.1234C24.2224 99.1234 1.99988 76.8906 1.99988 49.5783C1.99988 22.2661 24.2328 0.0332031 51.545 0.0332031C78.8573 0.0332031 101.09 22.2661 101.09 49.5783C101.09 76.8906 78.8573 99.1234 51.545 99.1234ZM51.545 3.33272C26.0439 3.33272 5.29946 24.0772 5.29946 49.5783C5.29946 75.0795 26.0439 95.8239 51.545 95.8239C77.0462 95.8239 97.7906 75.0795 97.7906 49.5783C97.7906 24.0772 77.0462 3.33272 51.545 3.33272Z" fill="white"/>
    <path d="M83.8731 14.2242L68.5349 29.5625L71.5525 32.5801L86.8908 17.2418L83.8731 14.2242Z" fill="white"/>
    <path d="M31.0762 67.0231L15.738 82.3613L18.7556 85.3789L34.0938 70.0407L31.0762 67.0231Z" fill="white"/>
    <path d="M72.0173 67.0203L68.9997 70.0378L84.3379 85.3761L87.3555 82.3585L72.0173 67.0203Z" fill="white"/>
    <path d="M18.7673 13.7593L15.7497 16.7769L31.0806 32.1078L34.0982 29.0902L18.7673 13.7593Z" fill="white"/>
    <path d="M63.6408 50.9107C64.6401 49.9115 64.6401 48.2981 63.6408 47.3093L61.5174 45.1963C60.5182 44.1971 58.9049 44.1971 57.9161 45.1963L56.7711 46.3413L55.4492 45.0194C54.45 44.0202 52.8367 44.0202 51.8478 45.0194L50.7029 46.1747L49.381 44.8424C48.3818 43.8432 46.7684 43.8432 45.7796 44.8424L38.7538 51.8683C38.7017 51.9203 38.7017 52.0036 38.7538 52.066C39.6905 53.0028 41.2206 53.0028 42.1678 52.066L46.6955 47.5383C47.1848 47.0491 47.9758 47.0491 48.465 47.5383L48.7981 47.8714C48.8606 47.9338 48.8606 48.0275 48.7981 48.0899L45.0198 51.8683C44.9677 51.9203 44.9677 52.0036 45.0198 52.066C45.9565 53.0028 47.4866 53.0028 48.4338 52.066L52.7742 47.7257C53.2634 47.2364 54.0545 47.2364 54.5437 47.7257L54.8767 48.0587C54.9288 48.1107 54.9288 48.194 54.8767 48.2565L51.2337 51.8995C51.1817 51.9515 51.1817 52.0348 51.2337 52.0973C52.1705 53.034 53.7006 53.034 54.6478 52.0973L58.8424 47.9026C59.3316 47.4134 60.1227 47.4134 60.6119 47.9026L61.3301 48.6208C61.6111 48.9018 61.6111 49.3702 61.3301 49.6512L61.2156 49.7657C60.9346 50.0468 60.4662 50.0468 60.1852 49.7657L59.2588 48.8394C59.2067 48.7873 59.1235 48.7873 59.061 48.8394L57.4581 50.4423C57.4061 50.4943 57.4061 50.5776 57.4581 50.6401L58.9049 52.0868C59.9041 53.0861 61.5174 53.0861 62.5063 52.0868L63.6513 50.9419L63.6408 50.9107Z" fill="white"/>
    <path d="M51.5461 11.5764C30.5623 11.5764 13.5546 28.5841 13.5546 49.5679C13.5546 70.5517 30.5623 87.5594 51.5461 87.5594C72.5299 87.5594 89.5376 70.5517 89.5376 49.5679C89.5376 28.5841 72.5299 11.5764 51.5461 11.5764ZM53.097 23.3069C59.1964 23.6608 64.7338 26.0964 69.0222 29.906L63.5368 35.3914C60.6744 32.9662 57.0627 31.3945 53.097 31.0614V23.3069ZM50.0056 23.3069V31.0614C46.0399 31.384 42.4281 32.9662 39.5657 35.3914L34.0804 29.906C38.3687 26.0964 43.9061 23.6608 50.0056 23.3069ZM31.8946 32.0918L37.3799 37.5772C34.9547 40.4396 33.383 44.0514 33.0499 48.0171H25.2955C25.6494 41.9176 28.085 36.3802 31.8946 32.0918ZM25.2955 51.1084H33.0499C33.3726 55.0741 34.9547 58.6859 37.3799 61.5483L31.8946 67.0336C28.085 62.7453 25.6494 57.2079 25.2955 51.1084ZM50.0056 75.8185C43.9061 75.4646 38.3687 73.029 34.0804 69.2194L39.5657 63.7341C42.4281 66.1593 46.0399 67.731 50.0056 68.0641V75.8185ZM35.5792 49.5575C35.5792 40.7414 42.73 33.5907 51.5461 33.5907C60.3622 33.5907 67.5129 40.7414 67.5129 49.5575C67.5129 58.3736 60.3622 65.5244 51.5461 65.5244C42.73 65.5244 35.5792 58.3736 35.5792 49.5575ZM53.097 75.8185V68.0641C57.0627 67.7414 60.6744 66.1593 63.5368 63.7341L69.0222 69.2194C64.7338 73.029 59.1964 75.4646 53.097 75.8185ZM71.2079 67.0336L65.7226 61.5483C68.1479 58.6859 69.7195 55.0741 70.0526 51.1084H77.807C77.4532 57.2079 75.0175 62.7453 71.2079 67.0336ZM70.0526 48.0171C69.7299 44.0514 68.1479 40.4396 65.7226 37.5772L71.2079 32.0918C75.0175 36.3802 77.4532 41.9176 77.807 48.0171H70.0526Z" fill="white"/>
</svg>