<svg xmlns="http://www.w3.org/2000/svg" width="108" height="785" viewBox="0 0 108 785" fill="none">
<path d="M54.2748 784.081C40.5073 784.081 26.7512 778.845 16.2677 768.363C-4.68818 747.411 -4.68818 713.325 16.2677 692.372C26.424 682.218 39.9205 676.633 54.2748 676.633C68.629 676.633 82.1256 682.218 92.2819 692.372C113.238 713.325 113.238 747.411 92.2819 768.363C81.8096 778.834 68.0422 784.081 54.2748 784.081ZM19.0889 765.543C38.4874 784.938 70.0509 784.938 89.4494 765.543C108.848 746.147 108.848 714.589 89.4494 695.193C80.0492 685.794 67.557 680.627 54.2635 680.627C40.97 680.627 28.4778 685.806 19.0776 695.193C-0.32098 714.589 -0.32098 746.147 19.0776 765.543H19.0889Z" fill="#9DADF2"/>
<path d="M53.5639 750.468C53.7557 750.93 54.2071 751.201 54.681 751.201C54.839 751.201 54.9971 751.167 55.1551 751.111C58.9467 749.52 62.3998 747.06 65.1308 743.991C65.5709 743.495 65.5258 742.728 65.0292 742.288C64.5327 741.848 63.7653 741.893 63.3252 742.389C60.8313 745.199 57.6828 747.444 54.2184 748.888C53.609 749.148 53.3156 749.859 53.5752 750.468H53.5639Z" fill="#9DADF2"/>
<path d="M74.7581 711.791L54.7163 703.78C54.4229 703.667 54.1069 703.667 53.8135 703.78L33.7718 711.791C33.3091 711.971 33.0156 712.411 33.0156 712.908V727.26C33.0382 740.506 41.4115 752.477 53.8474 757.035C53.9828 757.081 54.1182 757.103 54.2649 757.103C54.4116 757.103 54.547 757.081 54.6824 757.035C67.1182 752.466 75.4916 740.506 75.5141 727.26V712.908C75.5141 712.411 75.2208 711.971 74.7581 711.791ZM73.0992 727.26C73.0766 739.31 65.5158 750.288 54.2762 754.61C43.0365 750.288 35.4644 739.31 35.4419 727.26V713.731L54.2762 706.206L73.0992 713.731V727.26Z" fill="#9DADF2"/>
<path d="M45.9022 713.675C45.6088 713.551 45.2815 713.551 44.9768 713.675L40.2034 715.582C39.7407 715.762 39.4473 716.202 39.4473 716.699V721.787C39.4473 722.453 39.9889 722.995 40.6547 722.995C41.3205 722.995 41.8622 722.453 41.8622 721.787V717.522L45.8683 715.92C46.173 715.796 46.3987 715.57 46.5341 715.266C46.6583 714.972 46.6583 714.645 46.5341 714.341C46.41 714.036 46.1843 713.81 45.8909 713.675H45.9022Z" fill="#9DADF2"/>
<path d="M84.789 699.853C76.6414 691.695 65.7967 687.216 54.2637 687.216C42.7306 687.216 31.8972 691.706 23.7383 699.853C6.91274 716.675 6.91274 744.059 23.7383 760.894C32.1568 769.311 43.2046 773.508 54.2637 773.508C65.3227 773.508 76.3705 769.299 84.789 760.894C101.615 744.071 101.615 716.687 84.789 699.853ZM78.8194 727.259C78.8532 742.57 69.0693 755.963 54.4781 760.6C54.3427 760.645 54.1959 760.645 54.0492 760.6C39.458 755.963 29.6741 742.57 29.708 727.259V710.323C29.708 710.041 29.8773 709.782 30.1481 709.669L54.0041 700.135C54.0831 700.101 54.1734 700.09 54.2637 700.09C54.3539 700.09 54.4442 700.101 54.5232 700.135L78.3792 709.68C78.6501 709.782 78.8194 710.041 78.8194 710.334V727.27V727.259Z" fill="#9DADF2"/>
<path d="M54.2748 511.104C40.5073 511.104 26.7512 505.868 16.2677 495.387C-4.68818 474.434 -4.68818 440.348 16.2677 419.396C26.424 409.241 39.9205 403.656 54.2748 403.656C68.629 403.656 82.1256 409.241 92.2819 419.396C113.238 440.348 113.238 474.434 92.2819 495.387C81.8096 505.857 68.0422 511.104 54.2748 511.104ZM19.0889 492.566C38.4874 511.961 70.0509 511.961 89.4494 492.566C108.848 473.17 108.848 441.612 89.4494 422.216C80.0492 412.818 67.557 407.65 54.2635 407.65C40.97 407.65 28.4778 412.829 19.0776 422.216C-0.32098 441.612 -0.32098 473.17 19.0776 492.566H19.0889Z" fill="#9DADF2"/>
<path d="M53.5639 477.502C53.7557 477.965 54.2071 478.236 54.681 478.236C54.839 478.236 54.9971 478.202 55.1551 478.146C58.9467 476.555 62.3998 474.095 65.1308 471.026C65.5709 470.53 65.5258 469.762 65.0292 469.322C64.5327 468.882 63.7653 468.927 63.3252 469.424C60.8313 472.233 57.6828 474.479 54.2184 475.923C53.609 476.182 53.3156 476.893 53.5752 477.502H53.5639Z" fill="#9DADF2"/>
<path d="M74.7581 438.813L54.7163 430.802C54.4229 430.689 54.1069 430.689 53.8135 430.802L33.7718 438.813C33.3091 438.993 33.0156 439.433 33.0156 439.93V454.282C33.0382 467.528 41.4115 479.499 53.8474 484.058C53.9828 484.103 54.1182 484.125 54.2649 484.125C54.4116 484.125 54.547 484.103 54.6824 484.058C67.1182 479.488 75.4916 467.528 75.5141 454.282V439.93C75.5141 439.433 75.2208 438.993 74.7581 438.813ZM73.0992 454.282C73.0766 466.332 65.5158 477.31 54.2762 481.632C43.0365 477.31 35.4644 466.332 35.4419 454.282V440.754L54.2762 433.228L73.0992 440.754V454.282Z" fill="#9DADF2"/>
<path d="M45.9022 440.697C45.6088 440.573 45.2815 440.573 44.9768 440.697L40.2034 442.604C39.7407 442.784 39.4473 443.224 39.4473 443.721V448.81C39.4473 449.475 39.9889 450.017 40.6547 450.017C41.3205 450.017 41.8622 449.475 41.8622 448.81V444.545L45.8683 442.942C46.173 442.818 46.3987 442.593 46.5341 442.288C46.6583 441.995 46.6583 441.667 46.5341 441.363C46.41 441.058 46.1843 440.832 45.8909 440.697H45.9022Z" fill="#9DADF2"/>
<path d="M84.789 426.876C76.6414 418.718 65.7967 414.239 54.2637 414.239C42.7306 414.239 31.8972 418.729 23.7383 426.876C6.91274 443.699 6.91274 471.083 23.7383 487.917C32.1568 496.334 43.2046 500.531 54.2637 500.531C65.3227 500.531 76.3705 496.323 84.789 487.917C101.615 471.094 101.615 443.71 84.789 426.876ZM78.8194 454.282C78.8532 469.593 69.0693 482.986 54.4781 487.623C54.3427 487.669 54.1959 487.669 54.0492 487.623C39.458 482.986 29.6741 469.593 29.708 454.282V437.346C29.708 437.064 29.8773 436.805 30.1481 436.692L54.0041 427.158C54.0831 427.124 54.1734 427.113 54.2637 427.113C54.3539 427.113 54.4442 427.124 54.5232 427.158L78.3792 436.703C78.6501 436.805 78.8194 437.064 78.8194 437.358V454.293V454.282Z" fill="#9DADF2"/>
<path d="M54.2693 647.592C24.6451 647.592 0.550781 623.486 0.550781 593.873C0.550781 564.261 24.6564 540.155 54.2693 540.155C83.8821 540.155 107.988 564.261 107.988 593.873C107.988 623.486 83.8821 647.592 54.2693 647.592ZM54.2693 543.732C26.6201 543.732 4.1283 566.224 4.1283 593.873C4.1283 621.523 26.6201 644.014 54.2693 644.014C81.9184 644.014 104.41 621.523 104.41 593.873C104.41 566.224 81.9184 543.732 54.2693 543.732Z" fill="#E3E3E3"/>
<path d="M71.6926 560.323C71.4218 560.323 71.1509 560.266 70.9026 560.142C65.7001 557.569 60.1025 556.26 54.268 556.26C48.4335 556.26 42.8359 557.569 37.6333 560.142C36.9449 560.481 36.1211 560.345 35.5794 559.803L26.348 550.572C25.953 550.177 25.7724 549.635 25.8401 549.082C25.9078 548.529 26.2238 548.044 26.6978 547.762C35.0151 542.774 44.5513 540.144 54.2793 540.144C64.0073 540.144 73.5434 542.785 81.8608 547.762C82.3348 548.044 82.6507 548.529 82.7184 549.082C82.7861 549.635 82.5943 550.177 82.2106 550.572L72.9791 559.803C72.6293 560.142 72.1779 560.323 71.7039 560.323H71.6926ZM54.268 552.682C60.2154 552.682 65.9483 553.924 71.3202 556.373L78.0011 549.692C70.7333 545.776 62.574 543.722 54.268 543.722C45.962 543.722 37.8026 545.776 30.5348 549.692L37.2158 556.373C42.5876 553.924 48.3206 552.682 54.268 552.682Z" fill="#E3E3E3"/>
<path d="M54.269 647.592C44.541 647.592 35.0048 644.951 26.6875 639.974C26.2135 639.692 25.8975 639.207 25.8298 638.654C25.7621 638.101 25.954 637.559 26.3377 637.164L35.5691 627.933C36.1108 627.391 36.9459 627.256 37.623 627.594C42.8256 630.167 48.4232 631.476 54.2577 631.476C60.0922 631.476 65.6898 630.167 70.8923 627.594C71.5808 627.256 72.4046 627.391 72.9463 627.933L82.1777 637.164C82.5727 637.559 82.7533 638.101 82.6856 638.654C82.6179 639.207 82.3019 639.692 81.8279 639.974C73.5106 644.962 63.9744 647.592 54.2464 647.592H54.269ZM30.5358 638.045C37.8036 641.961 45.9629 644.014 54.269 644.014C62.575 644.014 70.7343 641.961 78.0021 638.045L71.3212 631.364C65.9494 633.813 60.2164 635.054 54.269 635.054C48.3216 635.054 42.5886 633.813 37.2168 631.364L30.5358 638.045Z" fill="#E3E3E3"/>
<path d="M98.8388 622.313C98.3649 622.313 97.9134 622.133 97.5749 621.794L88.3434 612.563C87.8017 612.021 87.6663 611.186 88.0049 610.509C90.578 605.306 91.887 599.709 91.887 593.874C91.887 588.04 90.578 582.442 88.0049 577.24C87.6663 576.551 87.8017 575.716 88.3434 575.186L97.5749 565.954C97.9699 565.559 98.5116 565.379 99.0646 565.446C99.6175 565.514 100.103 565.83 100.385 566.304C105.373 574.621 108.003 584.157 108.003 593.885C108.003 603.613 105.373 613.15 100.385 621.467C100.103 621.941 99.6175 622.257 99.0646 622.325C98.9856 622.325 98.9178 622.325 98.8388 622.325V622.313ZM91.7629 610.915L98.4439 617.596C102.36 610.328 104.414 602.169 104.414 593.863C104.414 585.557 102.36 577.398 98.4439 570.13L91.7629 576.811C94.2118 582.183 95.4532 587.916 95.4532 593.863C95.4532 599.81 94.2118 605.543 91.7629 610.915Z" fill="#E3E3E3"/>
<path d="M9.70328 622.313C9.62428 622.313 9.55657 622.313 9.48886 622.302C8.93587 622.234 8.45055 621.918 8.16842 621.444C3.18028 613.127 0.550781 603.59 0.550781 593.862C0.550781 584.134 3.18028 574.598 8.16842 566.281C8.45055 565.807 8.93587 565.491 9.48886 565.423C10.0418 565.356 10.5835 565.547 10.9785 565.931L20.21 575.163C20.7517 575.704 20.8871 576.539 20.5485 577.216C17.9755 582.419 16.6663 588.017 16.6663 593.851C16.6663 599.686 17.9755 605.283 20.5485 610.486C20.8871 611.174 20.7517 612.009 20.21 612.54L10.9785 621.771C10.64 622.11 10.1885 622.302 9.71451 622.302L9.70328 622.313ZM10.0982 570.129C6.18221 577.397 4.1283 585.556 4.1283 593.862C4.1283 602.168 6.18221 610.328 10.0982 617.596L16.7792 610.915C14.3302 605.543 13.0889 599.81 13.0889 593.862C13.0889 587.915 14.3302 582.182 16.7792 576.81L10.0982 570.129Z" fill="#E3E3E3"/>
<path d="M54.2698 552.681C31.5636 552.681 13.0781 571.156 13.0781 593.873C13.0781 616.591 31.5523 635.065 54.2698 635.065C76.9873 635.065 95.4614 616.591 95.4614 593.873C95.4614 571.156 76.9873 552.681 54.2698 552.681ZM77.4499 580.342C79.4023 583.682 80.5873 587.328 80.971 591.198C80.9823 591.356 80.9146 591.503 80.7791 591.582C77.8337 593.388 75.1928 595.6 72.9132 598.184C72.8116 598.308 72.6424 598.353 72.4956 598.297L67.406 596.638C67.2593 596.593 67.1577 596.469 67.1351 596.311C66.5595 592.101 65.2505 588.072 63.2417 584.326C63.174 584.19 63.1852 584.032 63.2755 583.908L66.4241 579.574C66.5031 579.473 66.6273 579.405 66.7514 579.405C66.7853 579.405 66.8079 579.405 66.8417 579.405C70.2048 580.15 73.658 580.398 77.0888 580.116C77.2468 580.105 77.3935 580.184 77.4725 580.319L77.4499 580.342ZM64.3589 597.022C64.3702 597.135 64.3363 597.247 64.2686 597.326C61.594 600.407 58.1858 602.879 54.4278 604.459C54.3262 604.504 54.2246 604.504 54.1231 604.459C50.365 602.868 46.9568 600.396 44.2822 597.326C44.2145 597.247 44.1807 597.135 44.1919 597.022C44.7111 592.936 45.9863 589.032 47.9612 585.42C48.0177 585.319 48.108 585.251 48.2208 585.228C50.2071 584.811 52.2384 584.597 54.2811 584.597C56.3237 584.597 58.3551 584.811 60.3413 585.228C60.4542 585.251 60.5444 585.319 60.6009 585.42C62.5758 589.032 63.8398 592.936 64.3702 597.022H64.3589ZM63.7495 569.011C63.7495 569.011 63.8849 568.898 64.0204 568.898C64.0655 568.898 64.1219 568.899 64.1783 568.932C68.3313 570.58 72.0443 573.289 74.9333 576.753C75.08 576.922 75.0236 577.103 74.9897 577.171C74.9672 577.227 74.8656 577.408 74.6286 577.408C72.0668 577.442 69.5163 577.148 67.0448 576.561C66.9433 576.539 66.853 576.471 66.7965 576.381C65.4761 574.203 64.4153 571.855 63.6479 569.418C63.5802 569.203 63.7043 569.057 63.7608 569.011H63.7495ZM48.5707 567.657C52.3061 566.856 56.2447 566.856 59.9802 567.657C60.1269 567.691 60.251 567.804 60.2848 567.951C61.0861 571.302 62.384 574.507 64.1332 577.475C64.2122 577.611 64.2009 577.78 64.1106 577.916L60.9846 582.227C60.8943 582.351 60.7363 582.418 60.5896 582.385C56.4591 581.549 52.0917 581.549 47.9612 582.385C47.8145 582.418 47.6565 582.351 47.5663 582.227L44.4402 577.916C44.3499 577.791 44.3386 577.611 44.4176 577.475C46.1668 574.507 47.4647 571.302 48.2659 567.951C48.2998 567.804 48.424 567.691 48.5707 567.657ZM33.6175 576.753C36.5066 573.277 40.2195 570.569 44.3725 568.932C44.4289 568.91 44.4853 568.898 44.5305 568.898C44.6772 568.898 44.7675 568.978 44.8013 569.011C44.8578 569.068 44.9819 569.203 44.9142 569.418C44.1467 571.867 43.0859 574.203 41.7656 576.381C41.7091 576.471 41.6189 576.539 41.5173 576.561C39.0458 577.148 36.4953 577.442 33.9335 577.408C33.6965 577.408 33.5949 577.227 33.5724 577.171C33.5385 577.103 33.4821 576.922 33.6288 576.753H33.6175ZM31.1009 580.342C31.1686 580.218 31.304 580.139 31.4507 580.139C31.4507 580.139 31.4733 580.139 31.4846 580.139C34.9266 580.41 38.38 580.173 41.7317 579.428C41.8897 579.394 42.0477 579.45 42.138 579.586L45.2866 583.919C45.3769 584.043 45.3882 584.213 45.3205 584.337C43.3117 588.084 42.0026 592.113 41.427 596.322C41.4044 596.469 41.3029 596.593 41.1562 596.649L36.0665 598.308C35.9197 598.353 35.7505 598.308 35.6489 598.195C33.3692 595.611 30.7284 593.399 27.7829 591.593C27.6588 591.514 27.5798 591.368 27.5911 591.21C27.9748 587.339 29.1598 583.682 31.1122 580.353L31.1009 580.342ZM32.331 608.149C32.2633 608.364 32.0714 608.409 31.9924 608.42C31.9134 608.42 31.7328 608.42 31.6087 608.239C29.2049 604.459 27.7829 600.08 27.5008 595.588C27.4895 595.363 27.6362 595.25 27.7039 595.216C27.7717 595.182 27.9522 595.103 28.1328 595.239C30.2206 596.717 32.1165 598.455 33.7755 600.385C33.8432 600.464 33.8771 600.565 33.8658 600.678C33.6626 603.217 33.1435 605.734 32.3197 608.16L32.331 608.149ZM43.481 618.453C39.9599 616.907 36.8564 614.638 34.2607 611.727C34.1592 611.614 34.1254 611.444 34.1818 611.309C35.5022 608.127 36.3373 604.775 36.6645 601.344C36.6758 601.186 36.7887 601.051 36.9354 601.005L41.9687 599.369C41.9687 599.369 42.0477 599.347 42.0928 599.347C42.2057 599.347 42.3072 599.392 42.3862 599.482C45.2076 602.642 48.7399 605.215 52.6108 606.919C52.7575 606.987 52.8478 607.122 52.8478 607.28V612.573C52.8478 612.731 52.7575 612.878 52.6108 612.934C49.4509 614.3 46.5167 616.139 43.8872 618.385C43.7744 618.487 43.6051 618.509 43.4697 618.441L43.481 618.453ZM61.2328 619.57C61.2216 619.649 61.1651 619.829 60.9394 619.886C56.5833 620.992 51.9788 620.992 47.6227 619.886C47.4083 619.829 47.3405 619.649 47.3292 619.57C47.318 619.491 47.2954 619.31 47.4873 619.164C49.5412 617.64 51.7757 616.365 54.1344 615.383C54.2359 615.338 54.3375 615.338 54.439 615.383C56.7864 616.365 59.0209 617.64 61.0861 619.164C61.2667 619.299 61.2554 619.491 61.2441 619.57H61.2328ZM74.3126 611.738C71.717 614.649 68.6135 616.907 65.0924 618.453C64.9457 618.52 64.7877 618.487 64.6749 618.396C62.0454 616.15 59.1225 614.311 55.9513 612.945C55.8046 612.878 55.7143 612.742 55.7143 612.584V607.291C55.7143 607.133 55.8046 606.987 55.9513 606.93C59.8222 605.226 63.3658 602.653 66.1759 599.493C66.2549 599.403 66.3564 599.358 66.4693 599.358C66.5144 599.358 66.5483 599.358 66.5934 599.38L71.6267 601.017C71.7734 601.062 71.8863 601.197 71.8976 601.355C72.2248 604.786 73.06 608.127 74.3804 611.32C74.4368 611.456 74.4142 611.625 74.3013 611.738H74.3126ZM76.9534 608.251C76.8292 608.442 76.6374 608.443 76.5697 608.431C76.4907 608.431 76.3101 608.375 76.2311 608.16C75.4186 605.734 74.8994 603.217 74.685 600.678C74.685 600.577 74.7076 600.464 74.7753 600.385C76.4343 598.455 78.3302 596.728 80.418 595.239C80.497 595.182 80.576 595.16 80.6437 595.16C80.734 595.16 80.8017 595.193 80.8469 595.216C80.9146 595.25 81.0726 595.363 81.05 595.588C80.7678 600.08 79.3459 604.459 76.9421 608.239L76.9534 608.251Z" fill="#E3E3E3"/>
<path d="M54.2748 374.616C24.6476 374.616 0.550781 350.508 0.550781 320.892C0.550781 291.276 24.6589 267.168 54.2748 267.168C83.8907 267.168 107.999 291.276 107.999 320.892C107.999 350.508 83.8907 374.616 54.2748 374.616ZM54.2748 270.746C26.6228 270.746 4.1286 293.24 4.1286 320.892C4.1286 348.544 26.6228 371.038 54.2748 371.038C81.9269 371.038 104.421 348.544 104.421 320.892C104.421 293.24 81.9269 270.746 54.2748 270.746Z" fill="#478BF9"/>
<path d="M89.3215 282.564L72.6895 299.196L75.9616 302.468L92.5936 285.836L89.3215 282.564Z" fill="#478BF9"/>
<path d="M32.0753 339.808L15.4434 356.44L18.7155 359.713L35.3474 343.081L32.0753 339.808Z" fill="#478BF9"/>
<path d="M76.4655 339.825L73.1934 343.098L89.8253 359.73L93.0975 356.457L76.4655 339.825Z" fill="#478BF9"/>
<path d="M18.7116 282.064L15.4395 285.336L32.0635 301.96L35.3356 298.688L18.7116 282.064Z" fill="#478BF9"/>
<path d="M67.3781 322.337C68.4616 321.254 68.4616 319.504 67.3781 318.432L65.0756 316.141C63.9921 315.057 62.2427 315.057 61.1705 316.141L59.929 317.382L58.4956 315.949C57.4121 314.865 55.6627 314.865 54.5904 315.949L53.3489 317.202L51.9155 315.757C50.832 314.673 49.0826 314.673 48.0104 315.757L40.3919 323.375C40.3355 323.432 40.3355 323.522 40.3919 323.59C41.4077 324.606 43.0669 324.606 44.094 323.59L49.0036 318.68C49.534 318.15 50.3918 318.15 50.9223 318.68L51.2835 319.041C51.3512 319.109 51.3512 319.211 51.2835 319.278L47.1865 323.375C47.13 323.432 47.13 323.522 47.1865 323.59C48.2023 324.606 49.8614 324.606 50.8885 323.59L55.595 318.883C56.1254 318.353 56.9832 318.353 57.5137 318.883L57.8749 319.245C57.9313 319.301 57.9313 319.391 57.8749 319.459L53.9246 323.409C53.8681 323.466 53.8681 323.556 53.9246 323.624C54.9404 324.64 56.5994 324.64 57.6265 323.624L62.175 319.075C62.7055 318.545 63.5632 318.545 64.0937 319.075L64.8725 319.854C65.1772 320.159 65.1772 320.667 64.8725 320.971L64.7483 321.095C64.4436 321.4 63.9357 321.4 63.631 321.095L62.6265 320.091C62.57 320.035 62.4797 320.035 62.412 320.091L60.6739 321.829C60.6175 321.886 60.6175 321.976 60.6739 322.044L62.2428 323.612C63.3263 324.696 65.0756 324.696 66.1479 323.612L67.3894 322.371L67.3781 322.337Z" fill="#478BF9"/>
<path d="M54.276 279.696C31.5223 279.696 13.0801 298.139 13.0801 320.892C13.0801 343.646 31.5223 362.088 54.276 362.088C77.0297 362.088 95.4719 343.646 95.4719 320.892C95.4719 298.139 77.0297 279.696 54.276 279.696ZM55.9577 292.416C62.5716 292.8 68.576 295.441 73.2261 299.572L67.2781 305.52C64.1743 302.89 60.2579 301.186 55.9577 300.825V292.416ZM52.6055 292.416V300.825C48.3054 301.175 44.389 302.89 41.2852 305.52L35.3371 299.572C39.9872 295.441 45.9916 292.8 52.6055 292.416ZM32.967 301.942L38.9149 307.89C36.2852 310.994 34.5809 314.91 34.2198 319.211H25.8113C26.195 312.597 28.8361 306.592 32.967 301.942ZM25.8113 322.563H34.2198C34.5697 326.863 36.2852 330.779 38.9149 333.883L32.967 339.831C28.8361 335.181 26.195 329.177 25.8113 322.563ZM52.6055 349.357C45.9916 348.973 39.9872 346.332 35.3371 342.201L41.2852 336.253C44.389 338.883 48.3054 340.587 52.6055 340.948V349.357ZM36.9624 320.881C36.9624 311.321 44.7163 303.567 54.276 303.567C63.8357 303.567 71.5895 311.321 71.5895 320.881C71.5895 330.441 63.8357 338.195 54.276 338.195C44.7163 338.195 36.9624 330.441 36.9624 320.881ZM55.9577 349.357V340.948C60.2579 340.599 64.1743 338.883 67.2781 336.253L73.2261 342.201C68.576 346.332 62.5716 348.973 55.9577 349.357ZM75.5962 339.831L69.6483 333.883C72.278 330.779 73.9823 326.863 74.3435 322.563H82.752C82.3682 329.177 79.7271 335.181 75.5962 339.831ZM74.3435 319.211C73.9936 314.91 72.278 310.994 69.6483 307.89L75.5962 301.942C79.7271 306.592 82.3682 312.597 82.752 319.211H74.3435Z" fill="#478BF9"/>
<path d="M16.2689 222.45C-4.6886 201.493 -4.6886 167.396 16.2689 146.439C37.2264 125.481 71.3231 125.481 92.2806 146.439C113.238 167.396 113.238 201.493 92.2806 222.45C71.3231 243.408 37.2264 243.408 16.2689 222.45ZM89.7476 148.972C70.1866 129.411 38.363 129.411 18.807 148.972C-0.753977 168.533 -0.753977 200.356 18.807 219.912C38.3681 239.473 70.1917 239.473 89.7476 219.912C109.309 200.351 109.309 168.528 89.7476 148.972Z" fill="#E3E3E3"/>
<path d="M90.3292 173.042C90.1406 172.854 89.9877 172.614 89.9011 172.349C88.0408 166.845 85.0031 161.967 80.8748 157.839C76.7516 153.716 71.869 150.678 66.3646 148.813C65.6358 148.563 65.1465 147.885 65.1465 147.115V134.053C65.1465 133.502 65.4013 132.982 65.8345 132.641C66.2728 132.299 66.8386 132.182 67.3686 132.315C76.7771 134.669 85.3905 139.552 92.271 146.438C99.1515 153.323 104.034 161.931 106.389 171.34C106.521 171.875 106.399 172.441 106.063 172.879C105.721 173.317 105.201 173.567 104.651 173.567H91.588C91.0987 173.567 90.6502 173.368 90.319 173.037L90.3292 173.042ZM83.4078 155.306C87.6177 159.516 90.7929 164.449 92.8622 169.984H102.311C99.9364 162.074 95.6195 154.847 89.743 148.971C83.8666 143.094 76.6395 138.777 68.7346 136.407V145.857C74.2695 147.921 79.2031 151.096 83.4129 155.311L83.4078 155.306Z" fill="#E3E3E3"/>
<path d="M16.271 222.448C9.3905 215.568 4.50278 206.955 2.14812 197.546C2.01561 197.011 2.13794 196.445 2.47432 196.012C2.81579 195.574 3.33563 195.324 3.88607 195.324H16.9488C17.7184 195.324 18.4014 195.813 18.646 196.542C20.5063 202.046 23.5439 206.924 27.6722 211.052C31.7954 215.176 36.6781 218.213 42.1825 220.079C42.9113 220.323 43.4006 221.006 43.4006 221.776V234.838C43.4006 235.389 43.1457 235.909 42.7125 236.25C42.2742 236.592 41.7085 236.709 41.1733 236.576C31.7649 234.222 23.1566 229.339 16.271 222.459V222.448ZM6.23566 198.902C8.61071 206.812 12.9276 214.039 18.804 219.915C24.6805 225.792 31.9076 230.109 39.8176 232.484V223.035C34.2827 220.97 29.3491 217.795 25.1392 213.585C20.9293 209.376 17.7541 204.442 15.6849 198.907H6.23566V198.902Z" fill="#E3E3E3"/>
<path d="M65.6754 236.098C65.339 235.762 65.1504 235.308 65.1504 234.829V221.766C65.1504 220.997 65.6397 220.314 66.3685 220.069C71.8729 218.209 76.7504 215.171 80.8787 211.043C85.007 206.914 88.0395 202.037 89.9049 196.533C90.1495 195.804 90.8325 195.314 91.6021 195.314H104.665C105.215 195.314 105.735 195.569 106.077 196.002C106.418 196.436 106.535 197.007 106.403 197.537C104.043 206.945 99.1605 215.553 92.28 222.439C85.3995 229.325 76.7861 234.207 67.3776 236.562C66.8425 236.694 66.2767 236.572 65.8435 236.236C65.7875 236.185 65.7314 236.139 65.6805 236.088L65.6754 236.098ZM68.7334 223.03V232.479C76.6434 230.104 83.8705 225.787 89.7469 219.911C95.6234 214.035 99.9352 206.807 102.315 198.897H92.8661C90.8019 204.432 87.6267 209.361 83.4117 213.576C79.2019 217.786 74.2683 220.966 68.7334 223.03Z" fill="#E3E3E3"/>
<path d="M2.6139 173.042C2.56293 172.991 2.51198 172.935 2.47121 172.879C2.12973 172.446 2.0125 171.875 2.14502 171.34C4.49968 161.932 9.3823 153.318 16.2679 146.438C23.1535 139.557 31.7617 134.67 41.1702 132.315C41.7054 132.182 42.2711 132.305 42.7043 132.641C43.1375 132.983 43.3924 133.502 43.3924 134.053V147.116C43.3924 147.885 42.9031 148.568 42.1743 148.813C36.6699 150.673 31.7923 153.711 27.664 157.839C23.5408 161.962 20.5032 166.845 18.6378 172.349C18.3932 173.078 17.7103 173.567 16.9407 173.567H3.8779C3.39881 173.567 2.94008 173.379 2.6088 173.047L2.6139 173.042ZM39.8094 136.407C31.8994 138.783 24.6723 143.099 18.7958 148.976C12.9194 154.852 8.6076 162.079 6.22746 169.989H15.6767C17.7408 164.454 20.916 159.526 25.131 155.311C29.3408 151.101 34.2744 147.926 39.8094 145.857V136.407Z" fill="#E3E3E3"/>
<path d="M83.4097 155.307C67.345 139.242 41.1991 139.237 25.1344 155.307C9.06462 171.377 9.06972 197.518 25.1344 213.582C41.1991 229.647 67.3399 229.652 83.4097 213.582C99.4796 197.513 99.4745 171.372 83.4097 155.307Z" fill="#E3E3E3"/>
<path d="M69.1301 199.152L39.5293 199.349C38.2824 199.357 37.2782 200.375 37.2865 201.622L37.2935 202.677C37.3017 203.923 38.3193 204.928 39.5662 204.919L69.167 204.723C70.414 204.715 71.4181 203.697 71.4099 202.45L71.4029 201.395C71.3946 200.148 70.377 199.144 69.1301 199.152Z" fill="#110A1D"/>
<path d="M43.5641 181.285C43.243 181.285 42.9168 181.214 42.6212 181.071L40.3124 179.955C39.3083 179.466 38.8496 178.278 39.2675 177.244L40.3277 174.604C40.6539 173.798 41.4235 173.273 42.2899 173.268C42.6619 173.268 43.0289 173.36 43.3551 173.549L46.1073 175.118C46.6221 175.409 46.9941 175.913 47.1266 176.494C47.2591 177.076 47.1419 177.687 46.8055 178.176L45.2969 180.363C44.9045 180.934 44.2521 181.28 43.559 181.28L43.5641 181.285Z" fill="#110A1D"/>
<path d="M64.8725 181.142C64.1793 181.142 63.5219 180.811 63.1244 180.245L61.631 178.141C61.2844 177.656 61.1622 177.045 61.2845 176.464C61.4068 175.883 61.7737 175.373 62.2885 175.072L65.1273 173.406C65.4484 173.217 65.8154 173.115 66.1875 173.11C67.0539 173.105 67.8337 173.62 68.1701 174.42L69.2404 176.984C69.6685 178.013 69.2251 179.211 68.2312 179.71L65.8154 180.918C65.5249 181.061 65.1987 181.142 64.8776 181.142H64.8725Z" fill="#110A1D"/>
<path d="M41.2382 197.37C39.9386 197.38 38.7715 196.565 38.328 195.342L33.3894 181.749C33.0734 181.902 32.737 182.019 32.3955 182.106C31.9929 182.208 31.5851 182.258 31.1723 182.258C30.9328 182.258 30.6983 182.248 30.469 182.218C27.8951 181.892 25.9432 179.685 25.9279 177.085C25.9075 174.211 28.2315 171.856 31.106 171.836C33.9806 171.815 36.3352 174.14 36.3505 177.014C36.3505 177.677 36.2384 178.314 36.0039 178.91C35.8765 179.236 35.7186 179.547 35.5351 179.843L44.9282 184.389L52.1146 173.976C51.8139 173.849 51.5233 173.691 51.2481 173.502C50.7282 173.151 50.2746 172.712 49.9077 172.198C49.2859 171.321 48.9495 170.286 48.9444 169.216C48.924 166.342 51.2481 163.987 54.1226 163.967C54.25 163.967 54.3826 163.967 54.51 163.977C57.0838 164.15 59.1632 166.214 59.3518 168.788C59.4385 170.006 59.1174 171.173 58.4243 172.167C58.0573 172.687 57.6087 173.13 57.094 173.482C56.8238 173.671 56.5334 173.829 56.2327 173.956L63.5464 184.261L72.7866 179.639C72.6134 179.308 72.4758 178.961 72.3738 178.599C72.2515 178.161 72.1853 177.702 72.1853 177.238C72.1853 177.029 72.1954 176.82 72.2158 176.616C72.5114 173.997 74.7234 172.009 77.3583 171.994C80.2329 171.973 82.5875 174.298 82.6028 177.172C82.6232 179.914 80.4928 182.218 77.7559 182.406L77.4297 182.416C76.8996 182.416 76.3798 182.345 75.8753 182.192C75.5491 182.09 75.233 181.963 74.9374 181.8L70.2995 195.128C69.8764 196.356 68.7144 197.182 67.4147 197.192L41.2382 197.365V197.37Z" fill="#110A1D"/>
<path d="M108 54.1818V182.495C108 183.556 107.134 184.404 106.076 184.404C105.019 184.404 104.152 183.544 104.152 182.495V54.1818C104.152 53.1209 105.019 52.2722 106.076 52.2722C107.134 52.2722 108 53.1321 108 54.1818Z" fill="#E3E3E3"/>
<path d="M4.39858 54.1818V182.495C4.39858 183.556 3.5323 184.404 2.47472 184.404C1.41713 184.404 0.550781 183.544 0.550781 182.495V54.1818C0.550781 53.1209 1.41713 52.2722 2.47472 52.2722C3.5323 52.2722 4.39858 53.1321 4.39858 54.1818Z" fill="#E3E3E3"/>
<path d="M107.977 53.7125C107.977 54.7842 107.108 55.6417 106.048 55.6417C104.987 55.6417 104.119 54.7729 104.119 53.7125C104.119 26.23 81.7581 3.86941 54.2756 3.86941C26.7931 3.86941 4.43258 26.23 4.43258 53.7125C4.43258 54.7842 3.56385 55.6417 2.50336 55.6417C1.44287 55.6417 0.574219 54.7729 0.574219 53.7125C0.574219 24.0977 24.6721 -0.000244141 54.2869 -0.000244141C83.9017 -0.000244141 108 24.0977 108 53.7125H107.977Z" fill="#E3E3E3"/>
</svg>