<svg width="1210" height="50" viewBox="0 0 1210 50" fill="none" xmlns="http://www.w3.org/2000/svg">
<path d="M83.9142 0.656738C97.3456 0.656738 108.275 11.5861 108.275 25.0175C108.275 38.4489 97.3456 49.3783 83.9142 49.3783C70.4827 49.3783 59.5534 38.4489 59.5534 25.0175C59.5534 11.5861 70.4827 0.656738 83.9142 0.656738ZM83.9142 47.6232C96.3785 47.6232 106.52 37.4819 106.52 25.0175C106.52 12.5532 96.3785 2.4118 83.9142 2.4118C71.4498 2.4118 61.3084 12.5532 61.3084 25.0175C61.3084 37.4819 71.4498 47.6232 83.9142 47.6232Z" fill="#478BF9"/>
<path d="M24.3604 0.655476C24.8465 0.655476 25.2354 1.04948 25.2354 1.53045C25.2354 2.01142 24.8414 2.40542 24.3604 2.40542C11.896 2.40542 1.75467 12.5468 1.75467 25.0111C1.75467 37.4755 11.896 47.6168 24.3604 47.6168C24.8465 47.6168 25.2354 48.0108 25.2354 48.4918C25.2354 48.9728 24.8414 49.3668 24.3604 49.3668C10.929 49.3668 -0.000366184 38.4374 -0.000366184 25.006C-0.000366184 11.5746 10.929 0.645264 24.3604 0.645264V0.655476Z" fill="#478BF9"/>
<path d="M84.5024 48.6337V37.9653H82.3995V48.6337H84.5024Z" fill="#478BF9"/>
<path d="M84.5024 11.9013V1.23291L82.3995 1.23291V11.9013H84.5024Z" fill="#478BF9"/>
<path d="M70.2573 26.1523V24.0493L59.5889 24.0493V26.1523L70.2573 26.1523Z" fill="#478BF9"/>
<path d="M107.313 26.1523V24.0493L96.6446 24.0493V26.1523L107.313 26.1523Z" fill="#478BF9"/>
<path d="M96.7982 37.6432C104.095 30.3467 104.095 18.5117 96.7982 11.2101C89.5017 3.91368 77.6667 3.91368 70.3651 11.2101C63.0687 18.5066 63.0687 30.3416 70.3651 37.6432C77.6616 44.9396 89.4966 44.9396 96.7982 37.6432ZM95.2171 28.0391C94.557 30.1676 93.3239 32.0762 91.6456 33.56L91.3233 33.8465L91.226 33.427C90.9651 32.3167 90.7502 31.1296 90.5916 29.9016L90.5609 29.6815L90.7758 29.6202C91.4768 29.4155 92.1522 29.175 92.7764 28.8987C93.5593 28.5559 94.2449 28.1721 94.8231 27.7525L95.4525 27.292L95.2222 28.0391H95.2171ZM84.165 19.4992L84.431 19.5095C86.0479 19.5607 87.5932 19.7397 89.0156 20.0467L89.2407 20.0928L89.2203 20.323C88.9849 23.0144 88.9951 25.8901 89.2459 28.5661L89.2663 28.7963L89.0412 28.8475C87.6034 29.1596 86.053 29.3387 84.431 29.3848H84.165V19.5044V19.4992ZM82.9779 29.3848H82.7118C81.0898 29.3285 79.5394 29.1494 78.1016 28.8373L77.8765 28.7861L77.897 28.5559C78.1477 25.8798 78.1528 23.0042 77.9225 20.3128L77.9021 20.0826L78.1272 20.0365C79.5497 19.7295 81.0898 19.5504 82.7118 19.4992L82.9779 19.489V29.3745V29.3848ZM95.6622 24.442C95.6622 25.931 93.7742 27.4455 90.7297 28.3921L90.4227 28.4893L90.3971 28.167C90.2897 26.9083 90.2334 25.6086 90.2334 24.3039C90.2334 23.0912 90.2795 21.8836 90.3767 20.7068L90.4023 20.3844L90.7144 20.4816C93.7691 21.4282 95.6674 22.9479 95.6674 24.442H95.6622ZM91.5893 15.2728C93.2932 16.7669 94.5468 18.6908 95.212 20.8449L95.4422 21.5971L94.8078 21.1315C94.2347 20.7119 93.5439 20.323 92.7662 19.9853C92.1522 19.7142 91.4665 19.4686 90.7297 19.2537L90.5199 19.1923L90.5455 18.9722C90.699 17.734 90.9037 16.5367 91.1646 15.411L91.2619 14.9863L91.5893 15.2728ZM84.4413 12.2847C86.4368 12.4279 88.3811 13.0675 90.0748 14.1369L90.2334 14.2393L90.1874 14.4235C89.8548 15.7333 89.5887 17.1455 89.3994 18.6294L89.3635 18.9057L89.0873 18.8494C87.6034 18.5424 86.0326 18.3685 84.4157 18.3224H84.165V12.2693L84.4413 12.2898V12.2847ZM76.9094 14.2393L77.0681 14.1369C78.7566 13.0675 80.7061 12.4279 82.7016 12.2847L82.9779 12.2642V18.3122H82.7272C81.1103 18.3633 79.5343 18.5424 78.0556 18.8443L77.7793 18.9006L77.7435 18.6243C77.5541 17.1455 77.2881 15.7282 76.9555 14.4183L76.9094 14.2341V14.2393ZM71.9257 20.8449C72.5909 18.6908 73.8445 16.7669 75.5484 15.2728L75.8759 14.9863L75.9731 15.411C76.2289 16.5367 76.4387 17.734 76.5922 18.9722L76.6178 19.1923L76.408 19.2537C75.6712 19.4686 74.9855 19.7142 74.3715 19.9853C73.5887 20.3282 72.903 20.7119 72.3248 21.1315L71.6904 21.5971L71.9206 20.8449H71.9257ZM71.4806 24.442C71.4806 22.9479 73.3789 21.4282 76.4336 20.4816L76.7457 20.3844L76.7713 20.7068C76.9657 23.1475 76.9606 25.7468 76.7508 28.167L76.7252 28.4893L76.4182 28.3921C73.3789 27.4404 71.4857 25.9259 71.4857 24.442H71.4806ZM75.4972 33.56C73.8189 32.0762 72.5858 30.1625 71.9257 28.0391L71.6955 27.292L72.3248 27.7525C72.8979 28.1721 73.5887 28.5559 74.3715 28.8987C75.0009 29.1699 75.6712 29.4155 76.3722 29.6202L76.5871 29.6815L76.5564 29.9016C76.3978 31.1296 76.1829 32.3167 75.9219 33.427L75.8196 33.8465L75.4972 33.56ZM82.7016 36.5943C80.6856 36.451 78.7156 35.8012 77.0067 34.7062L76.848 34.6038L76.8941 34.4196C77.2369 33.1251 77.5081 31.718 77.7076 30.2444L77.7435 29.9681L78.0146 30.0244C79.4985 30.3314 81.0796 30.5104 82.722 30.5565H82.9728V36.6096L82.6965 36.5891L82.7016 36.5943ZM84.165 30.5667H84.4157C86.0581 30.5156 87.6443 30.3365 89.1231 30.0295L89.3942 29.9732L89.4301 30.2495C89.6296 31.7231 89.9008 33.1251 90.2436 34.4247L90.2897 34.609L90.1311 34.7113C88.4221 35.8063 86.4572 36.4612 84.4361 36.5993L84.1598 36.6198V30.5719L84.165 30.5667Z" fill="#478BF9"/>
<path d="M23.9925 0.626221L82.7837 0.626221C83.2698 0.626221 83.6587 1.02022 83.6587 1.50119C83.6587 1.98217 83.2647 2.37616 82.7837 2.37616L23.9925 2.37616C23.5064 2.37616 23.1175 1.98217 23.1175 1.50119C23.1175 1.02022 23.5115 0.626221 23.9925 0.626221Z" fill="#478BF9"/>
<path d="M23.8592 47.5974L82.6504 47.5974C83.1365 47.5974 83.5254 47.9914 83.5254 48.4724C83.5254 48.9533 83.1314 49.3473 82.6504 49.3473L23.8592 49.3473C23.3731 49.3473 22.9842 48.9533 22.9842 48.4724C22.9842 47.9914 23.3782 47.5974 23.8592 47.5974Z" fill="#478BF9"/>
<path d="M126.687 42.8143C117.106 33.2334 117.106 17.6459 126.687 8.06504C136.267 -1.51582 151.855 -1.51582 161.436 8.06504C171.017 17.6459 171.017 33.2334 161.436 42.8143C151.855 52.3952 136.267 52.3952 126.687 42.8143ZM160.278 9.22304C151.335 0.280591 136.787 0.280591 127.847 9.22304C118.904 18.1655 118.904 32.7139 127.847 41.654C136.789 50.5964 151.338 50.5964 160.278 41.654C169.22 32.7115 169.22 18.1632 160.278 9.22304Z" fill="white"/>
<path d="M160.543 20.2276C160.456 20.1414 160.387 20.0319 160.347 19.9108C159.497 17.3944 158.108 15.1646 156.221 13.2773C154.336 11.3924 152.104 10.0037 149.587 9.15093C149.254 9.03676 149.03 8.72688 149.03 8.37505V2.40333C149.03 2.15169 149.147 1.91403 149.345 1.75792C149.545 1.60181 149.804 1.54822 150.046 1.6088C154.347 2.68525 158.285 4.91737 161.43 8.06516C164.576 11.213 166.808 15.1483 167.884 19.4494C167.945 19.6941 167.889 19.9527 167.735 20.1531C167.579 20.3535 167.342 20.4676 167.09 20.4676H161.118C160.895 20.4676 160.689 20.3768 160.538 20.2253L160.543 20.2276ZM157.379 12.1193C159.303 14.0439 160.755 16.2993 161.701 18.8297H166.02C164.935 15.2135 162.961 11.9096 160.275 9.22316C157.588 6.5367 154.284 4.56321 150.671 3.47977V7.79955C153.201 8.74319 155.456 10.1948 157.381 12.1217L157.379 12.1193Z" fill="white"/>
<path d="M126.686 42.8144C123.54 39.669 121.306 35.7313 120.23 31.4302C120.169 31.1855 120.225 30.9269 120.379 30.7289C120.535 30.5285 120.772 30.4143 121.024 30.4143H126.996C127.348 30.4143 127.66 30.638 127.772 30.9712C128.622 33.4875 130.011 35.7173 131.898 37.6046C133.783 39.4896 136.015 40.8782 138.531 41.731C138.865 41.8428 139.088 42.1551 139.088 42.5069V48.4786C139.088 48.7302 138.972 48.9679 138.774 49.124C138.573 49.2801 138.315 49.3337 138.07 49.2731C133.769 48.1967 129.834 45.9646 126.686 42.8191V42.8144ZM122.098 32.05C123.184 35.6661 125.157 38.97 127.844 41.6564C130.53 44.3429 133.834 46.3164 137.45 47.4022V43.0824C134.92 42.1387 132.665 40.6872 130.74 38.7626C128.815 36.8381 127.364 34.5826 126.418 32.0523H122.098V32.05Z" fill="white"/>
<path d="M149.274 49.0541C149.12 48.9003 149.034 48.693 149.034 48.474V42.5022C149.034 42.1504 149.258 41.8382 149.591 41.7264C152.107 40.8759 154.337 39.4872 156.224 37.6C158.112 35.7127 159.498 33.4829 160.351 30.9665C160.463 30.6333 160.775 30.4097 161.127 30.4097H167.098C167.35 30.4097 167.588 30.5262 167.744 30.7242C167.9 30.9223 167.954 31.1832 167.893 31.4255C166.814 35.7267 164.582 39.662 161.437 42.8098C158.291 45.9576 154.354 48.1897 150.052 49.2662C149.808 49.3267 149.549 49.2708 149.351 49.117C149.325 49.0937 149.3 49.0728 149.277 49.0495L149.274 49.0541ZM150.672 43.0801V47.3998C154.288 46.3141 157.592 44.3406 160.279 41.6541C162.965 38.9677 164.936 35.6638 166.024 32.0476H161.705C160.761 34.578 159.309 36.8311 157.382 38.758C155.458 40.6825 153.203 42.1364 150.672 43.0801Z" fill="white"/>
<path d="M120.444 20.2275C120.421 20.2042 120.398 20.1786 120.379 20.153C120.223 19.9549 120.169 19.694 120.23 19.4493C121.306 15.1482 123.538 11.2105 126.686 8.06504C129.834 4.91957 133.769 2.68513 138.071 1.60868C138.315 1.5481 138.574 1.60402 138.772 1.7578C138.97 1.9139 139.086 2.15157 139.086 2.4032V8.37493C139.086 8.72676 138.863 9.03897 138.53 9.15081C136.013 10.0013 133.783 11.3899 131.896 13.2772C130.011 15.1621 128.622 17.3943 127.77 19.9106C127.658 20.2438 127.346 20.4675 126.994 20.4675H121.022C120.803 20.4675 120.593 20.3813 120.442 20.2298L120.444 20.2275ZM137.448 3.47965C133.832 4.56542 130.528 6.53891 127.842 9.22537C125.155 11.9118 123.184 15.2157 122.096 18.8319H126.416C127.36 16.3015 128.811 14.0484 130.738 12.1215C132.663 10.197 134.918 8.7454 137.448 7.79943V3.47965Z" fill="white"/>
<path d="M157.381 12.1193C150.037 4.77521 138.084 4.77288 130.74 12.1193C123.393 19.4657 123.396 31.4161 130.74 38.7602C138.084 46.1043 150.034 46.1066 157.381 38.7602C164.727 31.4138 164.725 19.4634 157.381 12.1193Z" fill="white"/>
<path d="M150.856 32.1634L137.324 32.2532C136.754 32.2569 136.295 32.7221 136.298 33.2922L136.302 33.7745C136.305 34.3445 136.771 34.8035 137.341 34.7998L150.873 34.71C151.443 34.7062 151.902 34.2411 151.898 33.671L151.895 33.1887C151.891 32.6187 151.426 32.1596 150.856 32.1634Z" fill="#110A1D"/>
<path d="M139.167 23.9954C139.02 23.9954 138.871 23.9628 138.736 23.8975L137.68 23.3872C137.221 23.1636 137.012 22.6207 137.203 22.1477L137.687 20.9408C137.837 20.5726 138.188 20.3327 138.585 20.3303C138.755 20.3303 138.922 20.3723 139.071 20.4585L140.33 21.1761C140.565 21.3089 140.735 21.5396 140.796 21.8052C140.856 22.0708 140.803 22.3504 140.649 22.5741L139.959 23.5736C139.78 23.8346 139.482 23.993 139.165 23.993L139.167 23.9954Z" fill="#110A1D"/>
<path d="M148.908 23.9301C148.591 23.9301 148.291 23.7787 148.109 23.52L147.426 22.5578C147.268 22.3364 147.212 22.0568 147.268 21.7912C147.324 21.5256 147.491 21.2926 147.727 21.1551L149.024 20.3932C149.171 20.307 149.339 20.2604 149.509 20.2581C149.905 20.2557 150.262 20.4911 150.416 20.8569L150.905 22.0288C151.101 22.4995 150.898 23.047 150.443 23.2754L149.339 23.8276C149.206 23.8928 149.057 23.9301 148.91 23.9301H148.908Z" fill="#110A1D"/>
<path d="M138.104 31.3485C137.51 31.3532 136.977 30.9804 136.774 30.4212L134.516 24.2072C134.372 24.2771 134.218 24.3307 134.062 24.3703C133.878 24.4169 133.691 24.4402 133.503 24.4402C133.393 24.4402 133.286 24.4355 133.181 24.4215C132.004 24.2724 131.112 23.2635 131.105 22.0752C131.096 20.7611 132.158 19.6847 133.472 19.6754C134.786 19.666 135.863 20.7285 135.87 22.0426C135.87 22.3455 135.819 22.6368 135.711 22.9094C135.653 23.0585 135.581 23.2006 135.497 23.3358L139.791 25.4141L143.076 20.6539C142.939 20.5957 142.806 20.5235 142.68 20.4373C142.443 20.2765 142.235 20.0761 142.068 19.8408C141.783 19.44 141.63 18.967 141.627 18.4778C141.618 17.1636 142.68 16.0872 143.994 16.0779C144.053 16.0779 144.113 16.0779 144.172 16.0825C145.348 16.1618 146.299 17.1054 146.385 18.282C146.425 18.8389 146.278 19.3725 145.961 19.8268C145.793 20.0645 145.588 20.2672 145.353 20.4279C145.229 20.5141 145.097 20.5864 144.959 20.6446L148.303 25.3558L152.527 23.2426C152.448 23.0911 152.385 22.9327 152.338 22.7672C152.282 22.5669 152.252 22.3572 152.252 22.1451C152.252 22.0496 152.257 21.9541 152.266 21.8609C152.401 20.6633 153.412 19.7546 154.617 19.7476C155.931 19.7383 157.007 20.8007 157.014 22.1148C157.024 23.3684 156.05 24.4215 154.799 24.5077L154.649 24.5124C154.407 24.5124 154.169 24.4798 153.939 24.4099C153.79 24.3633 153.645 24.305 153.51 24.2305L151.39 30.3234C151.196 30.8849 150.665 31.2623 150.071 31.267L138.104 31.3462V31.3485Z" fill="#110A1D"/>
<path d="M206.621 49.6024C200.379 49.6024 194.141 47.2282 189.388 42.4747C179.886 32.973 179.886 17.5153 189.388 8.01358C193.993 3.40852 200.113 0.875732 206.621 0.875732C213.13 0.875732 219.249 3.40852 223.854 8.01358C233.356 17.5153 233.356 32.973 223.854 42.4747C219.106 47.2231 212.864 49.6024 206.621 49.6024ZM190.667 41.1956C199.463 49.9912 213.774 49.9912 222.57 41.1956C231.366 32.3999 231.366 18.0884 222.57 9.29276C218.308 5.03052 212.644 2.68704 206.616 2.68704C200.589 2.68704 194.924 5.03564 190.662 9.29276C181.866 18.0884 181.866 32.3999 190.662 41.1956H190.667Z" fill="#7DDACF"/>
<path d="M207.523 20.1147L203.01 26.439H205.717V30.952L210.23 24.6328H207.523V20.1147Z" fill="#7DDACF"/>
<path d="M206.616 16.5994C201.674 16.5994 197.662 20.6109 197.662 25.5536C197.662 30.4964 201.674 34.4977 206.616 34.4977C211.559 34.4977 215.571 30.4862 215.571 25.5536C215.571 20.6211 211.559 16.5994 206.616 16.5994ZM206.616 33.3925C202.277 33.3925 198.757 29.8722 198.757 25.5332C198.757 21.1942 202.277 17.6739 206.616 17.6739C210.955 17.6739 214.476 21.1942 214.476 25.5332C214.476 29.8722 210.955 33.3925 206.616 33.3925Z" fill="#7DDACF"/>
<path d="M220.458 11.406C216.764 7.70664 211.847 5.67529 206.617 5.67529C201.388 5.67529 196.476 7.71176 192.776 11.406C185.147 19.0351 185.147 31.4534 192.776 39.0875C196.594 42.9046 201.603 44.8132 206.617 44.8132C211.632 44.8132 216.641 42.9046 220.458 39.0875C228.087 31.4585 228.087 19.0402 220.458 11.406ZM206.617 37.7009C199.925 37.7009 194.475 32.2516 194.475 25.5589C194.475 22.6014 195.534 19.8896 197.295 17.7713L195.811 16.2874C195.386 15.8627 195.386 15.172 195.811 14.7422C196.235 14.3124 196.926 14.3175 197.356 14.7422L198.84 16.226C200.682 14.6859 203 13.6728 205.527 13.4579V12.455H204.524C203.639 12.455 202.908 11.7233 202.908 10.8381V9.99381C202.908 9.09839 203.639 8.37694 204.524 8.37694L208.72 8.37694C209.605 8.37694 210.337 9.09839 210.337 9.99381V10.8381C210.337 11.7233 209.605 12.455 208.72 12.455H207.717V13.4579C210.25 13.6779 212.563 14.691 214.405 16.226L215.889 14.7422C216.313 14.3175 217.004 14.3175 217.434 14.7422C217.859 15.1668 217.859 15.8576 217.434 16.2874L215.95 17.7713C217.71 19.8896 218.769 22.5963 218.769 25.5589C218.769 32.2516 213.32 37.7009 206.627 37.7009H206.617Z" fill="#7DDACF"/>
<path d="M264.76 49.0992C251.329 49.0992 240.404 38.1699 240.404 24.7436C240.404 11.3173 251.334 0.387939 264.76 0.387939C278.186 0.387939 289.116 11.3173 289.116 24.7436C289.116 38.1699 278.186 49.0992 264.76 49.0992ZM264.76 2.00993C252.224 2.00993 242.026 12.2076 242.026 24.7436C242.026 37.2796 252.224 47.4772 264.76 47.4772C277.296 47.4772 287.494 37.2796 287.494 24.7436C287.494 12.2076 277.296 2.00993 264.76 2.00993Z" fill="white"/>
<path d="M280.652 7.36398L273.112 14.9041L274.595 16.3875L282.135 8.84739L280.652 7.36398Z" fill="white"/>
<path d="M254.698 33.3191L247.158 40.8591L248.641 42.3425L256.181 34.8025L254.698 33.3191Z" fill="white"/>
<path d="M274.824 33.3176L273.34 34.801L280.88 42.3411L282.364 40.8577L274.824 33.3176Z" fill="white"/>
<path d="M248.647 7.13549L247.164 8.6189L254.7 16.1553L256.183 14.6719L248.647 7.13549Z" fill="white"/>
<path d="M270.706 25.3986C271.197 24.9074 271.197 24.1143 270.706 23.6282L269.662 22.5895C269.171 22.0983 268.378 22.0983 267.892 22.5895L267.329 23.1523L266.679 22.5025C266.188 22.0113 265.395 22.0113 264.909 22.5025L264.346 23.0705L263.696 22.4155C263.205 21.9243 262.412 21.9243 261.926 22.4155L258.472 25.8693C258.446 25.8949 258.446 25.9358 258.472 25.9665C258.932 26.427 259.685 26.427 260.15 25.9665L262.376 23.7408C262.616 23.5003 263.005 23.5003 263.246 23.7408L263.409 23.9045C263.44 23.9352 263.44 23.9812 263.409 24.0119L261.552 25.8693C261.527 25.8949 261.527 25.9358 261.552 25.9665C262.013 26.427 262.765 26.427 263.23 25.9665L265.364 23.8329C265.605 23.5924 265.993 23.5924 266.234 23.8329L266.398 23.9966C266.423 24.0222 266.423 24.0631 266.398 24.0938L264.607 25.8847C264.581 25.9103 264.581 25.9512 264.607 25.9819C265.067 26.4424 265.819 26.4424 266.285 25.9819L268.347 23.9198C268.588 23.6794 268.976 23.6794 269.217 23.9198L269.57 24.2729C269.708 24.4111 269.708 24.6413 269.57 24.7795L269.514 24.8357C269.376 24.9739 269.145 24.9739 269.007 24.8357L268.552 24.3803C268.526 24.3548 268.485 24.3548 268.455 24.3803L267.667 25.1683C267.641 25.1939 267.641 25.2348 267.667 25.2655L268.378 25.9768C268.869 26.468 269.662 26.468 270.148 25.9768L270.711 25.4139L270.706 25.3986Z" fill="white"/>
<path d="M264.761 6.06226C254.445 6.06226 246.084 14.423 246.084 24.7383C246.084 35.0536 254.445 43.4144 264.761 43.4144C275.076 43.4144 283.437 35.0536 283.437 24.7383C283.437 14.423 275.076 6.06226 264.761 6.06226ZM265.523 11.8288C268.521 12.0028 271.243 13.2001 273.352 15.0728L270.655 17.7693C269.248 16.5771 267.472 15.8045 265.523 15.6408V11.8288ZM264.003 11.8288V15.6408C262.054 15.7994 260.278 16.5771 258.871 17.7693L256.175 15.0728C258.283 13.2001 261.005 12.0028 264.003 11.8288ZM255.1 16.1473L257.797 18.8439C256.604 20.251 255.832 22.0265 255.668 23.9759H251.856C252.03 20.9775 253.227 18.2554 255.1 16.1473ZM251.856 25.4956H255.668C255.827 27.4451 256.604 29.2206 257.797 30.6277L255.1 33.3242C253.227 31.2161 252.03 28.494 251.856 25.4956ZM264.003 37.6427C261.005 37.4687 258.283 36.2714 256.175 34.3987L258.871 31.7022C260.278 32.8944 262.054 33.667 264.003 33.8307V37.6427ZM256.911 24.7332C256.911 20.3993 260.427 16.8841 264.761 16.8841C269.094 16.8841 272.61 20.3993 272.61 24.7332C272.61 29.0671 269.094 32.5823 264.761 32.5823C260.427 32.5823 256.911 29.0671 256.911 24.7332ZM265.523 37.6427V33.8307C267.472 33.6721 269.248 32.8944 270.655 31.7022L273.352 34.3987C271.243 36.2714 268.521 37.4687 265.523 37.6427ZM274.426 33.3242L271.73 30.6277C272.922 29.2206 273.694 27.4451 273.858 25.4956L277.67 25.4956C277.496 28.494 276.299 31.2161 274.426 33.3242ZM273.858 23.9759C273.699 22.0265 272.922 20.251 271.73 18.8439L274.426 16.1473C276.299 18.2554 277.496 20.9775 277.67 23.9759L273.858 23.9759Z" fill="white"/>
<path d="M390.281 0.656738C403.713 0.656738 414.642 11.5861 414.642 25.0175C414.642 38.4489 403.713 49.3783 390.281 49.3783C376.85 49.3783 365.921 38.4489 365.921 25.0175C365.921 11.5861 376.85 0.656738 390.281 0.656738ZM390.281 47.6232C402.746 47.6232 412.887 37.4819 412.887 25.0175C412.887 12.5532 402.746 2.4118 390.281 2.4118C377.817 2.4118 367.676 12.5532 367.676 25.0175C367.676 37.4819 377.817 47.6232 390.281 47.6232Z" fill="#478BF9"/>
<path d="M330.728 0.655476C331.214 0.655476 331.603 1.04948 331.603 1.53045C331.603 2.01142 331.209 2.40542 330.728 2.40542C318.263 2.40542 308.122 12.5468 308.122 25.0111C308.122 37.4755 318.263 47.6168 330.728 47.6168C331.214 47.6168 331.603 48.0108 331.603 48.4918C331.603 48.9728 331.209 49.3668 330.728 49.3668C317.296 49.3668 306.367 38.4374 306.367 25.006C306.367 11.5746 317.296 0.645264 330.728 0.645264V0.655476Z" fill="#478BF9"/>
<path d="M390.87 48.6337V37.9653H388.767V48.6337H390.87Z" fill="#478BF9"/>
<path d="M390.87 11.9013V1.23291L388.767 1.23291V11.9013H390.87Z" fill="#478BF9"/>
<path d="M376.625 26.1523V24.0493L365.957 24.0493V26.1523L376.625 26.1523Z" fill="#478BF9"/>
<path d="M413.68 26.1523V24.0493L403.012 24.0493V26.1523L413.68 26.1523Z" fill="#478BF9"/>
<path d="M403.165 37.6432C410.462 30.3467 410.462 18.5117 403.165 11.2101C395.869 3.91368 384.034 3.91368 376.732 11.2101C369.436 18.5066 369.436 30.3416 376.732 37.6432C384.029 44.9396 395.864 44.9396 403.165 37.6432ZM401.584 28.0391C400.924 30.1676 399.691 32.0762 398.013 33.56L397.69 33.8465L397.593 33.427C397.332 32.3167 397.117 31.1296 396.959 29.9016L396.928 29.6815L397.143 29.6202C397.844 29.4155 398.519 29.175 399.144 28.8987C399.926 28.5559 400.612 28.1721 401.19 27.7525L401.82 27.292L401.589 28.0391H401.584ZM390.532 19.4992L390.798 19.5095C392.415 19.5607 393.96 19.7397 395.383 20.0467L395.608 20.0928L395.587 20.323C395.352 23.0144 395.362 25.8901 395.613 28.5661L395.634 28.7963L395.408 28.8475C393.971 29.1596 392.42 29.3387 390.798 29.3848H390.532V19.5044V19.4992ZM389.345 29.3848H389.079C387.457 29.3285 385.907 29.1494 384.469 28.8373L384.244 28.7861L384.264 28.5559C384.515 25.8798 384.52 23.0042 384.29 20.3128L384.269 20.0826L384.494 20.0365C385.917 19.7295 387.457 19.5504 389.079 19.4992L389.345 19.489V29.3745V29.3848ZM402.029 24.442C402.029 25.931 400.141 27.4455 397.097 28.3921L396.79 28.4893L396.764 28.167C396.657 26.9083 396.601 25.6086 396.601 24.3039C396.601 23.0912 396.647 21.8836 396.744 20.7068L396.769 20.3844L397.082 20.4816C400.136 21.4282 402.035 22.9479 402.035 24.442H402.029ZM397.957 15.2728C399.66 16.7669 400.914 18.6908 401.579 20.8449L401.809 21.5971L401.175 21.1315C400.602 20.7119 399.911 20.323 399.133 19.9853C398.519 19.7142 397.834 19.4686 397.097 19.2537L396.887 19.1923L396.913 18.9722C397.066 17.734 397.271 16.5367 397.532 15.411L397.629 14.9863L397.957 15.2728ZM390.808 12.2847C392.804 12.4279 394.748 13.0675 396.442 14.1369L396.601 14.2393L396.555 14.4235C396.222 15.7333 395.956 17.1455 395.767 18.6294L395.731 18.9057L395.454 18.8494C393.971 18.5424 392.4 18.3685 390.783 18.3224H390.532V12.2693L390.808 12.2898V12.2847ZM383.277 14.2393L383.435 14.1369C385.124 13.0675 387.073 12.4279 389.069 12.2847L389.345 12.2642V18.3122H389.094C387.477 18.3633 385.902 18.5424 384.423 18.8443L384.146 18.9006L384.111 18.6243C383.921 17.1455 383.655 15.7282 383.323 14.4183L383.277 14.2341V14.2393ZM378.293 20.8449C378.958 18.6908 380.212 16.7669 381.916 15.2728L382.243 14.9863L382.34 15.411C382.596 16.5367 382.806 17.734 382.959 18.9722L382.985 19.1923L382.775 19.2537C382.038 19.4686 381.353 19.7142 380.739 19.9853C379.956 20.3282 379.27 20.7119 378.692 21.1315L378.058 21.5971L378.288 20.8449H378.293ZM377.848 24.442C377.848 22.9479 379.746 21.4282 382.801 20.4816L383.113 20.3844L383.138 20.7068C383.333 23.1475 383.328 25.7468 383.118 28.167L383.092 28.4893L382.785 28.3921C379.746 27.4404 377.853 25.9259 377.853 24.442H377.848ZM381.864 33.56C380.186 32.0762 378.953 30.1625 378.293 28.0391L378.063 27.292L378.692 27.7525C379.265 28.1721 379.956 28.5559 380.739 28.8987C381.368 29.1699 382.038 29.4155 382.739 29.6202L382.954 29.6815L382.924 29.9016C382.765 31.1296 382.55 32.3167 382.289 33.427L382.187 33.8465L381.864 33.56ZM389.069 36.5943C387.053 36.451 385.083 35.8012 383.374 34.7062L383.215 34.6038L383.261 34.4196C383.604 33.1251 383.875 31.718 384.075 30.2444L384.111 29.9681L384.382 30.0244C385.866 30.3314 387.447 30.5104 389.089 30.5565H389.34V36.6096L389.064 36.5891L389.069 36.5943ZM390.532 30.5667H390.783C392.425 30.5156 394.012 30.3365 395.49 30.0295L395.761 29.9732L395.797 30.2495C395.997 31.7231 396.268 33.1251 396.611 34.4247L396.657 34.609L396.498 34.7113C394.789 35.8063 392.824 36.4612 390.803 36.5993L390.527 36.6198V30.5719L390.532 30.5667Z" fill="#478BF9"/>
<path d="M330.36 0.626221L389.151 0.626221C389.637 0.626221 390.026 1.02022 390.026 1.50119C390.026 1.98217 389.632 2.37616 389.151 2.37616L330.36 2.37616C329.874 2.37616 329.485 1.98217 329.485 1.50119C329.485 1.02022 329.879 0.626221 330.36 0.626221Z" fill="#478BF9"/>
<path d="M330.226 47.5974L389.018 47.5974C389.504 47.5974 389.893 47.9914 389.893 48.4724C389.893 48.9533 389.499 49.3473 389.018 49.3473L330.226 49.3473C329.74 49.3473 329.351 48.9533 329.351 48.4724C329.351 47.9914 329.745 47.5974 330.226 47.5974Z" fill="#478BF9"/>
<path d="M433.054 41.9349C423.473 32.354 423.473 16.7665 433.054 7.18564C442.635 -2.39521 458.222 -2.39521 467.803 7.18564C477.384 16.7665 477.384 32.354 467.803 41.9349C458.222 51.5158 442.635 51.5158 433.054 41.9349ZM466.645 8.34364C457.703 -0.598804 443.154 -0.598804 434.214 8.34364C425.272 17.2861 425.272 31.8345 434.214 40.7746C443.157 49.717 457.705 49.717 466.645 40.7746C475.588 31.8321 475.588 17.2838 466.645 8.34364Z" fill="white"/>
<path d="M466.91 19.3482C466.824 19.262 466.754 19.1525 466.715 19.0314C465.864 16.515 464.476 14.2852 462.588 12.3979C460.703 10.513 458.471 9.12431 455.955 8.27154C455.622 8.15737 455.398 7.84749 455.398 7.49566V1.52393C455.398 1.27229 455.514 1.03463 455.712 0.878524C455.913 0.722415 456.171 0.66883 456.414 0.729409C460.715 1.80586 464.653 4.03797 467.798 7.18577C470.944 10.3336 473.176 14.2689 474.252 18.57C474.313 18.8147 474.257 19.0733 474.103 19.2737C473.947 19.4741 473.709 19.5882 473.458 19.5882H467.486C467.262 19.5882 467.057 19.4974 466.906 19.3459L466.91 19.3482ZM463.746 11.2399C465.671 13.1645 467.122 15.4199 468.068 17.9503H472.388C471.302 14.3341 469.329 11.0302 466.642 8.34377C463.956 5.6573 460.652 3.68382 457.038 2.60038V6.92015C459.569 7.86379 461.824 9.31537 463.749 11.2423L463.746 11.2399Z" fill="white"/>
<path d="M433.054 41.9348C429.908 38.7893 427.674 34.8517 426.597 30.5505C426.537 30.3059 426.593 30.0473 426.746 29.8492C426.902 29.6488 427.14 29.5347 427.392 29.5347H433.363C433.715 29.5347 434.027 29.7583 434.139 30.0915C434.99 32.6079 436.378 34.8377 438.266 36.725C440.151 38.6099 442.383 39.9986 444.899 40.8514C445.232 40.9632 445.456 41.2754 445.456 41.6272V47.599C445.456 47.8506 445.34 48.0883 445.141 48.2444C444.941 48.4005 444.682 48.4541 444.438 48.3935C440.137 47.317 436.201 45.0849 433.054 41.9395V41.9348ZM428.466 31.1703C429.552 34.7864 431.525 38.0903 434.212 40.7768C436.898 43.4633 440.202 45.4368 443.818 46.5225V42.2027C441.288 41.2591 439.032 39.8075 437.108 37.883C435.183 35.9584 433.732 33.703 432.786 31.1726H428.466V31.1703Z" fill="white"/>
<path d="M455.642 48.1747C455.488 48.0209 455.402 47.8136 455.402 47.5946V41.6228C455.402 41.271 455.626 40.9588 455.959 40.847C458.475 39.9965 460.705 38.6079 462.592 36.7206C464.479 34.8333 465.866 32.6035 466.719 30.0871C466.83 29.7539 467.143 29.5303 467.494 29.5303H473.466C473.718 29.5303 473.955 29.6468 474.112 29.8448C474.268 30.0429 474.321 30.3038 474.261 30.5461C473.182 34.8473 470.95 38.7826 467.804 41.9304C464.659 45.0782 460.721 47.3103 456.42 48.3868C456.175 48.4473 455.917 48.3914 455.719 48.2376C455.693 48.2143 455.667 48.1934 455.644 48.1701L455.642 48.1747ZM457.04 42.2007V46.5204C460.656 45.4347 463.96 43.4612 466.646 40.7747C469.333 38.0883 471.304 34.7844 472.392 31.1682H468.072C467.129 33.6986 465.677 35.9517 463.75 37.8786C461.826 39.8031 459.57 41.257 457.04 42.2007Z" fill="white"/>
<path d="M426.812 19.3481C426.789 19.3248 426.765 19.2992 426.747 19.2736C426.591 19.0755 426.537 18.8146 426.598 18.5699C427.674 14.2688 429.906 10.3311 433.054 7.18565C436.202 4.04018 440.137 1.80574 444.438 0.729287C444.683 0.668708 444.941 0.724623 445.14 0.878402C445.338 1.03451 445.454 1.27217 445.454 1.52381V7.49554C445.454 7.84736 445.23 8.15958 444.897 8.27142C442.381 9.12186 440.151 10.5105 438.264 12.3978C436.379 14.2828 434.99 16.5149 434.137 19.0312C434.026 19.3644 433.713 19.5881 433.361 19.5881H427.39C427.171 19.5881 426.961 19.5019 426.81 19.3505L426.812 19.3481ZM443.816 2.60026C440.2 3.68603 436.896 5.65952 434.21 8.34598C431.523 11.0324 429.552 14.3363 428.464 17.9525H432.784C433.727 15.4221 435.179 13.169 437.106 11.2421C439.03 9.31757 441.286 7.866 443.816 6.92003V2.60026Z" fill="white"/>
<path d="M463.748 11.2399C456.404 3.89581 444.451 3.89348 437.107 11.2399C429.761 18.5863 429.763 30.5367 437.107 37.8808C444.451 45.2249 456.402 45.2272 463.748 37.8808C471.094 30.5344 471.092 18.584 463.748 11.2399Z" fill="white"/>
<path d="M457.224 31.2838L443.691 31.3735C443.121 31.3773 442.662 31.8425 442.666 32.4125L442.669 32.8948C442.673 33.4649 443.138 33.9239 443.708 33.9201L457.24 33.8304C457.81 33.8266 458.27 33.3614 458.266 32.7914L458.263 32.3091C458.259 31.739 457.794 31.28 457.224 31.2838Z" fill="#110A1D"/>
<path d="M445.535 23.1155C445.388 23.1155 445.239 23.0829 445.104 23.0176L444.048 22.5074C443.589 22.2837 443.379 21.7408 443.571 21.2678L444.055 20.0609C444.204 19.6928 444.556 19.4528 444.952 19.4504C445.122 19.4504 445.29 19.4924 445.439 19.5786L446.697 20.2962C446.933 20.429 447.103 20.6597 447.163 20.9253C447.224 21.1909 447.17 21.4705 447.017 21.6942L446.327 22.6938C446.147 22.9547 445.849 23.1132 445.532 23.1132L445.535 23.1155Z" fill="#110A1D"/>
<path d="M455.276 23.0505C454.959 23.0505 454.658 22.899 454.476 22.6404L453.794 21.6781C453.635 21.4568 453.579 21.1772 453.635 20.9116C453.691 20.6459 453.859 20.4129 454.094 20.2755L455.392 19.5136C455.539 19.4274 455.707 19.3808 455.877 19.3784C456.273 19.3761 456.629 19.6114 456.783 19.9772L457.272 21.1492C457.468 21.6199 457.265 22.1674 456.811 22.3957L455.707 22.948C455.574 23.0132 455.425 23.0505 455.278 23.0505H455.276Z" fill="#110A1D"/>
<path d="M444.471 30.4689C443.877 30.4736 443.344 30.1008 443.141 29.5416L440.883 23.3275C440.739 23.3974 440.585 23.451 440.429 23.4906C440.245 23.5372 440.058 23.5605 439.87 23.5605C439.76 23.5605 439.653 23.5559 439.548 23.5419C438.372 23.3928 437.479 22.3839 437.472 21.1956C437.463 19.8815 438.525 18.805 439.839 18.7957C441.154 18.7864 442.23 19.8489 442.237 21.163C442.237 21.4659 442.186 21.7571 442.079 22.0297C442.02 22.1788 441.948 22.321 441.864 22.4561L446.158 24.5345L449.444 19.7743C449.306 19.7161 449.173 19.6438 449.048 19.5576C448.81 19.3969 448.603 19.1965 448.435 18.9612C448.15 18.5604 447.997 18.0874 447.994 17.5981C447.985 16.284 449.048 15.2076 450.362 15.1982C450.42 15.1982 450.48 15.1982 450.539 15.2029C451.715 15.2821 452.666 16.2258 452.752 17.4024C452.792 17.9593 452.645 18.4928 452.328 18.9472C452.16 19.1848 451.955 19.3875 451.72 19.5483C451.597 19.6345 451.464 19.7067 451.326 19.765L454.67 24.4762L458.894 22.3629C458.815 22.2115 458.752 22.053 458.705 21.8876C458.649 21.6872 458.619 21.4775 458.619 21.2655C458.619 21.17 458.624 21.0744 458.633 20.9812C458.768 19.7836 459.779 18.8749 460.984 18.868C462.298 18.8586 463.375 19.9211 463.382 21.2352C463.391 22.4887 462.417 23.5419 461.166 23.6281L461.017 23.6327C460.774 23.6327 460.537 23.6001 460.306 23.5302C460.157 23.4836 460.012 23.4254 459.877 23.3508L457.757 29.4437C457.564 30.0052 457.032 30.3827 456.438 30.3874L444.471 30.4666V30.4689Z" fill="#110A1D"/>
<path d="M512.988 49.1414C506.746 49.1414 500.509 46.7673 495.755 42.0138C486.253 32.512 486.253 17.0544 495.755 7.55264C500.36 2.94758 506.48 0.414795 512.988 0.414795C519.497 0.414795 525.616 2.94758 530.222 7.55264C539.723 17.0544 539.723 32.512 530.222 42.0138C525.473 46.7621 519.231 49.1414 512.988 49.1414ZM497.034 40.7346C505.83 49.5303 520.142 49.5303 528.937 40.7346C537.733 31.939 537.733 17.6275 528.937 8.83182C524.675 4.56959 519.011 2.22611 512.983 2.22611C506.956 2.22611 501.292 4.5747 497.029 8.83182C488.234 17.6275 488.234 31.939 497.029 40.7346H497.034Z" fill="#7DDACF"/>
<path d="M513.89 19.6538L509.377 25.9781H512.084V30.491L516.597 24.1719H513.89V19.6538Z" fill="#7DDACF"/>
<path d="M512.984 16.1384C508.041 16.1384 504.029 20.1499 504.029 25.0927C504.029 30.0355 508.041 34.0368 512.984 34.0368C517.926 34.0368 521.938 30.0252 521.938 25.0927C521.938 20.1602 517.926 16.1384 512.984 16.1384ZM512.984 32.9315C508.645 32.9315 505.124 29.4112 505.124 25.0723C505.124 20.7333 508.645 17.213 512.984 17.213C517.323 17.213 520.843 20.7333 520.843 25.0723C520.843 29.4112 517.323 32.9315 512.984 32.9315Z" fill="#7DDACF"/>
<path d="M526.825 10.9451C523.131 7.2457 518.214 5.21436 512.984 5.21436C507.755 5.21436 502.843 7.25082 499.144 10.9451C491.515 18.5741 491.515 30.9924 499.144 38.6266C502.961 42.4437 507.97 44.3522 512.984 44.3522C517.999 44.3522 523.008 42.4437 526.825 38.6266C534.454 30.9976 534.454 18.5793 526.825 10.9451ZM512.984 37.24C506.292 37.24 500.842 31.7906 500.842 25.098C500.842 22.1405 501.902 19.4286 503.662 17.3103L502.178 15.8264C501.753 15.4018 501.753 14.711 502.178 14.2812C502.603 13.8514 503.293 13.8565 503.723 14.2812L505.207 15.7651C507.049 14.2249 509.367 13.2118 511.895 12.9969V11.994H510.892C510.006 11.994 509.275 11.2623 509.275 10.3772V9.53288C509.275 8.63745 510.006 7.916 510.892 7.916L515.087 7.916C515.973 7.916 516.704 8.63745 516.704 9.53288V10.3772C516.704 11.2623 515.973 11.994 515.087 11.994H514.085V12.9969C516.617 13.2169 518.93 14.23 520.772 15.7651L522.256 14.2812C522.681 13.8565 523.371 13.8565 523.801 14.2812C524.226 14.7059 524.226 15.3966 523.801 15.8264L522.317 17.3103C524.077 19.4286 525.137 22.1354 525.137 25.098C525.137 31.7906 519.687 37.24 512.995 37.24H512.984Z" fill="#7DDACF"/>
<path d="M571.127 49.5907C557.696 49.5907 546.771 38.6613 546.771 25.235C546.771 11.8087 557.701 0.879395 571.127 0.879395C584.553 0.879395 595.483 11.8087 595.483 25.235C595.483 38.6613 584.553 49.5907 571.127 49.5907ZM571.127 2.50139C558.591 2.50139 548.394 12.699 548.394 25.235C548.394 37.771 558.591 47.9686 571.127 47.9686C583.663 47.9686 593.861 37.771 593.861 25.235C593.861 12.699 583.663 2.50139 571.127 2.50139Z" fill="white"/>
<path d="M587.02 7.85567L579.479 15.3958L580.963 16.8792L588.503 9.33909L587.02 7.85567Z" fill="white"/>
<path d="M561.065 33.8108L553.525 41.3508L555.008 42.8342L562.548 35.2942L561.065 33.8108Z" fill="white"/>
<path d="M581.191 33.8093L579.708 35.2927L587.248 42.8328L588.731 41.3494L581.191 33.8093Z" fill="white"/>
<path d="M555.014 7.62695L553.531 9.11035L561.067 16.6468L562.551 15.1634L555.014 7.62695Z" fill="white"/>
<path d="M577.073 25.89C577.564 25.3988 577.564 24.6057 577.073 24.1196L576.029 23.0809C575.538 22.5897 574.745 22.5897 574.259 23.0809L573.696 23.6438L573.046 22.994C572.555 22.5028 571.762 22.5028 571.276 22.994L570.713 23.5619L570.063 22.907C569.572 22.4158 568.779 22.4158 568.293 22.907L564.839 26.3608C564.813 26.3864 564.813 26.4273 564.839 26.458C565.3 26.9185 566.052 26.9185 566.517 26.458L568.743 24.2322C568.984 23.9917 569.372 23.9917 569.613 24.2322L569.777 24.3959C569.807 24.4266 569.807 24.4727 569.777 24.5034L567.919 26.3608C567.894 26.3864 567.894 26.4273 567.919 26.458C568.38 26.9185 569.132 26.9185 569.598 26.458L571.731 24.3243C571.972 24.0838 572.361 24.0838 572.601 24.3243L572.765 24.488C572.79 24.5136 572.79 24.5546 572.765 24.5853L570.974 26.3761C570.948 26.4017 570.948 26.4426 570.974 26.4733C571.434 26.9338 572.187 26.9338 572.652 26.4733L574.714 24.4113C574.955 24.1708 575.344 24.1708 575.584 24.4113L575.937 24.7644C576.075 24.9025 576.075 25.1328 575.937 25.2709L575.881 25.3272C575.743 25.4653 575.513 25.4653 575.374 25.3272L574.919 24.8718C574.893 24.8462 574.852 24.8462 574.822 24.8718L574.034 25.6598C574.008 25.6854 574.008 25.7263 574.034 25.757L574.745 26.4682C575.236 26.9594 576.029 26.9594 576.515 26.4682L577.078 25.9054L577.073 25.89Z" fill="white"/>
<path d="M571.128 6.55396C560.812 6.55396 552.452 14.9147 552.452 25.23C552.452 35.5453 560.812 43.9061 571.128 43.9061C581.443 43.9061 589.804 35.5453 589.804 25.23C589.804 14.9147 581.443 6.55396 571.128 6.55396ZM571.89 12.3205C574.889 12.4945 577.611 13.6918 579.719 15.5645L577.022 18.261C575.615 17.0688 573.84 16.2962 571.89 16.1325V12.3205ZM570.37 12.3205V16.1325C568.421 16.2911 566.645 17.0688 565.238 18.261L562.542 15.5645C564.65 13.6918 567.372 12.4945 570.37 12.3205ZM561.467 16.639L564.164 19.3356C562.972 20.7427 562.199 22.5182 562.035 24.4676H558.223C558.397 21.4692 559.595 18.7471 561.467 16.639ZM558.223 25.9873H562.035C562.194 27.9368 562.972 29.7123 564.164 31.1194L561.467 33.8159C559.595 31.7078 558.397 28.9857 558.223 25.9873ZM570.37 38.1344C567.372 37.9604 564.65 36.7631 562.542 34.8904L565.238 32.1939C566.645 33.3861 568.421 34.1587 570.37 34.3224V38.1344ZM563.279 25.2249C563.279 20.891 566.794 17.3758 571.128 17.3758C575.462 17.3758 578.977 20.891 578.977 25.2249C578.977 29.5588 575.462 33.074 571.128 33.074C566.794 33.074 563.279 29.5588 563.279 25.2249ZM571.89 38.1344V34.3224C573.84 34.1638 575.615 33.3861 577.022 32.1939L579.719 34.8904C577.611 36.7631 574.889 37.9604 571.89 38.1344ZM580.793 33.8159L578.097 31.1194C579.289 29.7123 580.062 27.9368 580.225 25.9873L584.037 25.9873C583.863 28.9857 582.666 31.7078 580.793 33.8159ZM580.225 24.4676C580.067 22.5182 579.289 20.7427 578.097 19.3356L580.793 16.639C582.666 18.7471 583.863 21.4692 584.037 24.4676L580.225 24.4676Z" fill="white"/>
<path d="M697.042 0.656738C710.474 0.656738 721.403 11.5861 721.403 25.0175C721.403 38.4489 710.474 49.3783 697.042 49.3783C683.611 49.3783 672.681 38.4489 672.681 25.0175C672.681 11.5861 683.611 0.656738 697.042 0.656738ZM697.042 47.6232C709.506 47.6232 719.648 37.4819 719.648 25.0175C719.648 12.5532 709.506 2.4118 697.042 2.4118C684.578 2.4118 674.436 12.5532 674.436 25.0175C674.436 37.4819 684.578 47.6232 697.042 47.6232Z" fill="#478BF9"/>
<path d="M637.488 0.655476C637.974 0.655476 638.363 1.04948 638.363 1.53045C638.363 2.01142 637.969 2.40542 637.488 2.40542C625.024 2.40542 614.883 12.5468 614.883 25.0111C614.883 37.4755 625.024 47.6168 637.488 47.6168C637.974 47.6168 638.363 48.0108 638.363 48.4918C638.363 48.9728 637.969 49.3668 637.488 49.3668C624.057 49.3668 613.128 38.4374 613.128 25.006C613.128 11.5746 624.057 0.645264 637.488 0.645264V0.655476Z" fill="#478BF9"/>
<path d="M697.63 48.6337V37.9653H695.527V48.6337H697.63Z" fill="#478BF9"/>
<path d="M697.63 11.9013V1.23291L695.527 1.23291V11.9013H697.63Z" fill="#478BF9"/>
<path d="M683.386 26.1523V24.0493L672.717 24.0493V26.1523L683.386 26.1523Z" fill="#478BF9"/>
<path d="M720.441 26.1523V24.0493L709.773 24.0493V26.1523L720.441 26.1523Z" fill="#478BF9"/>
<path d="M709.926 37.6432C717.223 30.3467 717.223 18.5117 709.926 11.2101C702.63 3.91368 690.795 3.91368 683.493 11.2101C676.197 18.5066 676.197 30.3416 683.493 37.6432C690.79 44.9396 702.625 44.9396 709.926 37.6432ZM708.345 28.0391C707.685 30.1676 706.452 32.0762 704.774 33.56L704.451 33.8465L704.354 33.427C704.093 32.3167 703.878 31.1296 703.719 29.9016L703.689 29.6815L703.904 29.6202C704.605 29.4155 705.28 29.175 705.904 28.8987C706.687 28.5559 707.373 28.1721 707.951 27.7525L708.58 27.292L708.35 28.0391H708.345ZM697.293 19.4992L697.559 19.5095C699.176 19.5607 700.721 19.7397 702.144 20.0467L702.369 20.0928L702.348 20.323C702.113 23.0144 702.123 25.8901 702.374 28.5661L702.394 28.7963L702.169 28.8475C700.731 29.1596 699.181 29.3387 697.559 29.3848H697.293V19.5044V19.4992ZM696.106 29.3848H695.84C694.218 29.3285 692.667 29.1494 691.23 28.8373L691.004 28.7861L691.025 28.5559C691.276 25.8798 691.281 23.0042 691.05 20.3128L691.03 20.0826L691.255 20.0365C692.678 19.7295 694.218 19.5504 695.84 19.4992L696.106 19.489V29.3745V29.3848ZM708.79 24.442C708.79 25.931 706.902 27.4455 703.858 28.3921L703.551 28.4893L703.525 28.167C703.418 26.9083 703.361 25.6086 703.361 24.3039C703.361 23.0912 703.407 21.8836 703.505 20.7068L703.53 20.3844L703.842 20.4816C706.897 21.4282 708.795 22.9479 708.795 24.442H708.79ZM704.717 15.2728C706.421 16.7669 707.675 18.6908 708.34 20.8449L708.57 21.5971L707.936 21.1315C707.363 20.7119 706.672 20.323 705.894 19.9853C705.28 19.7142 704.594 19.4686 703.858 19.2537L703.648 19.1923L703.673 18.9722C703.827 17.734 704.032 16.5367 704.293 15.411L704.39 14.9863L704.717 15.2728ZM697.569 12.2847C699.565 12.4279 701.509 13.0675 703.203 14.1369L703.361 14.2393L703.315 14.4235C702.983 15.7333 702.717 17.1455 702.527 18.6294L702.491 18.9057L702.215 18.8494C700.731 18.5424 699.16 18.3685 697.544 18.3224H697.293V12.2693L697.569 12.2898V12.2847ZM690.037 14.2393L690.196 14.1369C691.885 13.0675 693.834 12.4279 695.83 12.2847L696.106 12.2642V18.3122H695.855C694.238 18.3633 692.662 18.5424 691.184 18.8443L690.907 18.9006L690.871 18.6243C690.682 17.1455 690.416 15.7282 690.083 14.4183L690.037 14.2341V14.2393ZM685.054 20.8449C685.719 18.6908 686.972 16.7669 688.676 15.2728L689.004 14.9863L689.101 15.411C689.357 16.5367 689.567 17.734 689.72 18.9722L689.746 19.1923L689.536 19.2537C688.799 19.4686 688.113 19.7142 687.499 19.9853C686.717 20.3282 686.031 20.7119 685.453 21.1315L684.818 21.5971L685.049 20.8449H685.054ZM684.609 24.442C684.609 22.9479 686.507 21.4282 689.562 20.4816L689.874 20.3844L689.899 20.7068C690.094 23.1475 690.089 25.7468 689.879 28.167L689.853 28.4893L689.546 28.3921C686.507 27.4404 684.614 25.9259 684.614 24.442H684.609ZM688.625 33.56C686.947 32.0762 685.714 30.1625 685.054 28.0391L684.823 27.292L685.453 27.7525C686.026 28.1721 686.717 28.5559 687.499 28.8987C688.129 29.1699 688.799 29.4155 689.5 29.6202L689.715 29.6815L689.684 29.9016C689.526 31.1296 689.311 32.3167 689.05 33.427L688.948 33.8465L688.625 33.56ZM695.83 36.5943C693.814 36.451 691.844 35.8012 690.135 34.7062L689.976 34.6038L690.022 34.4196C690.365 33.1251 690.636 31.718 690.836 30.2444L690.871 29.9681L691.143 30.0244C692.626 30.3314 694.207 30.5104 695.85 30.5565H696.101V36.6096L695.824 36.5891L695.83 36.5943ZM697.293 30.5667H697.544C699.186 30.5156 700.772 30.3365 702.251 30.0295L702.522 29.9732L702.558 30.2495C702.758 31.7231 703.029 33.1251 703.372 34.4247L703.418 34.609L703.259 34.7113C701.55 35.8063 699.585 36.4612 697.564 36.5993L697.288 36.6198V30.5719L697.293 30.5667Z" fill="#478BF9"/>
<path d="M637.12 0.626221L695.912 0.626221C696.398 0.626221 696.787 1.02022 696.787 1.50119C696.787 1.98217 696.393 2.37616 695.912 2.37616L637.12 2.37616C636.634 2.37616 636.245 1.98217 636.245 1.50119C636.245 1.02022 636.639 0.626221 637.12 0.626221Z" fill="#478BF9"/>
<path d="M636.987 47.5974L695.778 47.5974C696.264 47.5974 696.653 47.9914 696.653 48.4724C696.653 48.9533 696.259 49.3473 695.778 49.3473L636.987 49.3473C636.501 49.3473 636.112 48.9533 636.112 48.4724C636.112 47.9914 636.506 47.5974 636.987 47.5974Z" fill="#478BF9"/>
<path d="M739.815 41.9349C730.234 32.354 730.234 16.7665 739.815 7.18564C749.395 -2.39521 764.983 -2.39521 774.564 7.18564C784.145 16.7665 784.145 32.354 774.564 41.9349C764.983 51.5158 749.395 51.5158 739.815 41.9349ZM773.406 8.34364C764.463 -0.598804 749.915 -0.598804 740.975 8.34364C732.032 17.2861 732.032 31.8345 740.975 40.7746C749.917 49.717 764.466 49.717 773.406 40.7746C782.348 31.8321 782.348 17.2838 773.406 8.34364Z" fill="white"/>
<path d="M773.671 19.3482C773.585 19.262 773.515 19.1525 773.475 19.0314C772.625 16.515 771.236 14.2852 769.349 12.3979C767.464 10.513 765.232 9.12431 762.716 8.27154C762.382 8.15737 762.159 7.84749 762.159 7.49566V1.52393C762.159 1.27229 762.275 1.03463 762.473 0.878524C762.674 0.722415 762.932 0.66883 763.175 0.729409C767.476 1.80586 771.413 4.03797 774.559 7.18577C777.704 10.3336 779.936 14.2689 781.013 18.57C781.073 18.8147 781.018 19.0733 780.864 19.2737C780.708 19.4741 780.47 19.5882 780.218 19.5882H774.247C774.023 19.5882 773.818 19.4974 773.666 19.3459L773.671 19.3482ZM770.507 11.2399C772.432 13.1645 773.883 15.4199 774.829 17.9503H779.149C778.063 14.3341 776.09 11.0302 773.403 8.34377C770.717 5.6573 767.413 3.68382 763.799 2.60038V6.92015C766.329 7.86379 768.585 9.31537 770.509 11.2423L770.507 11.2399Z" fill="white"/>
<path d="M739.814 41.9348C736.669 38.7893 734.434 34.8517 733.358 30.5505C733.297 30.3059 733.353 30.0473 733.507 29.8492C733.663 29.6488 733.901 29.5347 734.152 29.5347H740.124C740.476 29.5347 740.788 29.7583 740.9 30.0915C741.751 32.6079 743.139 34.8377 745.026 36.725C746.911 38.6099 749.144 39.9986 751.66 40.8514C751.993 40.9632 752.217 41.2754 752.217 41.6272V47.599C752.217 47.8506 752.1 48.0883 751.902 48.2444C751.702 48.4005 751.443 48.4541 751.199 48.3935C746.897 47.317 742.962 45.0849 739.814 41.9395V41.9348ZM735.227 31.1703C736.312 34.7864 738.286 38.0903 740.972 40.7768C743.659 43.4633 746.963 45.4368 750.579 46.5225V42.2027C748.048 41.2591 745.793 39.8075 743.868 37.883C741.944 35.9584 740.492 33.703 739.546 31.1726H735.227V31.1703Z" fill="white"/>
<path d="M762.403 48.1747C762.249 48.0209 762.163 47.8136 762.163 47.5946V41.6228C762.163 41.271 762.386 40.9588 762.719 40.847C765.236 39.9965 767.466 38.6079 769.353 36.7206C771.24 34.8333 772.627 32.6035 773.479 30.0871C773.591 29.7539 773.903 29.5303 774.255 29.5303H780.227C780.479 29.5303 780.716 29.6468 780.872 29.8448C781.028 30.0429 781.082 30.3038 781.021 30.5461C779.943 34.8473 777.711 38.7826 774.565 41.9304C771.42 45.0782 767.482 47.3103 763.181 48.3868C762.936 48.4473 762.678 48.3914 762.479 48.2376C762.454 48.2143 762.428 48.1934 762.405 48.1701L762.403 48.1747ZM763.801 42.2007V46.5204C767.417 45.4347 770.721 43.4612 773.407 40.7747C776.094 38.0883 778.065 34.7844 779.153 31.1682H774.833C773.889 33.6986 772.438 35.9517 770.511 37.8786C768.586 39.8031 766.331 41.257 763.801 42.2007Z" fill="white"/>
<path d="M733.573 19.3481C733.549 19.3248 733.526 19.2992 733.507 19.2736C733.351 19.0755 733.298 18.8146 733.358 18.5699C734.435 14.2688 736.667 10.3311 739.815 7.18565C742.962 4.04018 746.898 1.80574 751.199 0.729287C751.444 0.668708 751.702 0.724623 751.9 0.878402C752.098 1.03451 752.215 1.27217 752.215 1.52381V7.49554C752.215 7.84736 751.991 8.15958 751.658 8.27142C749.142 9.12186 746.912 10.5105 745.024 12.3978C743.14 14.2828 741.751 16.5149 740.898 19.0312C740.786 19.3644 740.474 19.5881 740.122 19.5881H734.151C733.931 19.5881 733.722 19.5019 733.57 19.3505L733.573 19.3481ZM750.577 2.60026C746.961 3.68603 743.657 5.65952 740.97 8.34598C738.284 11.0324 736.313 14.3363 735.225 17.9525H739.544C740.488 15.4221 741.94 13.169 743.866 11.2421C745.791 9.31757 748.046 7.866 750.577 6.92003V2.60026Z" fill="white"/>
<path d="M770.509 11.2399C763.165 3.89581 751.212 3.89348 743.868 11.2399C736.521 18.5863 736.524 30.5367 743.868 37.8808C751.212 45.2249 763.162 45.2272 770.509 37.8808C777.855 30.5344 777.853 18.584 770.509 11.2399Z" fill="white"/>
<path d="M763.984 31.2838L750.452 31.3735C749.882 31.3773 749.423 31.8425 749.427 32.4125L749.43 32.8948C749.434 33.4649 749.899 33.9239 750.469 33.9201L764.001 33.8304C764.571 33.8266 765.03 33.3614 765.026 32.7914L765.023 32.3091C765.02 31.739 764.554 31.28 763.984 31.2838Z" fill="#110A1D"/>
<path d="M752.295 23.1155C752.149 23.1155 752 23.0829 751.864 23.0176L750.809 22.5074C750.35 22.2837 750.14 21.7408 750.331 21.2678L750.816 20.0609C750.965 19.6928 751.317 19.4528 751.713 19.4504C751.883 19.4504 752.051 19.4924 752.2 19.5786L753.458 20.2962C753.693 20.429 753.864 20.6597 753.924 20.9253C753.985 21.1909 753.931 21.4705 753.777 21.6942L753.088 22.6938C752.908 22.9547 752.61 23.1132 752.293 23.1132L752.295 23.1155Z" fill="#110A1D"/>
<path d="M762.036 23.0505C761.72 23.0505 761.419 22.899 761.237 22.6404L760.555 21.6781C760.396 21.4568 760.34 21.1772 760.396 20.9116C760.452 20.6459 760.62 20.4129 760.855 20.2755L762.153 19.5136C762.3 19.4274 762.467 19.3808 762.638 19.3784C763.034 19.3761 763.39 19.6114 763.544 19.9772L764.033 21.1492C764.229 21.6199 764.026 22.1674 763.572 22.3957L762.467 22.948C762.335 23.0132 762.186 23.0505 762.039 23.0505H762.036Z" fill="#110A1D"/>
<path d="M751.232 30.4689C750.638 30.4736 750.104 30.1008 749.902 29.5416L747.644 23.3275C747.5 23.3974 747.346 23.451 747.19 23.4906C747.006 23.5372 746.819 23.5605 746.63 23.5605C746.521 23.5605 746.414 23.5559 746.309 23.5419C745.132 23.3928 744.24 22.3839 744.233 21.1956C744.224 19.8815 745.286 18.805 746.6 18.7957C747.914 18.7864 748.991 19.8489 748.998 21.163C748.998 21.4659 748.946 21.7571 748.839 22.0297C748.781 22.1788 748.709 22.321 748.625 22.4561L752.919 24.5345L756.204 19.7743C756.067 19.7161 755.934 19.6438 755.808 19.5576C755.571 19.3969 755.363 19.1965 755.195 18.9612C754.911 18.5604 754.757 18.0874 754.755 17.5981C754.746 16.284 755.808 15.2076 757.122 15.1982C757.181 15.1982 757.241 15.1982 757.299 15.2029C758.476 15.2821 759.427 16.2258 759.513 17.4024C759.553 17.9593 759.406 18.4928 759.089 18.9472C758.921 19.1848 758.716 19.3875 758.481 19.5483C758.357 19.6345 758.224 19.7067 758.087 19.765L761.431 24.4762L765.655 22.3629C765.576 22.2115 765.513 22.053 765.466 21.8876C765.41 21.6872 765.38 21.4775 765.38 21.2655C765.38 21.17 765.384 21.0744 765.394 20.9812C765.529 19.7836 766.54 18.8749 767.745 18.868C769.059 18.8586 770.135 19.9211 770.142 21.2352C770.152 22.4887 769.178 23.5419 767.926 23.6281L767.777 23.6327C767.535 23.6327 767.297 23.6001 767.067 23.5302C766.918 23.4836 766.773 23.4254 766.638 23.3508L764.518 29.4437C764.324 30.0052 763.793 30.3827 763.199 30.3874L751.232 30.4666V30.4689Z" fill="#110A1D"/>
<path d="M819.749 49.1414C813.507 49.1414 807.269 46.7673 802.516 42.0138C793.014 32.512 793.014 17.0544 802.516 7.55264C807.121 2.94758 813.241 0.414795 819.749 0.414795C826.258 0.414795 832.377 2.94758 836.982 7.55264C846.484 17.0544 846.484 32.512 836.982 42.0138C832.234 46.7621 825.992 49.1414 819.749 49.1414ZM803.795 40.7346C812.591 49.5303 826.902 49.5303 835.698 40.7346C844.494 31.939 844.494 17.6275 835.698 8.83182C831.436 4.56959 825.772 2.22611 819.744 2.22611C813.716 2.22611 808.052 4.5747 803.79 8.83182C794.994 17.6275 794.994 31.939 803.79 40.7346H803.795Z" fill="#7DDACF"/>
<path d="M820.651 19.6538L816.138 25.9781H818.845V30.491L823.358 24.1719H820.651V19.6538Z" fill="#7DDACF"/>
<path d="M819.744 16.1384C814.802 16.1384 810.79 20.1499 810.79 25.0927C810.79 30.0355 814.802 34.0368 819.744 34.0368C824.687 34.0368 828.699 30.0252 828.699 25.0927C828.699 20.1602 824.687 16.1384 819.744 16.1384ZM819.744 32.9315C815.405 32.9315 811.885 29.4112 811.885 25.0723C811.885 20.7333 815.405 17.213 819.744 17.213C824.083 17.213 827.604 20.7333 827.604 25.0723C827.604 29.4112 824.083 32.9315 819.744 32.9315Z" fill="#7DDACF"/>
<path d="M833.586 10.9451C829.892 7.2457 824.974 5.21436 819.745 5.21436C814.516 5.21436 809.604 7.25082 805.904 10.9451C798.275 18.5741 798.275 30.9924 805.904 38.6266C809.721 42.4437 814.731 44.3522 819.745 44.3522C824.76 44.3522 829.769 42.4437 833.586 38.6266C841.215 30.9976 841.215 18.5793 833.586 10.9451ZM819.745 37.24C813.052 37.24 807.603 31.7906 807.603 25.098C807.603 22.1405 808.662 19.4286 810.422 17.3103L808.939 15.8264C808.514 15.4018 808.514 14.711 808.939 14.2812C809.363 13.8514 810.054 13.8565 810.484 14.2812L811.968 15.7651C813.81 14.2249 816.128 13.2118 818.655 12.9969V11.994H817.652C816.767 11.994 816.036 11.2623 816.036 10.3772V9.53288C816.036 8.63745 816.767 7.916 817.652 7.916L821.848 7.916C822.733 7.916 823.465 8.63745 823.465 9.53288V10.3772C823.465 11.2623 822.733 11.994 821.848 11.994H820.845V12.9969C823.378 13.2169 825.691 14.23 827.533 15.7651L829.017 14.2812C829.441 13.8565 830.132 13.8565 830.562 14.2812C830.987 14.7059 830.987 15.3966 830.562 15.8264L829.078 17.3103C830.838 19.4286 831.897 22.1354 831.897 25.098C831.897 31.7906 826.448 37.24 819.755 37.24H819.745Z" fill="#7DDACF"/>
<path d="M877.888 49.5907C864.456 49.5907 853.532 38.6613 853.532 25.235C853.532 11.8087 864.462 0.879395 877.888 0.879395C891.314 0.879395 902.244 11.8087 902.244 25.235C902.244 38.6613 891.314 49.5907 877.888 49.5907ZM877.888 2.50139C865.352 2.50139 855.154 12.699 855.154 25.235C855.154 37.771 865.352 47.9686 877.888 47.9686C890.424 47.9686 900.622 37.771 900.622 25.235C900.622 12.699 890.424 2.50139 877.888 2.50139Z" fill="white"/>
<path d="M893.78 7.85567L886.24 15.3958L887.724 16.8792L895.264 9.33909L893.78 7.85567Z" fill="white"/>
<path d="M867.826 33.8108L860.286 41.3508L861.769 42.8342L869.309 35.2942L867.826 33.8108Z" fill="white"/>
<path d="M887.952 33.8093L886.469 35.2927L894.009 42.8328L895.492 41.3494L887.952 33.8093Z" fill="white"/>
<path d="M861.775 7.62695L860.292 9.11035L867.828 16.6468L869.311 15.1634L861.775 7.62695Z" fill="white"/>
<path d="M883.834 25.89C884.325 25.3988 884.325 24.6057 883.834 24.1196L882.79 23.0809C882.299 22.5897 881.506 22.5897 881.02 23.0809L880.457 23.6438L879.807 22.994C879.316 22.5028 878.523 22.5028 878.037 22.994L877.474 23.5619L876.824 22.907C876.333 22.4158 875.54 22.4158 875.054 22.907L871.6 26.3608C871.574 26.3864 871.574 26.4273 871.6 26.458C872.06 26.9185 872.812 26.9185 873.278 26.458L875.504 24.2322C875.744 23.9917 876.133 23.9917 876.374 24.2322L876.537 24.3959C876.568 24.4266 876.568 24.4727 876.537 24.5034L874.68 26.3608C874.654 26.3864 874.654 26.4273 874.68 26.458C875.141 26.9185 875.893 26.9185 876.358 26.458L878.492 24.3243C878.732 24.0838 879.121 24.0838 879.362 24.3243L879.526 24.488C879.551 24.5136 879.551 24.5546 879.526 24.5853L877.735 26.3761C877.709 26.4017 877.709 26.4426 877.735 26.4733C878.195 26.9338 878.947 26.9338 879.413 26.4733L881.475 24.4113C881.716 24.1708 882.104 24.1708 882.345 24.4113L882.698 24.7644C882.836 24.9025 882.836 25.1328 882.698 25.2709L882.642 25.3272C882.504 25.4653 882.273 25.4653 882.135 25.3272L881.68 24.8718C881.654 24.8462 881.613 24.8462 881.583 24.8718L880.795 25.6598C880.769 25.6854 880.769 25.7263 880.795 25.757L881.506 26.4682C881.997 26.9594 882.79 26.9594 883.276 26.4682L883.839 25.9054L883.834 25.89Z" fill="white"/>
<path d="M877.888 6.55396C867.573 6.55396 859.212 14.9147 859.212 25.23C859.212 35.5453 867.573 43.9061 877.888 43.9061C888.204 43.9061 896.565 35.5453 896.565 25.23C896.565 14.9147 888.204 6.55396 877.888 6.55396ZM878.651 12.3205C881.649 12.4945 884.371 13.6918 886.479 15.5645L883.783 18.261C882.376 17.0688 880.6 16.2962 878.651 16.1325V12.3205ZM877.131 12.3205V16.1325C875.182 16.2911 873.406 17.0688 871.999 18.261L869.303 15.5645C871.411 13.6918 874.133 12.4945 877.131 12.3205ZM868.228 16.639L870.925 19.3356C869.732 20.7427 868.96 22.5182 868.796 24.4676H864.984C865.158 21.4692 866.355 18.7471 868.228 16.639ZM864.984 25.9873H868.796C868.955 27.9368 869.732 29.7123 870.925 31.1194L868.228 33.8159C866.355 31.7078 865.158 28.9857 864.984 25.9873ZM877.131 38.1344C874.133 37.9604 871.411 36.7631 869.303 34.8904L871.999 32.1939C873.406 33.3861 875.182 34.1587 877.131 34.3224V38.1344ZM870.039 25.2249C870.039 20.891 873.555 17.3758 877.888 17.3758C882.222 17.3758 885.738 20.891 885.738 25.2249C885.738 29.5588 882.222 33.074 877.888 33.074C873.555 33.074 870.039 29.5588 870.039 25.2249ZM878.651 38.1344V34.3224C880.6 34.1638 882.376 33.3861 883.783 32.1939L886.479 34.8904C884.371 36.7631 881.649 37.9604 878.651 38.1344ZM887.554 33.8159L884.857 31.1194C886.05 29.7123 886.822 27.9368 886.986 25.9873L890.798 25.9873C890.624 28.9857 889.427 31.7078 887.554 33.8159ZM886.986 24.4676C886.827 22.5182 886.05 20.7427 884.857 19.3356L887.554 16.639C889.427 18.7471 890.624 21.4692 890.798 24.4676L886.986 24.4676Z" fill="white"/>
<path d="M1004.03 0.656738C1017.46 0.656738 1028.39 11.5861 1028.39 25.0175C1028.39 38.4489 1017.46 49.3783 1004.03 49.3783C990.601 49.3783 979.672 38.4489 979.672 25.0175C979.672 11.5861 990.601 0.656738 1004.03 0.656738ZM1004.03 47.6232C1016.5 47.6232 1026.64 37.4819 1026.64 25.0175C1026.64 12.5532 1016.5 2.4118 1004.03 2.4118C991.568 2.4118 981.427 12.5532 981.427 25.0175C981.427 37.4819 991.568 47.6232 1004.03 47.6232Z" fill="#478BF9"/>
<path d="M944.479 0.655476C944.965 0.655476 945.354 1.04948 945.354 1.53045C945.354 2.01142 944.96 2.40542 944.479 2.40542C932.014 2.40542 921.873 12.5468 921.873 25.0111C921.873 37.4755 932.014 47.6168 944.479 47.6168C944.965 47.6168 945.354 48.0108 945.354 48.4918C945.354 48.9728 944.96 49.3668 944.479 49.3668C931.047 49.3668 920.118 38.4374 920.118 25.006C920.118 11.5746 931.047 0.645264 944.479 0.645264V0.655476Z" fill="#478BF9"/>
<path d="M1004.62 48.6337V37.9653H1002.52V48.6337H1004.62Z" fill="#478BF9"/>
<path d="M1004.62 11.9013V1.23291L1002.52 1.23291V11.9013H1004.62Z" fill="#478BF9"/>
<path d="M990.376 26.1523V24.0493L979.708 24.0493V26.1523L990.376 26.1523Z" fill="#478BF9"/>
<path d="M1027.43 26.1523V24.0493L1016.76 24.0493V26.1523L1027.43 26.1523Z" fill="#478BF9"/>
<path d="M1016.92 37.6432C1024.21 30.3467 1024.21 18.5117 1016.92 11.2101C1009.62 3.91368 997.785 3.91368 990.483 11.2101C983.187 18.5066 983.187 30.3416 990.483 37.6432C997.78 44.9396 1009.61 44.9396 1016.92 37.6432ZM1015.34 28.0391C1014.68 30.1676 1013.44 32.0762 1011.76 33.56L1011.44 33.8465L1011.34 33.427C1011.08 32.3167 1010.87 31.1296 1010.71 29.9016L1010.68 29.6815L1010.89 29.6202C1011.59 29.4155 1012.27 29.175 1012.89 28.8987C1013.68 28.5559 1014.36 28.1721 1014.94 27.7525L1015.57 27.292L1015.34 28.0391H1015.34ZM1004.28 19.4992L1004.55 19.5095C1006.17 19.5607 1007.71 19.7397 1009.13 20.0467L1009.36 20.0928L1009.34 20.323C1009.1 23.0144 1009.11 25.8901 1009.36 28.5661L1009.38 28.7963L1009.16 28.8475C1007.72 29.1596 1006.17 29.3387 1004.55 29.3848H1004.28V19.5044V19.4992ZM1003.1 29.3848H1002.83C1001.21 29.3285 999.658 29.1494 998.22 28.8373L997.995 28.7861L998.015 28.5559C998.266 25.8798 998.271 23.0042 998.041 20.3128L998.02 20.0826L998.245 20.0365C999.668 19.7295 1001.21 19.5504 1002.83 19.4992L1003.1 19.489V29.3745V29.3848ZM1015.78 24.442C1015.78 25.931 1013.89 27.4455 1010.85 28.3921L1010.54 28.4893L1010.52 28.167C1010.41 26.9083 1010.35 25.6086 1010.35 24.3039C1010.35 23.0912 1010.4 21.8836 1010.49 20.7068L1010.52 20.3844L1010.83 20.4816C1013.89 21.4282 1015.79 22.9479 1015.79 24.442H1015.78ZM1011.71 15.2728C1013.41 16.7669 1014.66 18.6908 1015.33 20.8449L1015.56 21.5971L1014.93 21.1315C1014.35 20.7119 1013.66 20.323 1012.88 19.9853C1012.27 19.7142 1011.58 19.4686 1010.85 19.2537L1010.64 19.1923L1010.66 18.9722C1010.82 17.734 1011.02 16.5367 1011.28 15.411L1011.38 14.9863L1011.71 15.2728ZM1004.56 12.2847C1006.55 12.4279 1008.5 13.0675 1010.19 14.1369L1010.35 14.2393L1010.31 14.4235C1009.97 15.7333 1009.71 17.1455 1009.52 18.6294L1009.48 18.9057L1009.21 18.8494C1007.72 18.5424 1006.15 18.3685 1004.53 18.3224H1004.28V12.2693L1004.56 12.2898V12.2847ZM997.028 14.2393L997.186 14.1369C998.875 13.0675 1000.82 12.4279 1002.82 12.2847L1003.1 12.2642V18.3122H1002.85C1001.23 18.3633 999.652 18.5424 998.174 18.8443L997.897 18.9006L997.862 18.6243C997.672 17.1455 997.406 15.7282 997.074 14.4183L997.028 14.2341V14.2393ZM992.044 20.8449C992.709 18.6908 993.963 16.7669 995.667 15.2728L995.994 14.9863L996.091 15.411C996.347 16.5367 996.557 17.734 996.71 18.9722L996.736 19.1923L996.526 19.2537C995.789 19.4686 995.104 19.7142 994.49 19.9853C993.707 20.3282 993.021 20.7119 992.443 21.1315L991.809 21.5971L992.039 20.8449H992.044ZM991.599 24.442C991.599 22.9479 993.497 21.4282 996.552 20.4816L996.864 20.3844L996.889 20.7068C997.084 23.1475 997.079 25.7468 996.869 28.167L996.843 28.4893L996.536 28.3921C993.497 27.4404 991.604 25.9259 991.604 24.442H991.599ZM995.615 33.56C993.937 32.0762 992.704 30.1625 992.044 28.0391L991.814 27.292L992.443 27.7525C993.016 28.1721 993.707 28.5559 994.49 28.8987C995.119 29.1699 995.789 29.4155 996.49 29.6202L996.705 29.6815L996.675 29.9016C996.516 31.1296 996.301 32.3167 996.04 33.427L995.938 33.8465L995.615 33.56ZM1002.82 36.5943C1000.8 36.451 998.834 35.8012 997.125 34.7062L996.966 34.6038L997.012 34.4196C997.355 33.1251 997.626 31.718 997.826 30.2444L997.862 29.9681L998.133 30.0244C999.617 30.3314 1001.2 30.5104 1002.84 30.5565H1003.09V36.6096L1002.81 36.5891L1002.82 36.5943ZM1004.28 30.5667H1004.53C1006.18 30.5156 1007.76 30.3365 1009.24 30.0295L1009.51 29.9732L1009.55 30.2495C1009.75 31.7231 1010.02 33.1251 1010.36 34.4247L1010.41 34.609L1010.25 34.7113C1008.54 35.8063 1006.58 36.4612 1004.55 36.5993L1004.28 36.6198V30.5719L1004.28 30.5667Z" fill="#478BF9"/>
<path d="M944.111 0.626221L1002.9 0.626221C1003.39 0.626221 1003.78 1.02022 1003.78 1.50119C1003.78 1.98217 1003.38 2.37616 1002.9 2.37616L944.111 2.37616C943.625 2.37616 943.236 1.98217 943.236 1.50119C943.236 1.02022 943.63 0.626221 944.111 0.626221Z" fill="#478BF9"/>
<path d="M943.977 47.5974L1002.77 47.5974C1003.25 47.5974 1003.64 47.9914 1003.64 48.4724C1003.64 48.9533 1003.25 49.3473 1002.77 49.3473L943.977 49.3473C943.491 49.3473 943.102 48.9533 943.102 48.4724C943.102 47.9914 943.496 47.5974 943.977 47.5974Z" fill="#478BF9"/>
<path d="M1046.8 41.9349C1037.22 32.354 1037.22 16.7665 1046.8 7.18564C1056.39 -2.39521 1071.97 -2.39521 1081.55 7.18564C1091.13 16.7665 1091.13 32.354 1081.55 41.9349C1071.97 51.5158 1056.39 51.5158 1046.8 41.9349ZM1080.4 8.34364C1071.45 -0.598804 1056.91 -0.598804 1047.97 8.34364C1039.02 17.2861 1039.02 31.8345 1047.97 40.7746C1056.91 49.717 1071.46 49.717 1080.4 40.7746C1089.34 31.8321 1089.34 17.2838 1080.4 8.34364Z" fill="white"/>
<path d="M1080.66 19.3482C1080.58 19.262 1080.51 19.1525 1080.47 19.0314C1079.62 16.515 1078.23 14.2852 1076.34 12.3979C1074.45 10.513 1072.22 9.12431 1069.71 8.27154C1069.37 8.15737 1069.15 7.84749 1069.15 7.49566V1.52393C1069.15 1.27229 1069.27 1.03463 1069.46 0.878524C1069.66 0.722415 1069.92 0.66883 1070.16 0.729409C1074.47 1.80586 1078.4 4.03797 1081.55 7.18577C1084.69 10.3336 1086.93 14.2689 1088 18.57C1088.06 18.8147 1088.01 19.0733 1087.85 19.2737C1087.7 19.4741 1087.46 19.5882 1087.21 19.5882H1081.24C1081.01 19.5882 1080.81 19.4974 1080.66 19.3459L1080.66 19.3482ZM1077.5 11.2399C1079.42 13.1645 1080.87 15.4199 1081.82 17.9503H1086.14C1085.05 14.3341 1083.08 11.0302 1080.39 8.34377C1077.71 5.6573 1074.4 3.68382 1070.79 2.60038V6.92015C1073.32 7.86379 1075.57 9.31537 1077.5 11.2423L1077.5 11.2399Z" fill="white"/>
<path d="M1046.8 41.9348C1043.66 38.7893 1041.42 34.8517 1040.35 30.5505C1040.29 30.3059 1040.34 30.0473 1040.5 29.8492C1040.65 29.6488 1040.89 29.5347 1041.14 29.5347H1047.11C1047.47 29.5347 1047.78 29.7583 1047.89 30.0915C1048.74 32.6079 1050.13 34.8377 1052.02 36.725C1053.9 38.6099 1056.13 39.9986 1058.65 40.8514C1058.98 40.9632 1059.21 41.2754 1059.21 41.6272V47.599C1059.21 47.8506 1059.09 48.0883 1058.89 48.2444C1058.69 48.4005 1058.43 48.4541 1058.19 48.3935C1053.89 47.317 1049.95 45.0849 1046.8 41.9395V41.9348ZM1042.22 31.1703C1043.3 34.7864 1045.28 38.0903 1047.96 40.7768C1050.65 43.4633 1053.95 45.4368 1057.57 46.5225V42.2027C1055.04 41.2591 1052.78 39.8075 1050.86 37.883C1048.93 35.9584 1047.48 33.703 1046.54 31.1726H1042.22V31.1703Z" fill="white"/>
<path d="M1069.39 48.1747C1069.24 48.0209 1069.15 47.8136 1069.15 47.5946V41.6228C1069.15 41.271 1069.38 40.9588 1069.71 40.847C1072.23 39.9965 1074.46 38.6079 1076.34 36.7206C1078.23 34.8333 1079.62 32.6035 1080.47 30.0871C1080.58 29.7539 1080.89 29.5303 1081.25 29.5303H1087.22C1087.47 29.5303 1087.71 29.6468 1087.86 29.8448C1088.02 30.0429 1088.07 30.3038 1088.01 30.5461C1086.93 34.8473 1084.7 38.7826 1081.56 41.9304C1078.41 45.0782 1074.47 47.3103 1070.17 48.3868C1069.93 48.4473 1069.67 48.3914 1069.47 48.2376C1069.44 48.2143 1069.42 48.1934 1069.4 48.1701L1069.39 48.1747ZM1070.79 42.2007V46.5204C1074.41 45.4347 1077.71 43.4612 1080.4 40.7747C1083.08 38.0883 1085.05 34.7844 1086.14 31.1682H1081.82C1080.88 33.6986 1079.43 35.9517 1077.5 37.8786C1075.58 39.8031 1073.32 41.257 1070.79 42.2007Z" fill="white"/>
<path d="M1040.56 19.3481C1040.54 19.3248 1040.52 19.2992 1040.5 19.2736C1040.34 19.0755 1040.29 18.8146 1040.35 18.5699C1041.42 14.2688 1043.66 10.3311 1046.8 7.18565C1049.95 4.04018 1053.89 1.80574 1058.19 0.729287C1058.43 0.668708 1058.69 0.724623 1058.89 0.878402C1059.09 1.03451 1059.21 1.27217 1059.21 1.52381V7.49554C1059.21 7.84736 1058.98 8.15958 1058.65 8.27142C1056.13 9.12186 1053.9 10.5105 1052.01 12.3978C1050.13 14.2828 1048.74 16.5149 1047.89 19.0312C1047.78 19.3644 1047.46 19.5881 1047.11 19.5881H1041.14C1040.92 19.5881 1040.71 19.5019 1040.56 19.3505L1040.56 19.3481ZM1057.57 2.60026C1053.95 3.68603 1050.65 5.65952 1047.96 8.34598C1045.27 11.0324 1043.3 14.3363 1042.21 17.9525H1046.53C1047.48 15.4221 1048.93 13.169 1050.86 11.2421C1052.78 9.31757 1055.04 7.866 1057.57 6.92003V2.60026Z" fill="white"/>
<path d="M1077.5 11.2399C1070.15 3.89581 1058.2 3.89348 1050.86 11.2399C1043.51 18.5863 1043.51 30.5367 1050.86 37.8808C1058.2 45.2249 1070.15 45.2272 1077.5 37.8808C1084.85 30.5344 1084.84 18.584 1077.5 11.2399Z" fill="white"/>
<path d="M1070.97 31.2838L1057.44 31.3735C1056.87 31.3773 1056.41 31.8425 1056.42 32.4125L1056.42 32.8948C1056.42 33.4649 1056.89 33.9239 1057.46 33.9201L1070.99 33.8304C1071.56 33.8266 1072.02 33.3614 1072.02 32.7914L1072.01 32.3091C1072.01 31.739 1071.54 31.28 1070.97 31.2838Z" fill="#110A1D"/>
<path d="M1059.29 23.1155C1059.14 23.1155 1058.99 23.0829 1058.85 23.0176L1057.8 22.5074C1057.34 22.2837 1057.13 21.7408 1057.32 21.2678L1057.81 20.0609C1057.96 19.6928 1058.31 19.4528 1058.7 19.4504C1058.87 19.4504 1059.04 19.4924 1059.19 19.5786L1060.45 20.2962C1060.68 20.429 1060.85 20.6597 1060.91 20.9253C1060.97 21.1909 1060.92 21.4705 1060.77 21.6942L1060.08 22.6938C1059.9 22.9547 1059.6 23.1132 1059.28 23.1132L1059.29 23.1155Z" fill="#110A1D"/>
<path d="M1069.03 23.0505C1068.71 23.0505 1068.41 22.899 1068.23 22.6404L1067.54 21.6781C1067.39 21.4568 1067.33 21.1772 1067.39 20.9116C1067.44 20.6459 1067.61 20.4129 1067.85 20.2755L1069.14 19.5136C1069.29 19.4274 1069.46 19.3808 1069.63 19.3784C1070.02 19.3761 1070.38 19.6114 1070.53 19.9772L1071.02 21.1492C1071.22 21.6199 1071.02 22.1674 1070.56 22.3957L1069.46 22.948C1069.32 23.0132 1069.18 23.0505 1069.03 23.0505H1069.03Z" fill="#110A1D"/>
<path d="M1058.22 30.4689C1057.63 30.4736 1057.09 30.1008 1056.89 29.5416L1054.63 23.3275C1054.49 23.3974 1054.34 23.451 1054.18 23.4906C1054 23.5372 1053.81 23.5605 1053.62 23.5605C1053.51 23.5605 1053.4 23.5559 1053.3 23.5419C1052.12 23.3928 1051.23 22.3839 1051.22 21.1956C1051.21 19.8815 1052.28 18.805 1053.59 18.7957C1054.9 18.7864 1055.98 19.8489 1055.99 21.163C1055.99 21.4659 1055.94 21.7571 1055.83 22.0297C1055.77 22.1788 1055.7 22.321 1055.62 22.4561L1059.91 24.5345L1063.19 19.7743C1063.06 19.7161 1062.92 19.6438 1062.8 19.5576C1062.56 19.3969 1062.35 19.1965 1062.19 18.9612C1061.9 18.5604 1061.75 18.0874 1061.75 17.5981C1061.74 16.284 1062.8 15.2076 1064.11 15.1982C1064.17 15.1982 1064.23 15.1982 1064.29 15.2029C1065.47 15.2821 1066.42 16.2258 1066.5 17.4024C1066.54 17.9593 1066.4 18.4928 1066.08 18.9472C1065.91 19.1848 1065.71 19.3875 1065.47 19.5483C1065.35 19.6345 1065.21 19.7067 1065.08 19.765L1068.42 24.4762L1072.64 22.3629C1072.57 22.2115 1072.5 22.053 1072.46 21.8876C1072.4 21.6872 1072.37 21.4775 1072.37 21.2655C1072.37 21.17 1072.37 21.0744 1072.38 20.9812C1072.52 19.7836 1073.53 18.8749 1074.73 18.868C1076.05 18.8586 1077.13 19.9211 1077.13 21.2352C1077.14 22.4887 1076.17 23.5419 1074.92 23.6281L1074.77 23.6327C1074.53 23.6327 1074.29 23.6001 1074.06 23.5302C1073.91 23.4836 1073.76 23.4254 1073.63 23.3508L1071.51 29.4437C1071.31 30.0052 1070.78 30.3827 1070.19 30.3874L1058.22 30.4666V30.4689Z" fill="#110A1D"/>
<path d="M1126.74 49.1414C1120.5 49.1414 1114.26 46.7673 1109.51 42.0138C1100 32.512 1100 17.0544 1109.51 7.55264C1114.11 2.94758 1120.23 0.414795 1126.74 0.414795C1133.25 0.414795 1139.37 2.94758 1143.97 7.55264C1153.47 17.0544 1153.47 32.512 1143.97 42.0138C1139.22 46.7621 1132.98 49.1414 1126.74 49.1414ZM1110.79 40.7346C1119.58 49.5303 1133.89 49.5303 1142.69 40.7346C1151.48 31.939 1151.48 17.6275 1142.69 8.83182C1138.43 4.56959 1132.76 2.22611 1126.73 2.22611C1120.71 2.22611 1115.04 4.5747 1110.78 8.83182C1101.98 17.6275 1101.98 31.939 1110.78 40.7346H1110.79Z" fill="#7DDACF"/>
<path d="M1127.64 19.6538L1123.13 25.9781H1125.84V30.491L1130.35 24.1719H1127.64V19.6538Z" fill="#7DDACF"/>
<path d="M1126.73 16.1384C1121.79 16.1384 1117.78 20.1499 1117.78 25.0927C1117.78 30.0355 1121.79 34.0368 1126.73 34.0368C1131.68 34.0368 1135.69 30.0252 1135.69 25.0927C1135.69 20.1602 1131.68 16.1384 1126.73 16.1384ZM1126.73 32.9315C1122.4 32.9315 1118.88 29.4112 1118.88 25.0723C1118.88 20.7333 1122.4 17.213 1126.73 17.213C1131.07 17.213 1134.59 20.7333 1134.59 25.0723C1134.59 29.4112 1131.07 32.9315 1126.73 32.9315Z" fill="#7DDACF"/>
<path d="M1140.58 10.9451C1136.88 7.2457 1131.96 5.21436 1126.74 5.21436C1121.51 5.21436 1116.59 7.25082 1112.89 10.9451C1105.27 18.5741 1105.27 30.9924 1112.89 38.6266C1116.71 42.4437 1121.72 44.3522 1126.74 44.3522C1131.75 44.3522 1136.76 42.4437 1140.58 38.6266C1148.21 30.9976 1148.21 18.5793 1140.58 10.9451ZM1126.74 37.24C1120.04 37.24 1114.59 31.7906 1114.59 25.098C1114.59 22.1405 1115.65 19.4286 1117.41 17.3103L1115.93 15.8264C1115.5 15.4018 1115.5 14.711 1115.93 14.2812C1116.35 13.8514 1117.04 13.8565 1117.47 14.2812L1118.96 15.7651C1120.8 14.2249 1123.12 13.2118 1125.65 12.9969V11.994H1124.64C1123.76 11.994 1123.03 11.2623 1123.03 10.3772V9.53288C1123.03 8.63745 1123.76 7.916 1124.64 7.916L1128.84 7.916C1129.72 7.916 1130.46 8.63745 1130.46 9.53288V10.3772C1130.46 11.2623 1129.72 11.994 1128.84 11.994H1127.84V12.9969C1130.37 13.2169 1132.68 14.23 1134.52 15.7651L1136.01 14.2812C1136.43 13.8565 1137.12 13.8565 1137.55 14.2812C1137.98 14.7059 1137.98 15.3966 1137.55 15.8264L1136.07 17.3103C1137.83 19.4286 1138.89 22.1354 1138.89 25.098C1138.89 31.7906 1133.44 37.24 1126.75 37.24H1126.74Z" fill="#7DDACF"/>
<path d="M1184.88 49.5907C1171.45 49.5907 1160.52 38.6613 1160.52 25.235C1160.52 11.8087 1171.45 0.879395 1184.88 0.879395C1198.3 0.879395 1209.23 11.8087 1209.23 25.235C1209.23 38.6613 1198.3 49.5907 1184.88 49.5907ZM1184.88 2.50139C1172.34 2.50139 1162.14 12.699 1162.14 25.235C1162.14 37.771 1172.34 47.9686 1184.88 47.9686C1197.41 47.9686 1207.61 37.771 1207.61 25.235C1207.61 12.699 1197.41 2.50139 1184.88 2.50139Z" fill="white"/>
<path d="M1200.77 7.85567L1193.23 15.3958L1194.71 16.8792L1202.25 9.33909L1200.77 7.85567Z" fill="white"/>
<path d="M1174.82 33.8108L1167.28 41.3508L1168.76 42.8342L1176.3 35.2942L1174.82 33.8108Z" fill="white"/>
<path d="M1194.94 33.8093L1193.46 35.2927L1201 42.8328L1202.48 41.3494L1194.94 33.8093Z" fill="white"/>
<path d="M1168.77 7.62695L1167.28 9.11035L1174.82 16.6468L1176.3 15.1634L1168.77 7.62695Z" fill="white"/>
<path d="M1190.82 25.89C1191.32 25.3988 1191.32 24.6057 1190.82 24.1196L1189.78 23.0809C1189.29 22.5897 1188.5 22.5897 1188.01 23.0809L1187.45 23.6438L1186.8 22.994C1186.31 22.5028 1185.51 22.5028 1185.03 22.994L1184.46 23.5619L1183.81 22.907C1183.32 22.4158 1182.53 22.4158 1182.04 22.907L1178.59 26.3608C1178.56 26.3864 1178.56 26.4273 1178.59 26.458C1179.05 26.9185 1179.8 26.9185 1180.27 26.458L1182.49 24.2322C1182.73 23.9917 1183.12 23.9917 1183.36 24.2322L1183.53 24.3959C1183.56 24.4266 1183.56 24.4727 1183.53 24.5034L1181.67 26.3608C1181.64 26.3864 1181.64 26.4273 1181.67 26.458C1182.13 26.9185 1182.88 26.9185 1183.35 26.458L1185.48 24.3243C1185.72 24.0838 1186.11 24.0838 1186.35 24.3243L1186.52 24.488C1186.54 24.5136 1186.54 24.5546 1186.52 24.5853L1184.72 26.3761C1184.7 26.4017 1184.7 26.4426 1184.72 26.4733C1185.19 26.9338 1185.94 26.9338 1186.4 26.4733L1188.47 24.4113C1188.71 24.1708 1189.09 24.1708 1189.34 24.4113L1189.69 24.7644C1189.83 24.9025 1189.83 25.1328 1189.69 25.2709L1189.63 25.3272C1189.49 25.4653 1189.26 25.4653 1189.13 25.3272L1188.67 24.8718C1188.64 24.8462 1188.6 24.8462 1188.57 24.8718L1187.78 25.6598C1187.76 25.6854 1187.76 25.7263 1187.78 25.757L1188.5 26.4682C1188.99 26.9594 1189.78 26.9594 1190.27 26.4682L1190.83 25.9054L1190.82 25.89Z" fill="white"/>
<path d="M1184.88 6.55396C1174.56 6.55396 1166.2 14.9147 1166.2 25.23C1166.2 35.5453 1174.56 43.9061 1184.88 43.9061C1195.19 43.9061 1203.55 35.5453 1203.55 25.23C1203.55 14.9147 1195.19 6.55396 1184.88 6.55396ZM1185.64 12.3205C1188.64 12.4945 1191.36 13.6918 1193.47 15.5645L1190.77 18.261C1189.37 17.0688 1187.59 16.2962 1185.64 16.1325V12.3205ZM1184.12 12.3205V16.1325C1182.17 16.2911 1180.4 17.0688 1178.99 18.261L1176.29 15.5645C1178.4 13.6918 1181.12 12.4945 1184.12 12.3205ZM1175.22 16.639L1177.91 19.3356C1176.72 20.7427 1175.95 22.5182 1175.79 24.4676H1171.97C1172.15 21.4692 1173.35 18.7471 1175.22 16.639ZM1171.97 25.9873H1175.79C1175.94 27.9368 1176.72 29.7123 1177.91 31.1194L1175.22 33.8159C1173.35 31.7078 1172.15 28.9857 1171.97 25.9873ZM1184.12 38.1344C1181.12 37.9604 1178.4 36.7631 1176.29 34.8904L1178.99 32.1939C1180.4 33.3861 1182.17 34.1587 1184.12 34.3224V38.1344ZM1177.03 25.2249C1177.03 20.891 1180.54 17.3758 1184.88 17.3758C1189.21 17.3758 1192.73 20.891 1192.73 25.2249C1192.73 29.5588 1189.21 33.074 1184.88 33.074C1180.54 33.074 1177.03 29.5588 1177.03 25.2249ZM1185.64 38.1344V34.3224C1187.59 34.1638 1189.37 33.3861 1190.77 32.1939L1193.47 34.8904C1191.36 36.7631 1188.64 37.9604 1185.64 38.1344ZM1194.54 33.8159L1191.85 31.1194C1193.04 29.7123 1193.81 27.9368 1193.98 25.9873L1197.79 25.9873C1197.61 28.9857 1196.42 31.7078 1194.54 33.8159ZM1193.98 24.4676C1193.82 22.5182 1193.04 20.7427 1191.85 19.3356L1194.54 16.639C1196.42 18.7471 1197.61 21.4692 1197.79 24.4676L1193.98 24.4676Z" fill="white"/>
</svg>
